<?xml version="1.0" encoding="UTF-8"?>
<svg version="1.1" xmlns="http://www.w3.org/2000/svg" width="224" height="224">
<path d="M0 0 C73.92 0 147.84 0 224 0 C224 73.92 224 147.84 224 224 C150.08 224 76.16 224 0 224 C0 150.08 0 76.16 0 0 Z " fill="#FBFCFC" transform="translate(0,0)"/>
<path d="M0 0 C0.7940625 0.00515625 1.588125 0.0103125 2.40625 0.015625 C3.2003125 0.01046875 3.994375 0.0053125 4.8125 0 C6.90625 0.265625 6.90625 0.265625 8.90625 2.265625 C9.03125 5.390625 9.03125 5.390625 8.90625 8.265625 C10.081875 8.4203125 10.081875 8.4203125 11.28125 8.578125 C15.9386476 9.46142454 20.38817149 10.84591258 24.90625 12.265625 C25.23625 11.935625 25.56625 11.605625 25.90625 11.265625 C27.73740883 11.16711329 29.57244933 11.13589871 31.40625 11.140625 C32.4065625 11.13804688 33.406875 11.13546875 34.4375 11.1328125 C36.90625 11.265625 36.90625 11.265625 37.90625 12.265625 C38.0041557 13.76300624 38.03599864 15.26505392 38.03125 16.765625 C38.03511719 17.98765625 38.03511719 17.98765625 38.0390625 19.234375 C37.90625 21.265625 37.90625 21.265625 36.90625 22.265625 C35.13771708 22.36501363 33.36506725 22.39531723 31.59375 22.390625 C30.62824219 22.39320312 29.66273438 22.39578125 28.66796875 22.3984375 C26.24481295 22.28190667 24.21980031 21.95804148 21.90625 21.265625 C21.9475 22.173125 21.98875 23.080625 22.03125 24.015625 C21.90625 27.265625 21.90625 27.265625 19.90625 31.265625 C14.95625 31.265625 10.00625 31.265625 4.90625 31.265625 C4.41125 29.780625 4.41125 29.780625 3.90625 28.265625 C1.92625 28.265625 -0.05375 28.265625 -2.09375 28.265625 C-2.23406566 31.18764917 -2.23406566 31.18764917 -1.09375 34.265625 C5.10426915 37.70896897 10.9438762 37.61118399 17.90625 37.265625 C18.40125 39.245625 18.40125 39.245625 18.90625 41.265625 C20.55625 41.265625 22.20625 41.265625 23.90625 41.265625 C24.091875 40.3065625 24.091875 40.3065625 24.28125 39.328125 C24.4875 38.6475 24.69375 37.966875 24.90625 37.265625 C27.43100462 36.00324769 29.21825466 36.16706096 32.03125 36.203125 C32.94132812 36.21214844 33.85140625 36.22117188 34.7890625 36.23046875 C35.48773438 36.24207031 36.18640625 36.25367188 36.90625 36.265625 C38.02881131 38.51074762 38.04038762 39.78019149 38.03125 42.265625 C38.03511719 43.3175 38.03511719 43.3175 38.0390625 44.390625 C37.90625 46.265625 37.90625 46.265625 36.90625 48.265625 C35.91625 48.265625 34.92625 48.265625 33.90625 48.265625 C34.89625 53.710625 34.89625 53.710625 35.90625 59.265625 C39.09419856 58.59530074 39.09419856 58.59530074 40.109375 55.8671875 C40.45484375 54.88492188 40.8003125 53.90265625 41.15625 52.890625 C41.51203125 51.91351563 41.8678125 50.93640625 42.234375 49.9296875 C43.17994 47.18899526 43.17994 47.18899526 41.90625 44.265625 C41.77843214 41.59167536 41.86233129 38.94466643 41.90625 36.265625 C43.38531892 36.23873284 44.86452483 36.21927879 46.34375 36.203125 C47.57931641 36.18572266 47.57931641 36.18572266 48.83984375 36.16796875 C50.90625 36.265625 50.90625 36.265625 51.90625 37.265625 C52.03125 40.765625 52.03125 40.765625 51.90625 44.265625 C50.90625 45.265625 50.90625 45.265625 47.84375 45.328125 C46.874375 45.3075 45.905 45.286875 44.90625 45.265625 C44.803125 46.090625 44.7 46.915625 44.59375 47.765625 C43.78978944 51.85851512 42.44272842 55.39102725 40.90625 59.265625 C42.22625 59.925625 43.54625 60.585625 44.90625 61.265625 C44.96047947 62.7027059 44.99914723 64.14037962 45.03125 65.578125 C45.05445313 66.37863281 45.07765625 67.17914063 45.1015625 68.00390625 C44.90625 70.265625 44.90625 70.265625 42.90625 73.265625 C40.41015625 73.59375 40.41015625 73.59375 37.46875 73.515625 C36.50066406 73.50015625 35.53257812 73.4846875 34.53515625 73.46875 C31.90625 73.265625 31.90625 73.265625 28.90625 72.265625 C25.67727992 72.91925681 25.67727992 72.91925681 22.90625 75.265625 C21.78123548 78.55087867 21.28113171 81.82059136 20.90625 85.265625 C22.39125 85.760625 22.39125 85.760625 23.90625 86.265625 C23.94879356 88.26517246 23.94705783 90.26604136 23.90625 92.265625 C22.90625 93.265625 22.90625 93.265625 19.84375 93.328125 C18.874375 93.3075 17.905 93.286875 16.90625 93.265625 C16.78507812 92.56695312 16.66390625 91.86828125 16.5390625 91.1484375 C16.37148437 90.23835938 16.20390625 89.32828125 16.03125 88.390625 C15.86882812 87.48570313 15.70640625 86.58078125 15.5390625 85.6484375 C15.07580297 83.10056512 15.07580297 83.10056512 12.90625 81.265625 C10.58076993 80.57206077 8.24744555 79.90413288 5.90625 79.265625 C4.90625 78.265625 4.90625 78.265625 4.84375 74.703125 C4.864375 73.56875 4.885 72.434375 4.90625 71.265625 C7.66875036 69.88437482 9.85356099 70.07483194 12.90625 70.265625 C14.90625 72.265625 14.90625 72.265625 14.90625 76.265625 C15.89625 76.265625 16.88625 76.265625 17.90625 76.265625 C17.57625 72.305625 17.24625 68.345625 16.90625 64.265625 C16.24625 64.265625 15.58625 64.265625 14.90625 64.265625 C14.57625 64.925625 14.24625 65.585625 13.90625 66.265625 C11.84375 64.015625 11.84375 64.015625 9.90625 61.265625 C10.15625 58.953125 10.15625 58.953125 10.90625 57.265625 C7.19025809 57.06476057 6.13416555 57.1136813 2.90625 59.265625 C1.91625 59.265625 0.92625 59.265625 -0.09375 59.265625 C0.256875 60.1525 0.6075 61.039375 0.96875 61.953125 C1.92380602 65.32765626 1.87776132 66.96248652 0.90625 70.265625 C-0.41375 70.265625 -1.73375 70.265625 -3.09375 70.265625 C-2.76375 66.635625 -2.43375 63.005625 -2.09375 59.265625 C-4.07375 59.265625 -6.05375 59.265625 -8.09375 59.265625 C-8.22652344 60.19246094 -8.35929687 61.11929688 -8.49609375 62.07421875 C-8.67269531 63.27175781 -8.84929687 64.46929687 -9.03125 65.703125 C-9.20527344 66.89808594 -9.37929687 68.09304687 -9.55859375 69.32421875 C-10.09375 72.265625 -10.09375 72.265625 -11.09375 73.265625 C-12.90625 73.3984375 -12.90625 73.3984375 -15.09375 73.390625 C-15.815625 73.39320312 -16.5375 73.39578125 -17.28125 73.3984375 C-19.09375 73.265625 -19.09375 73.265625 -20.09375 72.265625 C-20.23490161 69.59503649 -20.13622107 66.94130262 -20.09375 64.265625 C-23.1407129 62.57128582 -25.92196466 61.77095388 -29.34375 61.140625 C-30.23578125 60.97304687 -31.1278125 60.80546875 -32.046875 60.6328125 C-33.06007813 60.45105469 -33.06007813 60.45105469 -34.09375 60.265625 C-34.42375 59.275625 -34.75375 58.285625 -35.09375 57.265625 C-36.41375 57.265625 -37.73375 57.265625 -39.09375 57.265625 C-39.42375 57.925625 -39.75375 58.585625 -40.09375 59.265625 C-39.76375 57.945625 -39.43375 56.625625 -39.09375 55.265625 C-37.44375 55.595625 -35.79375 55.925625 -34.09375 56.265625 C-33.76375 54.945625 -33.43375 53.625625 -33.09375 52.265625 C-30.76080225 52.22320777 -28.42672433 52.22469563 -26.09375 52.265625 C-25.59875 52.760625 -25.59875 52.760625 -25.09375 53.265625 C-20.25340284 53.42970456 -15.86116373 53.21910775 -11.09375 52.265625 C-11.42375 51.275625 -11.75375 50.285625 -12.09375 49.265625 C-15.11015055 48.00922242 -15.11015055 48.00922242 -18.65625 47.078125 C-19.85378906 46.73394531 -21.05132812 46.38976562 -22.28515625 46.03515625 C-23.21199219 45.78121094 -24.13882813 45.52726562 -25.09375 45.265625 C-25.42375 45.595625 -25.75375 45.925625 -26.09375 46.265625 C-27.59113124 46.3635307 -29.09317892 46.39537364 -30.59375 46.390625 C-31.4084375 46.39320312 -32.223125 46.39578125 -33.0625 46.3984375 C-35.09375 46.265625 -35.09375 46.265625 -36.09375 45.265625 C-36.13467937 42.93265067 -36.13616723 40.59857275 -36.09375 38.265625 C-36.733125 37.95625 -37.3725 37.646875 -38.03125 37.328125 C-40.09375 36.265625 -40.09375 36.265625 -41.09375 35.265625 C-43.42192964 34.89801769 -45.7555885 34.56320919 -48.09375 34.265625 C-48.42375 36.905625 -48.75375 39.545625 -49.09375 42.265625 C-48.43375 42.265625 -47.77375 42.265625 -47.09375 42.265625 C-46.71311779 44.5917107 -46.38105055 46.92617764 -46.09375 49.265625 C-47.09375 50.265625 -47.09375 50.265625 -48.90625 50.3984375 C-49.628125 50.39585938 -50.35 50.39328125 -51.09375 50.390625 C-51.815625 50.39320312 -52.5375 50.39578125 -53.28125 50.3984375 C-55.09375 50.265625 -55.09375 50.265625 -56.09375 49.265625 C-56.13455783 47.26604136 -56.13629356 45.26517246 -56.09375 43.265625 C-55.31 43.08 -54.52625 42.894375 -53.71875 42.703125 C-50.69998658 41.42600873 -50.69998658 41.42600873 -49.78125 37.640625 C-49.554375 36.526875 -49.3275 35.413125 -49.09375 34.265625 C-50.08375 33.935625 -51.07375 33.605625 -52.09375 33.265625 C-52.21875 30.390625 -52.21875 30.390625 -52.09375 27.265625 C-50.09375 25.265625 -50.09375 25.265625 -46.78125 25.015625 C-43.02423807 24.25148698 -41.33147139 23.44038986 -39.0234375 20.35546875 C-37.38711827 16.67718813 -37.37296432 12.8544932 -37.234375 8.875 C-37.09375 6.265625 -37.09375 6.265625 -36.09375 4.265625 C-33.96902424 4.21175871 -31.84391348 4.17289429 -29.71875 4.140625 C-28.53539063 4.11742187 -27.35203125 4.09421875 -26.1328125 4.0703125 C-23.09375 4.265625 -23.09375 4.265625 -21.09375 6.265625 C-20.86328125 8.32421875 -20.86328125 8.32421875 -20.90625 10.703125 C-20.91269531 11.48558594 -20.91914062 12.26804687 -20.92578125 13.07421875 C-21.09375 15.265625 -21.09375 15.265625 -22.09375 18.265625 C-20.94864241 19.8724588 -20.94864241 19.8724588 -19.09375 21.265625 C-16.35131437 21.62832984 -16.35131437 21.62832984 -13.40625 21.453125 C-11.653125 21.39125 -9.9 21.329375 -8.09375 21.265625 C-6.44375 17.965625 -4.79375 14.665625 -3.09375 11.265625 C-3.58875 10.770625 -3.58875 10.770625 -4.09375 10.265625 C-4.36689815 4.52951389 -4.36689815 4.52951389 -4.09375 2.265625 C-2.09375 0.265625 -2.09375 0.265625 0 0 Z " fill="#91C2A9" transform="translate(113.09375,17.734375)"/>
<path d="M0 0 C0.7940625 0.00515625 1.588125 0.0103125 2.40625 0.015625 C3.2003125 0.01046875 3.994375 0.0053125 4.8125 0 C6.90625 0.265625 6.90625 0.265625 8.90625 2.265625 C9.03125 5.390625 9.03125 5.390625 8.90625 8.265625 C9.69 8.36875 10.47375 8.471875 11.28125 8.578125 C15.9386476 9.46142454 20.38817149 10.84591258 24.90625 12.265625 C25.23625 11.935625 25.56625 11.605625 25.90625 11.265625 C27.73740883 11.16711329 29.57244933 11.13589871 31.40625 11.140625 C32.4065625 11.13804688 33.406875 11.13546875 34.4375 11.1328125 C36.90625 11.265625 36.90625 11.265625 37.90625 12.265625 C38.0041557 13.76300624 38.03599864 15.26505392 38.03125 16.765625 C38.03511719 17.98765625 38.03511719 17.98765625 38.0390625 19.234375 C37.90625 21.265625 37.90625 21.265625 36.90625 22.265625 C35.13771708 22.36501363 33.36506725 22.39531723 31.59375 22.390625 C30.62824219 22.39320312 29.66273438 22.39578125 28.66796875 22.3984375 C26.24481295 22.28190667 24.21980031 21.95804148 21.90625 21.265625 C21.9475 22.173125 21.98875 23.080625 22.03125 24.015625 C21.90625 27.265625 21.90625 27.265625 19.90625 31.265625 C14.95625 31.265625 10.00625 31.265625 4.90625 31.265625 C4.57625 30.275625 4.24625 29.285625 3.90625 28.265625 C1.92625 28.265625 -0.05375 28.265625 -2.09375 28.265625 C-2.23406566 31.18764917 -2.23406566 31.18764917 -1.09375 34.265625 C5.10426915 37.70896897 10.9438762 37.61118399 17.90625 37.265625 C18.40125 39.245625 18.40125 39.245625 18.90625 41.265625 C20.55625 41.265625 22.20625 41.265625 23.90625 41.265625 C24.091875 40.3065625 24.091875 40.3065625 24.28125 39.328125 C24.4875 38.6475 24.69375 37.966875 24.90625 37.265625 C27.43100462 36.00324769 29.21825466 36.16706096 32.03125 36.203125 C32.94132812 36.21214844 33.85140625 36.22117188 34.7890625 36.23046875 C35.48773438 36.24207031 36.18640625 36.25367188 36.90625 36.265625 C38.02881131 38.51074762 38.04038762 39.78019149 38.03125 42.265625 C38.03511719 43.3175 38.03511719 43.3175 38.0390625 44.390625 C37.90625 46.265625 37.90625 46.265625 36.90625 48.265625 C35.11491022 48.31954493 33.32311101 48.35838071 31.53125 48.390625 C30.53351563 48.41382813 29.53578125 48.43703125 28.5078125 48.4609375 C25.90625 48.265625 25.90625 48.265625 23.90625 46.265625 C23.90625 44.945625 23.90625 43.625625 23.90625 42.265625 C22.25625 42.265625 20.60625 42.265625 18.90625 42.265625 C18.57625 43.255625 18.24625 44.245625 17.90625 45.265625 C7.94521104 46.78510552 7.94521104 46.78510552 2.90625 44.265625 C1.20261178 44.03940419 -0.50703701 43.85674027 -2.21875 43.703125 C-3.12882812 43.61933594 -4.03890625 43.53554688 -4.9765625 43.44921875 C-5.67523438 43.38863281 -6.37390625 43.32804687 -7.09375 43.265625 C-7.58875 41.780625 -7.58875 41.780625 -8.09375 40.265625 C-9.23263672 40.31783203 -9.23263672 40.31783203 -10.39453125 40.37109375 C-11.38839844 40.39816406 -12.38226563 40.42523438 -13.40625 40.453125 C-14.39238281 40.48792969 -15.37851563 40.52273437 -16.39453125 40.55859375 C-19.09375 40.265625 -19.09375 40.265625 -20.93359375 39.12890625 C-22.59723843 36.45699207 -22.42024016 34.3864236 -22.34375 31.265625 C-22.32828125 30.21375 -22.3128125 29.161875 -22.296875 28.078125 C-22.09375 25.265625 -22.09375 25.265625 -21.09375 22.265625 C-21.96858915 20.09846943 -21.96858915 20.09846943 -23.09375 18.265625 C-22.55234375 18.75675781 -22.0109375 19.24789062 -21.453125 19.75390625 C-18.52133717 21.6323862 -16.79075309 21.57623225 -13.34375 21.453125 C-11.61125 21.39125 -9.87875 21.329375 -8.09375 21.265625 C-6.44375 17.965625 -4.79375 14.665625 -3.09375 11.265625 C-3.42375 10.935625 -3.75375 10.605625 -4.09375 10.265625 C-4.36689815 4.52951389 -4.36689815 4.52951389 -4.09375 2.265625 C-2.09375 0.265625 -2.09375 0.265625 0 0 Z " fill="#54C1D3" transform="translate(113.09375,17.734375)"/>
<path d="M0 0 C1.67012983 0.06378968 3.33780985 0.20028115 5 0.375 C5.9075 0.46523438 6.815 0.55546875 7.75 0.6484375 C10 1 10 1 11 2 C11.09774776 4.21275839 11.12516336 6.42863851 11.12597656 8.64355469 C11.1278447 9.33792633 11.12971283 10.03229797 11.13163757 10.74771118 C11.13565084 12.26080706 11.13771726 13.77390904 11.13809967 15.28701019 C11.14150547 18.5033684 11.16285854 21.71952267 11.18333054 24.93581009 C11.22139475 30.92923818 11.25261718 36.92245302 11.25048828 42.91601562 C11.24970093 47.08013726 11.27307794 51.24351929 11.3123703 55.40744781 C11.32283256 56.99420089 11.32435259 58.58103933 11.31671906 60.16780853 C11.30708837 62.39230649 11.32829229 64.61457083 11.35644531 66.83886719 C11.36009094 68.10382019 11.36373657 69.36877319 11.36749268 70.67205811 C12.16460406 74.86606548 13.75126867 76.32737939 17 79 C21.59281517 81.61603605 26.99181679 82.17574271 32.1484375 82.91723633 C45.43091345 84.84812527 57.46156823 89.11928381 69 96 C64.55215596 97.37545011 60.91095113 96.24779042 56.5 95.1875 C42.26766501 91.98988468 27.90383986 90.94225463 13.35351562 90.34106445 C0.8033998 89.8033998 0.8033998 89.8033998 -1 88 C-1.10046803 85.29699701 -1.13616452 82.61951654 -1.12939453 79.91601562 C-1.13114685 79.06891525 -1.13289917 78.22181488 -1.13470459 77.3490448 C-1.13912409 74.53475934 -1.13618477 71.72053616 -1.1328125 68.90625 C-1.13348551 66.95951322 -1.13445551 65.01277653 -1.13571167 63.06604004 C-1.13718878 58.98037925 -1.13503368 54.89474029 -1.13037109 50.80908203 C-1.1246738 45.55953484 -1.12795274 40.31003878 -1.13394356 35.06049347 C-1.13754883 31.03891613 -1.13641074 27.01735101 -1.13381577 22.99577332 C-1.1331464 21.05958551 -1.13397525 19.12339661 -1.13629532 17.18721008 C-1.13882129 14.48610476 -1.13498205 11.78508341 -1.12939453 9.08398438 C-1.13141876 8.27563644 -1.13344299 7.46728851 -1.13552856 6.63444519 C-1.11426248 1.11426248 -1.11426248 1.11426248 0 0 Z " fill="#194C6C" transform="translate(22,33)"/>
<path d="M0 0 C0.02312255 11.3261163 0.04091464 22.65222703 0.05181217 33.97836208 C0.05704119 39.23696664 0.06413918 44.4955551 0.07543945 49.75415039 C0.08626766 54.82453127 0.09227669 59.89489662 0.09487724 64.96528816 C0.09673161 66.90426948 0.10035245 68.84324991 0.10573006 70.78222466 C0.1129396 73.4882176 0.11399098 76.19414556 0.11352539 78.90014648 C0.11712067 79.71006546 0.12071594 80.51998444 0.12442017 81.35444641 C0.11405216 86.88594784 0.11405216 86.88594784 -1 88 C-2.68864836 88.20529703 -4.38496095 88.34808531 -6.08203125 88.46484375 C-7.68280518 88.57965088 -7.68280518 88.57965088 -9.31591797 88.69677734 C-10.46979004 88.77621582 -11.62366211 88.8556543 -12.8125 88.9375 C-15.20713727 89.11445653 -17.60166835 89.29285567 -19.99609375 89.47265625 C-21.18702637 89.5617627 -22.37795898 89.65086914 -23.60498047 89.74267578 C-36.15279808 90.69373286 -48.34675831 92.00619011 -60.64404297 94.76708984 C-61.43311035 94.94062988 -62.22217773 95.11416992 -63.03515625 95.29296875 C-63.7300415 95.4530542 -64.42492676 95.61313965 -65.14086914 95.77807617 C-67 96 -67 96 -70 95 C-65.22200195 92.13814606 -60.53833048 89.849967 -55.3125 87.9375 C-54.61624512 87.68073486 -53.91999023 87.42396973 -53.20263672 87.15942383 C-45.55183752 84.39590391 -37.95846405 82.13809807 -29.8125 81.5625 C-24.0949778 81.11063131 -19.08052534 79.19849445 -14.40763855 75.86357117 C-12.25886731 73.01881522 -12.59840858 70.57762336 -12.56762695 67.05004883 C-12.5574353 66.34735367 -12.54724365 65.64465851 -12.53674316 64.92066956 C-12.506563 62.59937622 -12.49733994 60.27849517 -12.48828125 57.95703125 C-12.47143821 56.34704715 -12.45328848 54.73707623 -12.43388367 53.12712097 C-12.38633645 48.89063638 -12.35655782 44.65420521 -12.33044434 40.4175415 C-12.3006625 36.09400885 -12.25412406 31.77066039 -12.20898438 27.44726562 C-12.12289761 18.96493414 -12.05557644 10.48258598 -12 2 C-7.8794254 0.00214565 -4.54805635 -0.17835515 0 0 Z " fill="#184B6C" transform="translate(203,34)"/>
<path d="M0 0 C1.70359267 1.70359267 1.12586608 3.84309854 1.13552856 6.11564636 C1.13350433 6.84761734 1.1314801 7.57958832 1.12939453 8.33374023 C1.13114685 9.10120575 1.13289917 9.86867126 1.13470459 10.65939331 C1.13912394 13.20914946 1.13618455 15.75883684 1.1328125 18.30859375 C1.13348559 20.07357293 1.13445565 21.83855202 1.13571167 23.60353088 C1.13718881 27.30836873 1.13503383 31.01318252 1.13037109 34.71801758 C1.12467796 39.47422676 1.12795007 44.23037947 1.13394356 48.98658657 C1.13755228 52.63333056 1.13640907 56.28006111 1.13381577 59.9268055 C1.13314714 61.68074615 1.13397267 63.434688 1.13629532 65.18862724 C1.13882647 67.63807292 1.13497448 70.08742644 1.12939453 72.53686523 C1.13141876 73.26681198 1.13344299 73.99675873 1.13552856 74.74882507 C1.11426354 79.77147293 1.11426354 79.77147293 0 82 C-3.42175634 83.14058545 -6.53275865 83.39291836 -10.125 83.75 C-24.46895289 85.38766301 -37.47717257 90.09050404 -50.265625 96.68359375 C-51.89757812 97.52083984 -51.89757812 97.52083984 -53.5625 98.375 C-55.04943359 99.16003906 -55.04943359 99.16003906 -56.56640625 99.9609375 C-57.36949219 100.30382812 -58.17257813 100.64671875 -59 101 C-59.66 100.67 -60.32 100.34 -61 100 C-47.95394729 87.74379181 -35.18383299 81.51091387 -18.26953125 76.0546875 C-15.42226457 74.7315171 -13.97260144 73.4584507 -12 71 C-11.38337737 67.81722777 -11.38337737 67.81722777 -11.45410156 64.21191406 C-11.44376389 63.53833359 -11.43342621 62.86475311 -11.42277527 62.17076111 C-11.39335994 59.95213803 -11.39184849 57.7344277 -11.390625 55.515625 C-11.37564234 53.9743272 -11.35891501 52.43304546 -11.34051514 50.89178467 C-11.2968383 46.84103659 -11.27684202 42.79050507 -11.26177979 38.73956299 C-11.24220973 34.60358879 -11.20023967 30.46784851 -11.16015625 26.33203125 C-11.08485064 18.22141537 -11.03456156 10.11089134 -11 2 C-7.20129266 -0.12157386 -4.35713932 -0.24663053 0 0 Z " fill="#1E70A2" transform="translate(183,25)"/>
<path d="M0 0 C3.44687487 0.17526482 4.79856206 0.57403135 7.6875 2.1875 C7.68892502 3.0408342 7.69035004 3.8941684 7.69181824 4.77336121 C7.70966001 12.82180763 7.75130804 20.86970488 7.81959057 28.91788769 C7.85385763 33.05543938 7.87897002 37.19262196 7.88305664 41.33032227 C7.88734034 45.32476411 7.91580757 49.31837337 7.96093178 53.31255531 C7.97390474 54.83509786 7.97821512 56.35774006 7.97365379 57.88033104 C7.96874567 60.0164272 7.99484153 62.15009181 8.02807617 64.28588867 C8.03473801 65.5005632 8.04139984 66.71523773 8.04826355 67.96672058 C8.86726649 72.09324967 10.46530118 73.56988297 13.6875 76.1875 C16.42639577 77.34443156 16.42639577 77.34443156 19.4375 78 C33.17803913 81.8835349 48.2226096 88.1556432 56.6875 100.1875 C52.2856677 98.84249569 48.02025379 97.45856289 43.9375 95.3125 C30.35787739 88.29502244 15.55100752 84.35543643 0.41796875 82.6796875 C-2.3125 82.1875 -2.3125 82.1875 -4.3125 80.1875 C-4.50554165 77.6632567 -4.57485759 75.24922477 -4.55541992 72.72436523 C-4.55731827 71.9551474 -4.55921661 71.18592957 -4.56117249 70.3934021 C-4.56488513 67.8441965 -4.5541701 65.29527414 -4.54296875 62.74609375 C-4.54177722 60.98014866 -4.54132373 59.21420292 -4.5415802 57.44825745 C-4.54001454 53.74516846 -4.53171797 50.04217603 -4.51831055 46.33911133 C-4.50130817 41.58170442 -4.49749651 36.8244036 -4.49825573 32.06696987 C-4.49798442 28.42026244 -4.49250966 24.77357841 -4.48525429 21.12687874 C-4.48206228 19.37211344 -4.48009898 17.61734548 -4.47936058 15.86257744 C-4.47720333 13.41541862 -4.46847292 10.96837458 -4.45776367 8.52124023 C-4.45821686 7.78926926 -4.45867004 7.05729828 -4.45913696 6.30314636 C-4.42021112 0.25020063 -4.42021112 0.25020063 0 0 Z " fill="#1E70A1" transform="translate(44.3125,24.8125)"/>
<path d="M0 0 C1.47906892 -0.02689216 2.95827483 -0.04634621 4.4375 -0.0625 C5.26121094 -0.07410156 6.08492187 -0.08570313 6.93359375 -0.09765625 C9 0 9 0 10 1 C10.125 4.5 10.125 4.5 10 8 C9 9 9 9 5.9375 9.0625 C4.968125 9.041875 3.99875 9.02125 3 9 C2.896875 9.825 2.79375 10.65 2.6875 11.5 C1.88353944 15.59289012 0.53647842 19.12540225 -1 23 C0.32 23.66 1.64 24.32 3 25 C3.05422947 26.4370809 3.09289723 27.87475462 3.125 29.3125 C3.14820313 30.11300781 3.17140625 30.91351563 3.1953125 31.73828125 C3 34 3 34 1 37 C-1.49609375 37.328125 -1.49609375 37.328125 -4.4375 37.25 C-5.40558594 37.23453125 -6.37367188 37.2190625 -7.37109375 37.203125 C-10 37 -10 37 -13 36 C-16.22897008 36.65363181 -16.22897008 36.65363181 -19 39 C-20.12501452 42.28525367 -20.62511829 45.55496636 -21 49 C-19.515 49.495 -19.515 49.495 -18 50 C-17.95745644 51.99954746 -17.95919217 54.00041636 -18 56 C-19 57 -19 57 -22.0625 57.0625 C-23.031875 57.041875 -24.00125 57.02125 -25 57 C-25.12117187 56.30132812 -25.24234375 55.60265625 -25.3671875 54.8828125 C-25.53476563 53.97273438 -25.70234375 53.06265625 -25.875 52.125 C-26.03742188 51.22007813 -26.19984375 50.31515625 -26.3671875 49.3828125 C-26.83044703 46.83494012 -26.83044703 46.83494012 -29 45 C-31.32548007 44.30643577 -33.65880445 43.63850788 -36 43 C-37 42 -37 42 -37.0625 38.4375 C-37.041875 37.303125 -37.02125 36.16875 -37 35 C-34.23749964 33.61874982 -32.05268901 33.80920694 -29 34 C-27 36 -27 36 -27 40 C-26.01 40 -25.02 40 -24 40 C-24.33 36.04 -24.66 32.08 -25 28 C-25.66 28 -26.32 28 -27 28 C-27.33 28.66 -27.66 29.32 -28 30 C-30.0625 27.75 -30.0625 27.75 -32 25 C-31.75 22.6875 -31.75 22.6875 -31 21 C-32.65 20.67 -34.3 20.34 -36 20 C-35.67 16.7 -35.34 13.4 -35 10 C-32.4439793 9.1479931 -30.5154763 8.80121465 -27.875 8.5625 C-26.59625 8.376875 -25.3175 8.19125 -24 8 C-23.67 7.34 -23.34 6.68 -23 6 C-21.35 6 -19.7 6 -18 6 C-17.34 7.65 -16.68 9.3 -16 11 C-13.36 11.33 -10.72 11.66 -8 12 C-7.34 15.63 -6.68 19.26 -6 23 C-2.81205144 22.32967574 -2.81205144 22.32967574 -1.796875 19.6015625 C-1.45140625 18.61929688 -1.1059375 17.63703125 -0.75 16.625 C-0.21632813 15.15933594 -0.21632813 15.15933594 0.328125 13.6640625 C1.27369 10.92337026 1.27369 10.92337026 0 8 C-0.12781786 5.32605036 -0.04391871 2.67904143 0 0 Z " fill="#B0C97F" transform="translate(155,54)"/>
<path d="M0 0 C1.47906892 -0.02689216 2.95827483 -0.04634621 4.4375 -0.0625 C5.26121094 -0.07410156 6.08492187 -0.08570313 6.93359375 -0.09765625 C9 0 9 0 10 1 C10.125 4.5 10.125 4.5 10 8 C9 9 9 9 5.9375 9.0625 C4.968125 9.041875 3.99875 9.02125 3 9 C2.896875 9.825 2.79375 10.65 2.6875 11.5 C1.88353944 15.59289012 0.53647842 19.12540225 -1 23 C0.32 23.66 1.64 24.32 3 25 C3.05422947 26.4370809 3.09289723 27.87475462 3.125 29.3125 C3.14820313 30.11300781 3.17140625 30.91351563 3.1953125 31.73828125 C3 34 3 34 1 37 C-1.49609375 37.328125 -1.49609375 37.328125 -4.4375 37.25 C-5.40558594 37.23453125 -6.37367188 37.2190625 -7.37109375 37.203125 C-10 37 -10 37 -13 36 C-16.22897008 36.65363181 -16.22897008 36.65363181 -19 39 C-20.12501452 42.28525367 -20.62511829 45.55496636 -21 49 C-19.515 49.495 -19.515 49.495 -18 50 C-17.95745644 51.99954746 -17.95919217 54.00041636 -18 56 C-19 57 -19 57 -22.0625 57.0625 C-23.031875 57.041875 -24.00125 57.02125 -25 57 C-25.12117187 56.30132812 -25.24234375 55.60265625 -25.3671875 54.8828125 C-25.53476563 53.97273438 -25.70234375 53.06265625 -25.875 52.125 C-26.03742188 51.22007813 -26.19984375 50.31515625 -26.3671875 49.3828125 C-26.83044703 46.83494012 -26.83044703 46.83494012 -29 45 C-31.32548007 44.30643577 -33.65880445 43.63850788 -36 43 C-37 42 -37 42 -37.0625 38.4375 C-37.041875 37.303125 -37.02125 36.16875 -37 35 C-34.23749964 33.61874982 -32.05268901 33.80920694 -29 34 C-27 36 -27 36 -27 40 C-26.01 40 -25.02 40 -24 40 C-24 39.34 -24 38.68 -24 38 C-20.7 36.68 -17.4 35.36 -14 34 C-13.9175 32.741875 -13.835 31.48375 -13.75 30.1875 C-13.38123528 27.3283105 -13.24371146 26.27981687 -11.3125 24.0625 C-8.55279949 22.79452949 -6.00800814 22.34181911 -3 22 C-2.3012307 20.23358317 -1.61633417 18.46167336 -0.9375 16.6875 C-0.36322266 15.20830078 -0.36322266 15.20830078 0.22265625 13.69921875 C1.29389848 10.93766737 1.29389848 10.93766737 0 8 C-0.12781786 5.32605036 -0.04391871 2.67904143 0 0 Z " fill="#B4CE4E" transform="translate(155,54)"/>
<path d="M0 0 C1.43472656 -0.02513672 1.43472656 -0.02513672 2.8984375 -0.05078125 C6.06916798 0.37167997 7.42088652 1.00586961 9.625 3.3125 C10.38816484 6.35954787 10.18639625 9.23315821 9.625 12.3125 C7.8125 14.875 7.8125 14.875 5.625 16.3125 C4.635 16.3125 3.645 16.3125 2.625 16.3125 C2.975625 17.199375 3.32625 18.08625 3.6875 19 C4.64255602 22.37453126 4.59651132 24.00936152 3.625 27.3125 C2.305 27.3125 0.985 27.3125 -0.375 27.3125 C-0.045 23.6825 0.285 20.0525 0.625 16.3125 C-1.355 16.3125 -3.335 16.3125 -5.375 16.3125 C-5.50777344 17.23933594 -5.64054687 18.16617188 -5.77734375 19.12109375 C-5.95394531 20.31863281 -6.13054687 21.51617187 -6.3125 22.75 C-6.57353516 24.54244141 -6.57353516 24.54244141 -6.83984375 26.37109375 C-7.375 29.3125 -7.375 29.3125 -8.375 30.3125 C-10.1875 30.4453125 -10.1875 30.4453125 -12.375 30.4375 C-13.096875 30.44007812 -13.81875 30.44265625 -14.5625 30.4453125 C-16.375 30.3125 -16.375 30.3125 -17.375 29.3125 C-17.51615161 26.64191149 -17.41747107 23.98817762 -17.375 21.3125 C-20.4219629 19.61816082 -23.20321466 18.81782888 -26.625 18.1875 C-27.51703125 18.01992187 -28.4090625 17.85234375 -29.328125 17.6796875 C-30.00359375 17.55851562 -30.6790625 17.43734375 -31.375 17.3125 C-31.705 16.3225 -32.035 15.3325 -32.375 14.3125 C-33.695 14.3125 -35.015 14.3125 -36.375 14.3125 C-36.705 14.9725 -37.035 15.6325 -37.375 16.3125 C-37.045 14.9925 -36.715 13.6725 -36.375 12.3125 C-34.725 12.6425 -33.075 12.9725 -31.375 13.3125 C-31.045 11.9925 -30.715 10.6725 -30.375 9.3125 C-28.04205225 9.27008277 -25.70797433 9.27157063 -23.375 9.3125 C-23.045 9.6425 -22.715 9.9725 -22.375 10.3125 C-21.02752916 10.54325082 -19.67122435 10.72403063 -18.3125 10.875 C-17.013125 11.019375 -15.71375 11.16375 -14.375 11.3125 C-17.02238916 12.7731285 -18.26948334 13.3125 -21.375 13.3125 C-20.25645414 17.03864153 -20.25645414 17.03864153 -17.375 19.3125 C-15.46096924 19.50918734 -15.46096924 19.50918734 -13.375 19.5 C-12.323125 19.52126953 -12.323125 19.52126953 -11.25 19.54296875 C-9.12975062 19.47762323 -9.12975062 19.47762323 -7.375 17.3125 C-7.28202428 14.77891154 -7.28054266 12.33923388 -7.375 9.8125 C-7.46945734 7.28576612 -7.46797572 4.84608846 -7.375 2.3125 C-4.78299871 -0.27950129 -3.59977771 0.01447632 0 0 Z " fill="#7ABF96" transform="translate(110.375,60.6875)"/>
<path d="M0 0 C0.90105469 0.02707031 1.80210938 0.05414063 2.73046875 0.08203125 C3.76107422 0.13423828 3.76107422 0.13423828 4.8125 0.1875 C4.8125 0.8475 4.8125 1.5075 4.8125 2.1875 C5.8025 2.5175 6.7925 2.8475 7.8125 3.1875 C7.8992982 6.97902334 7.95282207 10.77029296 8 14.5625 C8.02513672 15.64273438 8.05027344 16.72296875 8.07617188 17.8359375 C8.08583984 18.8671875 8.09550781 19.8984375 8.10546875 20.9609375 C8.1211792 21.91403809 8.13688965 22.86713867 8.15307617 23.84912109 C8.04068604 24.62078613 7.9282959 25.39245117 7.8125 26.1875 C4.44898987 28.42984009 3.18939944 28.45848215 -0.75 28.4375 C-1.72066406 28.44265625 -2.69132812 28.4478125 -3.69140625 28.453125 C-6.1875 28.1875 -6.1875 28.1875 -8.1875 26.1875 C-8.64232767 22.39403509 -8.5115335 18.56758871 -8.5 14.75 C-8.51611328 13.68716797 -8.53222656 12.62433594 -8.54882812 11.52929688 C-8.54947266 10.51029297 -8.55011719 9.49128906 -8.55078125 8.44140625 C-8.55525269 7.03870483 -8.55525269 7.03870483 -8.55981445 5.60766602 C-8.1875 3.1875 -8.1875 3.1875 -6.81982422 1.37744141 C-4.50822464 -0.30768219 -2.82206271 -0.1099505 0 0 Z " fill="#6F8B9E" transform="translate(53.1875,141.8125)"/>
<path d="M0 0 C2.12472576 -0.05386629 4.24983652 -0.09273071 6.375 -0.125 C7.55835937 -0.14820312 8.74171875 -0.17140625 9.9609375 -0.1953125 C13 0 13 0 15 2 C15.23046875 3.98828125 15.23046875 3.98828125 15.1875 6.3125 C15.16623047 7.51712891 15.16623047 7.51712891 15.14453125 8.74609375 C15 11 15 11 14.375 13.875 C13.69607614 16.29254346 13.69607614 16.29254346 16 19 C15.01 21.31 14.02 23.62 13 26 C6.73 25.67 0.46 25.34 -6 25 C-6.33 24.01 -6.66 23.02 -7 22 C-6.34 21.34 -5.68 20.68 -5 20 C-4.31246699 18.34183216 -3.64438717 16.67540664 -3 15 C-2.67 14.67 -2.34 14.34 -2 14 C-1.7905639 12.02490127 -1.63196178 10.04428318 -1.5 8.0625 C-1.11004127 2.22008253 -1.11004127 2.22008253 0 0 Z " fill="#F9F7F8" transform="translate(77,22)"/>
<path d="M0 0 C3.94140436 -0.30912975 6.36169288 -0.34690605 9.875 1.5625 C12.5771041 4.66197236 12.76683515 6.95847594 13 11 C14.45823212 11.0270043 15.91660675 11.04639787 17.375 11.0625 C18.59316406 11.07990234 18.59316406 11.07990234 19.8359375 11.09765625 C22.04937142 11.14466334 22.04937142 11.14466334 24 10 C26.78515625 10.63671875 26.78515625 10.63671875 30.0625 11.6875 C31.14660156 12.02136719 32.23070312 12.35523437 33.34765625 12.69921875 C36 14 36 14 36.87109375 16.14453125 C36.91363281 16.75683594 36.95617187 17.36914062 37 18 C32.07117148 19.97153141 28.2279653 20.26582874 23 20 C22.67 19.67 22.34 19.34 22 19 C19.66702567 18.95907063 17.33294775 18.95758277 15 19 C14.67 19.99 14.34 20.98 14 22 C12.35 22 10.7 22 9 22 C8.67 22.99 8.34 23.98 8 25 C6.35 25 4.7 25 3 25 C2.34 22.36 1.68 19.72 1 17 C-0.98 17 -2.96 17 -5 17 C-5 16.67 -5 16.34 -5 16 C-3.02 15.67 -1.04 15.34 1 15 C1 12.69 1 10.38 1 8 C0.34 8 -0.32 8 -1 8 C-0.67 5.36 -0.34 2.72 0 0 Z " fill="#EDEDEB" transform="translate(65,52)"/>
<path d="M0 0 C1.19109375 0.00773437 1.19109375 0.00773437 2.40625 0.015625 C3.2003125 0.01046875 3.994375 0.0053125 4.8125 0 C6.90625 0.265625 6.90625 0.265625 8.90625 2.265625 C9.03125 5.390625 9.03125 5.390625 8.90625 8.265625 C9.69 8.36875 10.47375 8.471875 11.28125 8.578125 C15.9386476 9.46142454 20.38817149 10.84591258 24.90625 12.265625 C25.23625 11.935625 25.56625 11.605625 25.90625 11.265625 C27.73740883 11.16711329 29.57244933 11.13589871 31.40625 11.140625 C32.4065625 11.13804688 33.406875 11.13546875 34.4375 11.1328125 C36.90625 11.265625 36.90625 11.265625 37.90625 12.265625 C38.0041557 13.76300624 38.03599864 15.26505392 38.03125 16.765625 C38.03511719 17.98765625 38.03511719 17.98765625 38.0390625 19.234375 C37.90625 21.265625 37.90625 21.265625 36.90625 22.265625 C35.13771708 22.36501363 33.36506725 22.39531723 31.59375 22.390625 C30.62824219 22.39320312 29.66273438 22.39578125 28.66796875 22.3984375 C26.24481295 22.28190667 24.21980031 21.95804148 21.90625 21.265625 C21.90625 23.245625 21.90625 25.225625 21.90625 27.265625 C21.57625 27.265625 21.24625 27.265625 20.90625 27.265625 C20.83277344 26.30849609 20.83277344 26.30849609 20.7578125 25.33203125 C20.68304688 24.50574219 20.60828125 23.67945312 20.53125 22.828125 C20.46164063 22.00441406 20.39203125 21.18070313 20.3203125 20.33203125 C20.18367188 19.65011719 20.04703125 18.96820313 19.90625 18.265625 C17.03724945 16.83112473 14.17152087 16.88651417 11 16.64453125 C8.90625 16.265625 8.90625 16.265625 6.90625 14.265625 C6.90625 13.275625 6.90625 12.285625 6.90625 11.265625 C6.19597656 11.27722656 5.48570313 11.28882813 4.75390625 11.30078125 C3.83480469 11.30980469 2.91570312 11.31882812 1.96875 11.328125 C1.05222656 11.33972656 0.13570313 11.35132813 -0.80859375 11.36328125 C-3.09375 11.265625 -3.09375 11.265625 -4.09375 10.265625 C-4.36689815 4.52951389 -4.36689815 4.52951389 -4.09375 2.265625 C-2.09375 0.265625 -2.09375 0.265625 0 0 Z " fill="#E4E9EC" transform="translate(113.09375,17.734375)"/>
<path d="M0 0 C2.625 -0.625 2.625 -0.625 6 0 C9.84804386 4.76160823 12.27963715 10.55927431 15 16 C15 11.05 15 6.1 15 1 C17.31 1 19.62 1 22 1 C21.76228882 1.82226074 21.76228882 1.82226074 21.51977539 2.66113281 C20.9372438 5.28238816 20.78793845 7.73872553 20.68359375 10.421875 C20.64169922 11.44667969 20.59980469 12.47148437 20.55664062 13.52734375 C20.51732422 14.59082031 20.47800781 15.65429688 20.4375 16.75 C20.39431641 17.82894531 20.35113281 18.90789062 20.30664062 20.01953125 C20.20071011 22.67956428 20.09863579 25.33968812 20 28 C17.62402344 27.6953125 17.62402344 27.6953125 15 27 C13.49610004 24.6316536 12.3642057 22.53819056 11.25 20 C9.54878135 15.70604428 9.54878135 15.70604428 7 12 C6.67 16.29 6.34 20.58 6 25 C6.99 25 7.98 25 9 25 C9 26.32 9 27.64 9 29 C6.03 29 3.06 29 0 29 C0 27.35 0 25.7 0 24 C0.66 24 1.32 24 2 24 C2 17.73 2 11.46 2 5 C1.34 5 0.68 5 0 5 C0 3.35 0 1.7 0 0 Z " fill="#436A84" transform="translate(84,142)"/>
<path d="M0 0 C0.69351563 0.00064453 1.38703125 0.00128906 2.1015625 0.00195312 C7.23456743 0.04706743 7.23456743 0.04706743 8.375 1.1875 C8.44771741 3.54063555 8.45870868 5.89583668 8.4375 8.25 C8.42847656 9.54035156 8.41945313 10.83070312 8.41015625 12.16015625 C8.39855469 13.15917969 8.38695313 14.15820312 8.375 15.1875 C7.385 15.6825 7.385 15.6825 6.375 16.1875 C5.24149466 18.20419827 5.24149466 18.20419827 4.375 20.1875 C4.045 19.1975 3.715 18.2075 3.375 17.1875 C2.23611328 17.23970703 2.23611328 17.23970703 1.07421875 17.29296875 C0.08035156 17.32003906 -0.91351563 17.34710938 -1.9375 17.375 C-2.92363281 17.40980469 -3.90976563 17.44460937 -4.92578125 17.48046875 C-7.625 17.1875 -7.625 17.1875 -9.45703125 16.0546875 C-11.1331908 13.37507458 -11.02286481 11.26129022 -11 8.125 C-11.00773437 7.06152344 -11.01546875 5.99804688 -11.0234375 4.90234375 C-10.89195313 4.00644531 -10.76046875 3.11054687 -10.625 2.1875 C-6.96606495 -0.25179003 -4.22221667 -0.07539673 0 0 Z " fill="#5EBB4E" transform="translate(101.625,40.8125)"/>
<path d="M0 0 C1.2065625 0.0309375 1.2065625 0.0309375 2.4375 0.0625 C3.08399305 2.95818747 3.72971732 5.85404279 4.375 8.75 C4.55740234 9.56662109 4.73980469 10.38324219 4.92773438 11.22460938 C5.80477628 15.16332483 6.67090455 19.10041195 7.4375 23.0625 C8.0975 23.0625 8.7575 23.0625 9.4375 23.0625 C9.4375 24.7125 9.4375 26.3625 9.4375 28.0625 C6.7975 28.0625 4.1575 28.0625 1.4375 28.0625 C1.35523332 25.01863276 1.46141783 22.99074652 2.4375 20.0625 C0.4575 20.0625 -1.5225 20.0625 -3.5625 20.0625 C-3.5625 21.0525 -3.5625 22.0425 -3.5625 23.0625 C-2.9025 23.0625 -2.2425 23.0625 -1.5625 23.0625 C-1.5625 24.7125 -1.5625 26.3625 -1.5625 28.0625 C-4.5325 28.0625 -7.5025 28.0625 -10.5625 28.0625 C-10.5625 26.4125 -10.5625 24.7625 -10.5625 23.0625 C-9.5725 23.0625 -8.5825 23.0625 -7.5625 23.0625 C-7.459375 21.845625 -7.35625 20.62875 -7.25 19.375 C-5.13159665 0.12516089 -5.13159665 0.12516089 0 0 Z " fill="#486E87" transform="translate(113.5625,177.9375)"/>
<path d="M0 0 C5.94 0 11.88 0 18 0 C18 1.98 18 3.96 18 6 C16.35 6 14.7 6 13 6 C13 5.34 13 4.68 13 4 C10.69 4 8.38 4 6 4 C6 6.31 6 8.62 6 11 C9.465 10.505 9.465 10.505 13 10 C13 12.31 13 14.62 13 17 C11.68 17 10.36 17 9 17 C9 16.34 9 15.68 9 15 C8.01 15.33 7.02 15.66 6 16 C5.67 18.64 5.34 21.28 5 24 C7.64 24 10.28 24 13 24 C13 23.01 13 22.02 13 21 C14.32 21 15.64 21 17 21 C17 22.98 17 24.96 17 27 C11.39 27 5.78 27 0 27 C0 18.09 0 9.18 0 0 Z " fill="#36637F" transform="translate(182,143)"/>
<path d="M0 0 C0.86625 -0.01933594 1.7325 -0.03867188 2.625 -0.05859375 C5 0.4375 5 0.4375 6.80078125 2.29296875 C8.23497194 4.85769413 8.24119949 6.54310615 8 9.4375 C6.35 9.4375 4.7 9.4375 3 9.4375 C3 8.1175 3 6.7975 3 5.4375 C0.69 5.4375 -1.62 5.4375 -4 5.4375 C-4 11.7075 -4 17.9775 -4 24.4375 C-1.69 24.4375 0.62 24.4375 3 24.4375 C3 22.1275 3 19.8175 3 17.4375 C1.68 17.4375 0.36 17.4375 -1 17.4375 C-1 16.1175 -1 14.7975 -1 13.4375 C1.64 13.4375 4.28 13.4375 7 13.4375 C7.05386629 15.56222576 7.09273071 17.68733652 7.125 19.8125 C7.14820312 20.99585938 7.17140625 22.17921875 7.1953125 23.3984375 C7 26.4375 7 26.4375 5 28.4375 C2.46875 28.703125 2.46875 28.703125 -0.5 28.6875 C-1.4796875 28.69265625 -2.459375 28.6978125 -3.46875 28.703125 C-6 28.4375 -6 28.4375 -8 26.4375 C-8.45482767 22.64403509 -8.3240335 18.81758871 -8.3125 15 C-8.32861328 13.93716797 -8.34472656 12.87433594 -8.36132812 11.77929688 C-8.36197266 10.76029297 -8.36261719 9.74128906 -8.36328125 8.69140625 C-8.36775269 7.28870483 -8.36775269 7.28870483 -8.37231445 5.85766602 C-7.60160991 0.84783382 -4.66171599 0.00693708 0 0 Z " fill="#0F4769" transform="translate(73,141.5625)"/>
<path d="M0 0 C4.9122807 -0.96491228 4.9122807 -0.96491228 8 0 C16 8.22972973 16 8.22972973 16 13 C17.98 13 19.96 13 22 13 C22 13.33 22 13.66 22 14 C19.36 14 16.72 14 14 14 C14.144375 15.258125 14.28875 16.51625 14.4375 17.8125 C14.55931641 18.87404297 14.55931641 18.87404297 14.68359375 19.95703125 C14.97170735 22.19396393 14.97170735 22.19396393 16 25 C15.00390625 27.91796875 15.00390625 27.91796875 13.5625 31.1875 C13.08941406 32.27417969 12.61632812 33.36085937 12.12890625 34.48046875 C11.75636719 35.31191406 11.38382813 36.14335938 11 37 C10.01 37 9.02 37 8 37 C6.57741188 33.17679443 5.75957724 30.08718695 6 26 C6.99 26 7.98 26 9 26 C9 22.04 9 18.08 9 14 C7.02 14 5.04 14 3 14 C3 9.71 3 5.42 3 1 C2.01 0.67 1.02 0.34 0 0 Z " fill="#E5E1E6" transform="translate(141,40)"/>
<path d="M0 0 C0.54269531 0.31839844 1.08539063 0.63679688 1.64453125 0.96484375 C4.40893694 2.17971524 6.68111294 2.37384821 9.6875 2.5625 C14.90084986 2.90084986 14.90084986 2.90084986 16 4 C16.04063832 5.66617115 16.042721 7.33388095 16 9 C17.74816858 9.50636607 19.49862263 10.00484619 21.25 10.5 C22.22453125 10.7784375 23.1990625 11.056875 24.203125 11.34375 C27.17023413 12.15228866 27.17023413 12.15228866 31 12 C31.24875561 14.26877104 31.47339246 16.54019735 31.6875 18.8125 C31.81511719 20.07707031 31.94273438 21.34164062 32.07421875 22.64453125 C32 26 32 26 30.765625 27.92578125 C27.7161685 29.78109217 24.41283333 29.50814822 21 29 C18.5 27.75 18.5 27.75 17 26 C17 24.68 17 23.36 17 22 C20.465 21.505 20.465 21.505 24 21 C24 20.34 24 19.68 24 19 C25.98 18.67 27.96 18.34 30 18 C29.67 17.01 29.34 16.02 29 15 C25.98359945 13.74359742 25.98359945 13.74359742 22.4375 12.8125 C21.23996094 12.46832031 20.04242188 12.12414062 18.80859375 11.76953125 C17.41833984 11.38861328 17.41833984 11.38861328 16 11 C15.67 11.33 15.34 11.66 15 12 C13.50261876 12.0979057 12.00057108 12.12974864 10.5 12.125 C9.6853125 12.12757812 8.870625 12.13015625 8.03125 12.1328125 C6 12 6 12 5 11 C4.95907063 8.66702567 4.95758277 6.33294775 5 4 C4.360625 3.71125 3.72125 3.4225 3.0625 3.125 C1 2 1 2 0 0 Z " fill="#B4CA69" transform="translate(72,52)"/>
<path d="M0 0 C1.45599609 0.00773438 1.45599609 0.00773438 2.94140625 0.015625 C3.90949219 0.01046875 4.87757813 0.0053125 5.875 0 C8.50390625 0.265625 8.50390625 0.265625 11.50390625 2.265625 C11.50390625 3.585625 11.50390625 4.905625 11.50390625 6.265625 C10.18390625 6.265625 8.86390625 6.265625 7.50390625 6.265625 C7.50390625 5.605625 7.50390625 4.945625 7.50390625 4.265625 C4.86390625 4.265625 2.22390625 4.265625 -0.49609375 4.265625 C-0.49609375 6.575625 -0.49609375 8.885625 -0.49609375 11.265625 C0.11878906 11.23082031 0.73367187 11.19601563 1.3671875 11.16015625 C2.57955078 11.11955078 2.57955078 11.11955078 3.81640625 11.078125 C5.01716797 11.02591797 5.01716797 11.02591797 6.2421875 10.97265625 C8.50390625 11.265625 8.50390625 11.265625 10.27734375 12.4296875 C11.9724986 14.96702119 11.86881235 16.80066487 11.81640625 19.828125 C11.81253906 20.79878906 11.80867188 21.76945312 11.8046875 22.76953125 C11.50390625 25.265625 11.50390625 25.265625 9.50390625 27.265625 C6.75390625 27.53125 6.75390625 27.53125 3.50390625 27.515625 C1.89515625 27.52335937 1.89515625 27.52335937 0.25390625 27.53125 C-2.49609375 27.265625 -2.49609375 27.265625 -4.49609375 25.265625 C-4.49609375 24.275625 -4.49609375 23.285625 -4.49609375 22.265625 C-0.53609375 22.595625 3.42390625 22.925625 7.50390625 23.265625 C7.50390625 20.955625 7.50390625 18.645625 7.50390625 16.265625 C6.58158203 16.31783203 6.58158203 16.31783203 5.640625 16.37109375 C4.83238281 16.39816406 4.02414063 16.42523438 3.19140625 16.453125 C1.99064453 16.50533203 1.99064453 16.50533203 0.765625 16.55859375 C-1.49609375 16.265625 -1.49609375 16.265625 -3.26953125 15.1015625 C-4.9646861 12.56422881 -4.86099985 10.73058513 -4.80859375 7.703125 C-4.80472656 6.73246094 -4.80085938 5.76179687 -4.796875 4.76171875 C-4.37820959 1.2873396 -3.48548771 0.37091262 0 0 Z " fill="#275977" transform="translate(131.49609375,177.734375)"/>
<path d="M0 0 C2.97 0 5.94 0 9 0 C9 1.65 9 3.3 9 5 C8.01 5 7.02 5 6 5 C5.97421875 5.57105469 5.9484375 6.14210937 5.921875 6.73046875 C5.39903296 14.20473338 3.38525846 20.92188421 1 28 C-0.65 27.67 -2.3 27.34 -4 27 C-6.5628356 19.43109219 -7.94587139 11.91216535 -9 4 C-9.66 4 -10.32 4 -11 4 C-11 3.01 -11 2.02 -11 1 C-8.69 1 -6.38 1 -4 1 C-3.92652344 1.85271484 -3.92652344 1.85271484 -3.8515625 2.72265625 C-3.36856919 7.71081129 -2.52361837 12.22599578 -1 17 C-0.01 13.04 0.98 9.08 2 5 C1.34 5 0.68 5 0 5 C0 3.35 0 1.7 0 0 Z " fill="#1B4F6F" transform="translate(169,142)"/>
<path d="M0 0 C0.95648438 -0.01675781 1.91296875 -0.03351562 2.8984375 -0.05078125 C6.06953371 0.3717287 7.42762223 0.99703885 9.625 3.3125 C10.0859375 5.46875 10.0859375 5.46875 10 7.8125 C9.98066406 8.97265625 9.98066406 8.97265625 9.9609375 10.15625 C9.625 12.3125 9.625 12.3125 7.625 15.3125 C4.65625 15.67578125 4.65625 15.67578125 1.125 15.625 C-0.62296875 15.61919922 -0.62296875 15.61919922 -2.40625 15.61328125 C-5.375 15.3125 -5.375 15.3125 -7.375 13.3125 C-7.640625 10.78125 -7.640625 10.78125 -7.625 7.8125 C-7.63015625 6.8328125 -7.6353125 5.853125 -7.640625 4.84375 C-7.11876024 -0.12931419 -4.32336076 0.01738617 0 0 Z " fill="#F16A3B" transform="translate(110.375,60.6875)"/>
<path d="M0 0 C1.45599609 0.00773438 1.45599609 0.00773438 2.94140625 0.015625 C3.90949219 0.01046875 4.87757813 0.0053125 5.875 0 C8.50390625 0.265625 8.50390625 0.265625 11.50390625 2.265625 C11.50390625 3.585625 11.50390625 4.905625 11.50390625 6.265625 C9.85390625 6.265625 8.20390625 6.265625 6.50390625 6.265625 C6.50390625 5.605625 6.50390625 4.945625 6.50390625 4.265625 C4.19390625 4.265625 1.88390625 4.265625 -0.49609375 4.265625 C-0.49609375 6.905625 -0.49609375 9.545625 -0.49609375 12.265625 C0.21417969 12.25402344 0.92445313 12.24242187 1.65625 12.23046875 C2.57535156 12.22144531 3.49445313 12.21242187 4.44140625 12.203125 C5.35792969 12.19152344 6.27445313 12.17992187 7.21875 12.16796875 C9.50390625 12.265625 9.50390625 12.265625 10.50390625 13.265625 C10.62905553 15.24181947 10.67963385 17.22300673 10.69140625 19.203125 C10.70558594 20.28464844 10.71976563 21.36617187 10.734375 22.48046875 C10.50390625 25.265625 10.50390625 25.265625 8.50390625 27.265625 C5.97265625 27.53125 5.97265625 27.53125 3.00390625 27.515625 C2.02421875 27.52078125 1.04453125 27.5259375 0.03515625 27.53125 C-2.49609375 27.265625 -2.49609375 27.265625 -4.49609375 25.265625 C-4.49609375 24.275625 -4.49609375 23.285625 -4.49609375 22.265625 C-0.86609375 22.595625 2.76390625 22.925625 6.50390625 23.265625 C6.50390625 20.955625 6.50390625 18.645625 6.50390625 16.265625 C5.24578125 16.3275 3.98765625 16.389375 2.69140625 16.453125 C0.12507952 16.57933779 -1.08381769 16.54109197 -3.23828125 15.1015625 C-4.97514737 12.56638525 -4.86134577 10.75056849 -4.80859375 7.703125 C-4.80472656 6.73246094 -4.80085937 5.76179687 -4.796875 4.76171875 C-4.37820959 1.2873396 -3.48548771 0.37091262 0 0 Z " fill="#2B5A77" transform="translate(151.49609375,177.734375)"/>
<path d="M0 0 C1.45599609 0.00773438 1.45599609 0.00773438 2.94140625 0.015625 C3.90949219 0.01046875 4.87757812 0.0053125 5.875 0 C8.50390625 0.265625 8.50390625 0.265625 11.50390625 2.265625 C11.69140625 5.390625 11.69140625 5.390625 11.50390625 8.265625 C9.85390625 8.265625 8.20390625 8.265625 6.50390625 8.265625 C6.50390625 6.945625 6.50390625 5.625625 6.50390625 4.265625 C4.19390625 4.265625 1.88390625 4.265625 -0.49609375 4.265625 C-0.49609375 10.535625 -0.49609375 16.805625 -0.49609375 23.265625 C1.81390625 23.265625 4.12390625 23.265625 6.50390625 23.265625 C6.50390625 21.945625 6.50390625 20.625625 6.50390625 19.265625 C8.15390625 19.265625 9.80390625 19.265625 11.50390625 19.265625 C11.69140625 22.140625 11.69140625 22.140625 11.50390625 25.265625 C8.14039612 27.50796509 6.88080569 27.53660715 2.94140625 27.515625 C1.97074219 27.52078125 1.00007813 27.5259375 0 27.53125 C-2.49609375 27.265625 -2.49609375 27.265625 -4.49609375 25.265625 C-4.75488281 22.95898438 -4.75488281 22.95898438 -4.76171875 20.109375 C-4.76429687 19.08714844 -4.766875 18.06492188 -4.76953125 17.01171875 C-4.75792969 15.40490234 -4.75792969 15.40490234 -4.74609375 13.765625 C-4.75382812 12.69441406 -4.7615625 11.62320313 -4.76953125 10.51953125 C-4.76695313 9.49730469 -4.764375 8.47507813 -4.76171875 7.421875 C-4.75946289 6.48150391 -4.75720703 5.54113281 -4.75488281 4.57226562 C-4.37540569 1.18990729 -3.34871002 0.35635725 0 0 Z " fill="#3C6882" transform="translate(66.49609375,177.734375)"/>
<path d="M0 0 C2.31 0 4.62 0 7 0 C6.67 7.59 6.34 15.18 6 23 C8.31 23 10.62 23 13 23 C13 22.34 13 21.68 13 21 C14.65 21 16.3 21 18 21 C18 23.31 18 25.62 18 28 C11.73 28 5.46 28 -1 28 C-1 26.35 -1 24.7 -1 23 C-0.34 23 0.32 23 1 23 C0.67 15.41 0.34 7.82 0 0 Z " fill="#074466" transform="translate(82,178)"/>
<path d="M0 0 C6.6 0 13.2 0 20 0 C20 2.31 20 4.62 20 7 C18.68 7 17.36 7 16 7 C16 6.01 16 5.02 16 4 C14.68 4 13.36 4 12 4 C12 10.93 12 17.86 12 25 C12.66 25 13.32 25 14 25 C14 25.99 14 26.98 14 28 C11.36 28 8.72 28 6 28 C6 27.01 6 26.02 6 25 C6.66 25 7.32 25 8 25 C8 18.07 8 11.14 8 4 C6.68 4 5.36 4 4 4 C4 4.99 4 5.98 4 7 C2.68 7 1.36 7 0 7 C0 4.69 0 2.38 0 0 Z " fill="#305E7A" transform="translate(122,142)"/>
<path d="M0 0 C2.12472576 -0.05386629 4.24983652 -0.09273071 6.375 -0.125 C7.55835937 -0.14820312 8.74171875 -0.17140625 9.9609375 -0.1953125 C13 0 13 0 15 2 C15.265625 4.05859375 15.265625 4.05859375 15.25 6.4375 C15.25515625 7.21996094 15.2603125 8.00242187 15.265625 8.80859375 C15 11 15 11 13 14 C10.25 14.36328125 10.25 14.36328125 7 14.3125 C5.39125 14.30669922 5.39125 14.30669922 3.75 14.30078125 C1 14 1 14 -1 12 C-1.23046875 9.6875 -1.23046875 9.6875 -1.1875 7 C-1.18105469 6.113125 -1.17460938 5.22625 -1.16796875 4.3125 C-1 2 -1 2 0 0 Z " fill="#ED3A37" transform="translate(77,22)"/>
<path d="M0 0 C0.97066406 -0.00515625 1.94132812 -0.0103125 2.94140625 -0.015625 C5.4375 0.25 5.4375 0.25 7.4375 2.25 C7.5625 5.375 7.5625 5.375 7.4375 8.25 C6.1175 8.25 4.7975 8.25 3.4375 8.25 C3.4375 6.6 3.4375 4.95 3.4375 3.25 C0.7975 3.25 -1.8425 3.25 -4.5625 3.25 C-4.5625 10.18 -4.5625 17.11 -4.5625 24.25 C-1.9225 24.25 0.7175 24.25 3.4375 24.25 C3.4375 22.6 3.4375 20.95 3.4375 19.25 C4.7575 19.25 6.0775 19.25 7.4375 19.25 C7.5625 22.125 7.5625 22.125 7.4375 25.25 C5.4375 27.25 5.4375 27.25 2.94140625 27.515625 C1.48541016 27.50789063 1.48541016 27.50789063 0 27.5 C-1.45212891 27.50773437 -1.45212891 27.50773437 -2.93359375 27.515625 C-5.5625 27.25 -5.5625 27.25 -8.5625 25.25 C-8.95068359 22.94335938 -8.95068359 22.94335938 -8.9609375 20.09375 C-8.96480469 19.07152344 -8.96867187 18.04929688 -8.97265625 16.99609375 C-8.96105469 15.92488281 -8.94945313 14.85367188 -8.9375 13.75 C-8.94910156 12.67878906 -8.96070312 11.60757813 -8.97265625 10.50390625 C-8.96878906 9.48167969 -8.96492188 8.45945313 -8.9609375 7.40625 C-8.95755371 6.46587891 -8.95416992 5.52550781 -8.95068359 4.55664062 C-8.82258301 3.79544922 -8.69448242 3.03425781 -8.5625 2.25 C-5.19898987 0.00765991 -3.93939944 -0.02098215 0 0 Z " fill="#184D6D" transform="translate(33.5625,142.75)"/>
<path d="M0 0 C0.103125 0.78375 0.20625 1.5675 0.3125 2.375 C0.77595022 5.33045181 0.77595022 5.33045181 4 7 C4.66 7 5.32 7 6 7 C6.36237263 8.62318979 6.71465157 10.2486358 7.0625 11.875 C7.35833984 13.23238281 7.35833984 13.23238281 7.66015625 14.6171875 C8 17 8 17 7 19 C6.01 19 5.02 19 4 19 C3.34 17.35 2.68 15.7 2 14 C-0.64 14 -3.28 14 -6 14 C-6 16.31 -6 18.62 -6 21 C-6.33 21 -6.66 21 -7 21 C-7.12375 19.88625 -7.2475 18.7725 -7.375 17.625 C-7.6465813 13.96896323 -7.6465813 13.96896323 -10 12 C-10.4140625 9.6171875 -10.4140625 9.6171875 -10.625 6.875 C-10.69976562 5.96492188 -10.77453125 5.05484375 -10.8515625 4.1171875 C-10.92503906 3.06917969 -10.92503906 3.06917969 -11 2 C-6.89657963 -0.38570952 -4.61380251 -1.49270081 0 0 Z " fill="#E6EAE7" transform="translate(124,75)"/>
<path d="M0 0 C2 2 2 2 2 6 C2.928125 6.2165625 2.928125 6.2165625 3.875 6.4375 C6 7 6 7 8 8 C8 10.31 8 12.62 8 15 C8.99 15.33 9.98 15.66 11 16 C11.04254356 17.99954746 11.04080783 20.00041636 11 22 C10 23 10 23 6.9375 23.0625 C5.968125 23.041875 4.99875 23.02125 4 23 C3.87882813 22.30132812 3.75765625 21.60265625 3.6328125 20.8828125 C3.46523437 19.97273438 3.29765625 19.06265625 3.125 18.125 C2.96257812 17.22007813 2.80015625 16.31515625 2.6328125 15.3828125 C2.16955297 12.83494012 2.16955297 12.83494012 0 11 C-2.32548007 10.30643577 -4.65880445 9.63850788 -7 9 C-8 8 -8 8 -8.0625 4.4375 C-8.041875 3.303125 -8.02125 2.16875 -8 1 C-5.23749964 -0.38125018 -3.05268901 -0.19079306 0 0 Z " fill="#DCE0DC" transform="translate(126,88)"/>
<path d="M0 0 C0.90105469 0.01804688 1.80210937 0.03609375 2.73046875 0.0546875 C3.41753906 0.07789063 4.10460937 0.10109375 4.8125 0.125 C5.93506131 2.37012262 5.94663762 3.63956649 5.9375 6.125 C5.94007813 6.82625 5.94265625 7.5275 5.9453125 8.25 C5.8125 10.125 5.8125 10.125 4.8125 12.125 C3.02116022 12.17891993 1.22936101 12.21775571 -0.5625 12.25 C-1.56023437 12.27320312 -2.55796875 12.29640625 -3.5859375 12.3203125 C-6.1875 12.125 -6.1875 12.125 -8.1875 10.125 C-8.48828125 8.25 -8.48828125 8.25 -8.5 6.125 C-8.51675781 5.42375 -8.53351563 4.7225 -8.55078125 4 C-8.43089844 3.38125 -8.31101563 2.7625 -8.1875 2.125 C-4.87379 -0.08414 -3.8428979 -0.09981553 0 0 Z " fill="#47A34A" transform="translate(145.1875,53.875)"/>
<path d="M0 0 C1.258125 -0.04125 2.51625 -0.0825 3.8125 -0.125 C4.52019531 -0.14820313 5.22789063 -0.17140625 5.95703125 -0.1953125 C8 0 8 0 11 2 C11.38818359 4.30664062 11.38818359 4.30664062 11.3984375 7.15625 C11.40230469 8.17847656 11.40617187 9.20070312 11.41015625 10.25390625 C11.39855469 11.32511719 11.38695312 12.39632812 11.375 13.5 C11.38660156 14.57121094 11.39820313 15.64242187 11.41015625 16.74609375 C11.40628906 17.76832031 11.40242188 18.79054687 11.3984375 19.84375 C11.39505371 20.78412109 11.39166992 21.72449219 11.38818359 22.69335938 C11.26008301 23.45455078 11.13198242 24.21574219 11 25 C7.68629 27.20914 6.6553979 27.22481553 2.8125 27.125 C1.91144531 27.10695312 1.01039062 27.08890625 0.08203125 27.0703125 C-0.60503906 27.04710937 -1.29210938 27.02390625 -2 27 C-1.505 25.515 -1.505 25.515 -1 24 C1.64 24 4.28 24 7 24 C7 17.07 7 10.14 7 3 C4.36 3 1.72 3 -1 3 C-0.67 2.01 -0.34 1.02 0 0 Z " fill="#1C5070" transform="translate(50,143)"/>
<path d="M0 0 C2.31 0 4.62 0 7 0 C6.76228882 0.82226074 6.76228882 0.82226074 6.51977539 1.66113281 C5.9372438 4.28238816 5.78793845 6.73872553 5.68359375 9.421875 C5.64169922 10.44667969 5.59980469 11.47148437 5.55664062 12.52734375 C5.51732422 13.59082031 5.47800781 14.65429688 5.4375 15.75 C5.39431641 16.82894531 5.35113281 17.90789062 5.30664062 19.01953125 C5.20071011 21.67956428 5.09863579 24.33968812 5 27 C2.6171875 26.6796875 2.6171875 26.6796875 0 26 C-1.875 23.125 -1.875 23.125 -3 20 C-2.505 18.515 -2.505 18.515 -2 17 C-1.34 16.67 -0.68 16.34 0 16 C0 10.72 0 5.44 0 0 Z " fill="#1E5170" transform="translate(99,143)"/>
<path d="M0 0 C1.81242052 -0.02687279 3.62495233 -0.04633715 5.4375 -0.0625 C6.44683594 -0.07410156 7.45617187 -0.08570312 8.49609375 -0.09765625 C11 0 11 0 12 1 C12.0979057 2.49738124 12.12974864 3.99942892 12.125 5.5 C12.12757813 6.3146875 12.13015625 7.129375 12.1328125 7.96875 C12 10 12 10 11 11 C9.16884117 11.09851171 7.33380067 11.12972629 5.5 11.125 C4.4996875 11.12757812 3.499375 11.13015625 2.46875 11.1328125 C0 11 0 11 -1 10 C-1.13568319 6.33655389 -1.16461426 3.49384279 0 0 Z " fill="#A31D48" transform="translate(139,29)"/>
<path d="M0 0 C2.31 0 4.62 0 7 0 C7 6.27 7 12.54 7 19 C4.69 19 2.38 19 0 19 C0 12.73 0 6.46 0 0 Z " fill="#F9FAFB" transform="translate(49,147)"/>
<path d="M0 0 C1.19109375 0.00773437 1.19109375 0.00773437 2.40625 0.015625 C3.2003125 0.01046875 3.994375 0.0053125 4.8125 0 C6.90625 0.265625 6.90625 0.265625 8.90625 2.265625 C9.15625 5.765625 9.15625 5.765625 8.90625 9.265625 C6.90625 11.265625 6.90625 11.265625 4.55859375 11.49609375 C3.66269531 11.48191406 2.76679687 11.46773437 1.84375 11.453125 C0.94527344 11.44667969 0.04679687 11.44023437 -0.87890625 11.43359375 C-3.09375 11.265625 -3.09375 11.265625 -4.09375 10.265625 C-4.36689815 4.52951389 -4.36689815 4.52951389 -4.09375 2.265625 C-2.09375 0.265625 -2.09375 0.265625 0 0 Z " fill="#DEAC50" transform="translate(113.09375,17.734375)"/>
<path d="M0 0 C2.31 0 4.62 0 7 0 C7 0.99 7 1.98 7 3 C6.34 3 5.68 3 5 3 C5 9.93 5 16.86 5 24 C5.66 24 6.32 24 7 24 C7 24.99 7 25.98 7 27 C4.69 27 2.38 27 0 27 C0 18.09 0 9.18 0 0 Z " fill="#064164" transform="translate(111,143)"/>
<path d="M0 0 C2.31 0 4.62 0 7 0 C7 8.91 7 17.82 7 27 C4.69 27 2.38 27 0 27 C0 26.01 0 25.02 0 24 C0.66 24 1.32 24 2 24 C2 17.07 2 10.14 2 3 C1.34 3 0.68 3 0 3 C0 2.01 0 1.02 0 0 Z " fill="#0D4567" transform="translate(146,143)"/>
<path d="M0 0 C0.86625 -0.01933594 1.7325 -0.03867188 2.625 -0.05859375 C5 0.4375 5 0.4375 6.80078125 2.29296875 C8.23497194 4.85769413 8.24119949 6.54310615 8 9.4375 C6.35 9.4375 4.7 9.4375 3 9.4375 C3 8.1175 3 6.7975 3 5.4375 C0.69 5.4375 -1.62 5.4375 -4 5.4375 C-4 11.7075 -4 17.9775 -4 24.4375 C-1.69 24.4375 0.62 24.4375 3 24.4375 C3 22.1275 3 19.8175 3 17.4375 C1.68 17.4375 0.36 17.4375 -1 17.4375 C-0.67 16.1175 -0.34 14.7975 0 13.4375 C0 14.4275 0 15.4175 0 16.4375 C1.32 16.4375 2.64 16.4375 4 16.4375 C4 19.4075 4 22.3775 4 25.4375 C1.03 25.4375 -1.94 25.4375 -5 25.4375 C-5 18.5075 -5 11.5775 -5 4.4375 C-5.99 4.1075 -6.98 3.7775 -8 3.4375 C-5.54584311 0.39402254 -3.8588362 0.00574232 0 0 Z " fill="#8AA0B0" transform="translate(73,141.5625)"/>
<path d="M0 0 C3.12290635 0.48578543 5.99580359 0.9986012 9 2 C9 6.29 9 10.58 9 15 C4 15 4 15 1.125 13.125 C-1.6437559 9.05330015 -1.13143965 6.72930989 -0.39453125 2.01171875 C-0.26433594 1.34785156 -0.13414062 0.68398438 0 0 Z " fill="#FAFBFB" transform="translate(135,39)"/>
<path d="M0 0 C0.9075 0.103125 1.815 0.20625 2.75 0.3125 C4.35181225 4.36414274 5.2624843 7.12408193 3.75 11.3125 C-0.1003105 13.87937367 -1.83569763 13.14538724 -6.25 12.3125 C-7.20719944 8.2444024 -7.68670609 6.13350746 -5.6875 2.375 C-3.25 0.3125 -3.25 0.3125 0 0 Z " fill="#FBFCFA" transform="translate(142.25,66.6875)"/>
<path d="M0 0 C1.15113281 0.36996094 2.30226563 0.73992188 3.48828125 1.12109375 C4.64714844 1.47300781 5.80601563 1.82492188 7 2.1875 C9.80078125 3.55859375 9.80078125 3.55859375 10.6953125 5.7109375 C10.74751953 6.62552734 10.74751953 6.62552734 10.80078125 7.55859375 C5.33393002 9.74533424 -0.06436657 10.81253462 -5.69921875 8.55859375 C-6.19421875 8.22859375 -6.68921875 7.89859375 -7.19921875 7.55859375 C-7.44921875 5.24609375 -7.44921875 5.24609375 -7.19921875 2.55859375 C-4.70821314 -0.19430243 -3.72574899 -0.51405328 0 0 Z " fill="#FAFBFA" transform="translate(91.19921875,62.44140625)"/>
<path d="M0 0 C0.9075 0.12375 1.815 0.2475 2.75 0.375 C3.41 1.695 4.07 3.015 4.75 4.375 C4.09 5.035 3.43 5.695 2.75 6.375 C2.34952556 8.69775177 2.0102896 11.03239357 1.75 13.375 C-0.23 14.035 -2.21 14.695 -4.25 15.375 C-6.3125 13.6875 -6.3125 13.6875 -8.25 11.375 C-8.25 6.0042542 -5.5355824 0.63872105 0 0 Z " fill="#FBFDFD" transform="translate(115.25,29.625)"/>
<path d="M0 0 C0.33 0 0.66 0 1 0 C1.144375 1.093125 1.28875 2.18625 1.4375 3.3125 C1.88288104 6.93122987 1.88288104 6.93122987 3 10 C2.00390625 12.91796875 2.00390625 12.91796875 0.5625 16.1875 C-0.14712891 17.81751953 -0.14712891 17.81751953 -0.87109375 19.48046875 C-1.24363281 20.31191406 -1.61617187 21.14335938 -2 22 C-2.99 22 -3.98 22 -5 22 C-6.42258812 18.17679443 -7.24042276 15.08718695 -7 11 C-6.01 11 -5.02 11 -4 11 C-3.67 8.36 -3.34 5.72 -3 3 C-2.01 3 -1.02 3 0 3 C0 2.01 0 1.02 0 0 Z " fill="#F3F1F1" transform="translate(154,55)"/>
<path d="M0 0 C0.33 0 0.66 0 1 0 C1 6.6 1 13.2 1 20 C0.34 20 -0.32 20 -1 20 C-1 20.99 -1 21.98 -1 23 C4.61 23 10.22 23 16 23 C16 21.35 16 19.7 16 18 C15.63261719 18.65484375 15.26523438 19.3096875 14.88671875 19.984375 C13 22 13 22 10.08203125 22.390625 C9.00308594 22.34421875 7.92414063 22.2978125 6.8125 22.25 C5.72582031 22.21390625 4.63914062 22.1778125 3.51953125 22.140625 C2.68808594 22.09421875 1.85664062 22.0478125 1 22 C1.33 21.34 1.66 20.68 2 20 C2.66 20 3.32 20 4 20 C4 13.4 4 6.8 4 0 C4.33 0 4.66 0 5 0 C5 6.27 5 12.54 5 19 C7.31 19 9.62 19 12 19 C12 18.34 12 17.68 12 17 C13.65 17 15.3 17 17 17 C17 19.31 17 21.62 17 24 C10.73 24 4.46 24 -2 24 C-2 22.35 -2 20.7 -2 19 C-1.34 19 -0.68 19 0 19 C0 12.73 0 6.46 0 0 Z " fill="#6B899D" transform="translate(83,182)"/>
<path d="M0 0 C0.66 0.66 1.32 1.32 2 2 C1.67028521 5.29714793 1.3773161 6.6226839 -1 9 C-7.88888889 9.55555556 -7.88888889 9.55555556 -11.5 7.75 C-13 6 -13 6 -13 2 C-8.52169972 0.56694391 -4.76082745 -0.44286767 0 0 Z " fill="#FBFBFB" transform="translate(102,72)"/>
<path d="M0 0 C1.2065625 0.0309375 1.2065625 0.0309375 2.4375 0.0625 C4.1854503 5.30635089 4.63142201 9.53572267 4.4375 15.0625 C3.4475 14.7325 2.4575 14.4025 1.4375 14.0625 C1.1075 12.4125 0.7775 10.7625 0.4375 9.0625 C-0.2225 9.0625 -0.8825 9.0625 -1.5625 9.0625 C-1.8925 11.3725 -2.2225 13.6825 -2.5625 16.0625 C-3.5525 16.3925 -4.5425 16.7225 -5.5625 17.0625 C-5.79983045 11.48523453 -5.14096031 6.43156939 -3.5625 1.0625 C-2.5625 0.0625 -2.5625 0.0625 0 0 Z " fill="#245573" transform="translate(113.5625,177.9375)"/>
<path d="M0 0 C0.33 0 0.66 0 1 0 C1 1.98 1 3.96 1 6 C-0.65 6 -2.3 6 -4 6 C-4 5.34 -4 4.68 -4 4 C-6.31 4 -8.62 4 -11 4 C-11 6.31 -11 8.62 -11 11 C-7.535 10.505 -7.535 10.505 -4 10 C-4 12.31 -4 14.62 -4 17 C-5.32 17 -6.64 17 -8 17 C-8 16.34 -8 15.68 -8 15 C-8.99 15.33 -9.98 15.66 -11 16 C-11.33 18.31 -11.66 20.62 -12 23 C-12.66 22.67 -13.32 22.34 -14 22 C-14 16.39 -14 10.78 -14 5 C-13.34 5 -12.68 5 -12 5 C-12 4.34 -12 3.68 -12 3 C-9.03 3 -6.06 3 -3 3 C-3 3.66 -3 4.32 -3 5 C-2.01 5 -1.02 5 0 5 C0 3.35 0 1.7 0 0 Z " fill="#37627E" transform="translate(199,143)"/>
<path d="M0 0 C2.64 0.33 5.28 0.66 8 1 C7.67 2.98 7.34 4.96 7 7 C6.360625 7.103125 5.72125 7.20625 5.0625 7.3125 C4.381875 7.539375 3.70125 7.76625 3 8 C2.67 8.99 2.34 9.98 2 11 C0.35 11 -1.3 11 -3 11 C-3.33 11.99 -3.66 12.98 -4 14 C-5.65 14 -7.3 14 -9 14 C-9 12.35 -9 10.7 -9 9 C-8.4225 8.938125 -7.845 8.87625 -7.25 8.8125 C-4.06646522 7.66289022 -2.89414079 5.74323838 -1 3 C-0.67 2.01 -0.34 1.02 0 0 Z " fill="#BAC8BC" transform="translate(77,63)"/>
<path d="M0 0 C6.27 0 12.54 0 19 0 C19 1.98 19 3.96 19 6 C14.31777615 7.56074128 9.80349558 6.9256371 5 6 C1.8125 4.0625 1.8125 4.0625 0 2 C0 1.34 0 0.68 0 0 Z " fill="#FBFCFA" transform="translate(71,49)"/>
<path d="M0 0 C5.28 0.66 10.56 1.32 16 2 C16.33 2.99 16.66 3.98 17 5 C15.5625 7.125 15.5625 7.125 13 9 C8.14199935 8.74622385 3.40372936 6.988781 -1 5 C-0.67 3.35 -0.34 1.7 0 0 Z " fill="#FAFBFA" transform="translate(89,56)"/>
<path d="M0 0 C0 0.99 0 1.98 0 3 C2.31 3.33 4.62 3.66 7 4 C7 5.65 7 7.3 7 9 C4.23556715 10.07010304 2.46148633 10.16283213 -0.3359375 9.17578125 C-2.58474227 8.16488321 -4.80159637 7.11596524 -7 6 C-7 4.02 -7 2.04 -7 0 C-3.86650268 -1.04449911 -3.01031744 -0.93423645 0 0 Z " fill="#F9FBFC" transform="translate(118,46)"/>
<path d="M0 0 C4.08121639 -0.3200954 6.37240957 -0.37388366 9.9375 1.75 C12 4 12 4 12 8 C8.85658007 9.57170996 5.44228549 9.23175783 2 9 C1.01 8.67 0.02 8.34 -1 8 C-0.67 5.36 -0.34 2.72 0 0 Z " fill="#FBFBFB" transform="translate(65,52)"/>
<path d="M0 0 C2.97 0 5.94 0 9 0 C9 1.65 9 3.3 9 5 C8.01 5 7.02 5 6 5 C5.95101562 5.68707031 5.90203125 6.37414062 5.8515625 7.08203125 C5.77679688 7.98308594 5.70203125 8.88414062 5.625 9.8125 C5.55539063 10.70582031 5.48578125 11.59914062 5.4140625 12.51953125 C5 15 5 15 3 18 C1.44921875 16.82421875 1.44921875 16.82421875 0 15 C0.14453125 12.51953125 0.14453125 12.51953125 0.8125 9.8125 C1.02519531 8.91144531 1.23789063 8.01039063 1.45703125 7.08203125 C1.63621094 6.39496094 1.81539062 5.70789063 2 5 C1.34 5 0.68 5 0 5 C0 3.35 0 1.7 0 0 Z " fill="#567990" transform="translate(169,142)"/>
<path d="M0 0 C3.3 0 6.6 0 10 0 C10.09765625 6.15234375 10.09765625 6.15234375 10 8 C9 9 9 9 7.1875 9.1328125 C6.465625 9.13023438 5.74375 9.12765625 5 9.125 C4.278125 9.12757812 3.55625 9.13015625 2.8125 9.1328125 C1 9 1 9 0 8 C-0.14115161 5.32941149 -0.04247107 2.67567762 0 0 Z " fill="#DF1E71" transform="translate(93,82)"/>
<path d="M0 0 C2.875 0.6875 2.875 0.6875 3.875 1.6875 C3.91580783 3.68708364 3.91754356 5.68795254 3.875 7.6875 C-0.085 9.6675 -0.085 9.6675 -4.125 11.6875 C-5.44126692 8.06776598 -6.125 5.59182869 -6.125 1.6875 C-3.125 -0.3125 -3.125 -0.3125 0 0 Z " fill="#FBFBF9" transform="translate(138.125,80.3125)"/>
<path d="M0 0 C2.05078125 0.03255208 4.1015625 0.06510417 6.15234375 0.09765625 C6.48234375 1.41765625 6.81234375 2.73765625 7.15234375 4.09765625 C8.80234375 4.09765625 10.45234375 4.09765625 12.15234375 4.09765625 C12.15234375 4.42765625 12.15234375 4.75765625 12.15234375 5.09765625 C10.50234375 5.09765625 8.85234375 5.09765625 7.15234375 5.09765625 C6.82234375 6.08765625 6.49234375 7.07765625 6.15234375 8.09765625 C0 8.9765625 0 8.9765625 -1.84765625 9.09765625 C-2.84765625 8.09765625 -2.84765625 8.09765625 -2.97265625 4.59765625 C-2.81376564 0.14871911 -2.81376564 0.14871911 0 0 Z " fill="#329DD3" transform="translate(124.84765625,54.90234375)"/>
<path d="M0 0 C1.47906892 -0.02689216 2.95827483 -0.04634621 4.4375 -0.0625 C5.26121094 -0.07410156 6.08492187 -0.08570313 6.93359375 -0.09765625 C9 0 9 0 10 1 C10.125 4.5 10.125 4.5 10 8 C9 9 9 9 7.1875 9.1328125 C6.465625 9.13023438 5.74375 9.12765625 5 9.125 C4.278125 9.12757812 3.55625 9.13015625 2.8125 9.1328125 C1 9 1 9 0 8 C-0.14115161 5.32941149 -0.04247107 2.67567762 0 0 Z " fill="#DF1E71" transform="translate(155,54)"/>
<path d="M0 0 C1.33333333 0 2.66666667 0 4 0 C4 6.6 4 13.2 4 20 C4.66 20 5.32 20 6 20 C6 20.99 6 21.98 6 23 C3.36 23 0.72 23 -2 23 C-2 22.01 -2 21.02 -2 20 C-1.34 20 -0.68 20 0 20 C0 13.4 0 6.8 0 0 Z " fill="#205171" transform="translate(130,147)"/>
<path d="M0 0 C5.61 0 11.22 0 17 0 C17 1.65 17 3.3 17 5 C16.01 5 15.02 5 14 5 C14 4.34 14 3.68 14 3 C11.03 3 8.06 3 5 3 C5 3.66 5 4.32 5 5 C4.34 5 3.68 5 3 5 C3 11.27 3 17.54 3 24 C2.67 24 2.34 24 2 24 C1.97494385 23.41508789 1.9498877 22.83017578 1.92407227 22.22753906 C1.80777038 19.56815529 1.68519933 16.90909597 1.5625 14.25 C1.50352539 12.86941406 1.50352539 12.86941406 1.44335938 11.4609375 C1.40146484 10.57148438 1.35957031 9.68203125 1.31640625 8.765625 C1.27974854 7.94868164 1.24309082 7.13173828 1.20532227 6.29003906 C1.03157467 3.68732389 1.03157467 3.68732389 0 0 Z " fill="#0D4668" transform="translate(182,143)"/>
<path d="M0 0 C2 2 2 2 2.1875 5.0625 C2 8 2 8 1 9 C-0.8125 9.1328125 -0.8125 9.1328125 -3 9.125 C-3.721875 9.12757812 -4.44375 9.13015625 -5.1875 9.1328125 C-7 9 -7 9 -8 8 C-8.04092937 5.66702567 -8.04241723 3.33294775 -8 1 C-5.23749964 -0.38125018 -3.05268901 -0.19079306 0 0 Z " fill="#4AA44D" transform="translate(126,88)"/>
<path d="M0 0 C0.763125 0.0825 1.52625 0.165 2.3125 0.25 C3.76646825 6.42936508 3.76646825 6.42936508 1.6875 10.1875 C-0.6875 12.25 -0.6875 12.25 -3.4375 12.5625 C-4.55125 12.4078125 -4.55125 12.4078125 -5.6875 12.25 C-6.04940476 5.01190476 -6.04940476 5.01190476 -4.5 1.75 C-2.6875 0.25 -2.6875 0.25 0 0 Z " fill="#F8FAF9" transform="translate(134.6875,59.75)"/>
<path d="M0 0 C0.89332031 0.30164062 1.78664063 0.60328125 2.70703125 0.9140625 C3.60808594 1.21054687 4.50914063 1.50703125 5.4375 1.8125 C6.46810547 2.17214844 6.46810547 2.17214844 7.51953125 2.5390625 C7.51953125 4.1890625 7.51953125 5.8390625 7.51953125 7.5390625 C0.58953125 7.0440625 0.58953125 7.0440625 -6.48046875 6.5390625 C-6.15046875 4.8890625 -5.82046875 3.2390625 -5.48046875 1.5390625 C-2.48046875 -0.4609375 -2.48046875 -0.4609375 0 0 Z " fill="#FBFBFA" transform="translate(113.48046875,54.4609375)"/>
<path d="M0 0 C1.77049689 -0.05410687 3.54146849 -0.09284119 5.3125 -0.125 C6.29863281 -0.14820313 7.28476563 -0.17140625 8.30078125 -0.1953125 C11 0 11 0 14 2 C14 3.32 14 4.64 14 6 C12.68 6 11.36 6 10 6 C10 5.34 10 4.68 10 4 C7.36 4 4.72 4 2 4 C2 6.31 2 8.62 2 11 C4.97 11 7.94 11 11 11 C11 11.33 11 11.66 11 12 C7.7 12 4.4 12 1 12 C0 3.375 0 3.375 0 0 Z " fill="#3E6883" transform="translate(129,178)"/>
<path d="M0 0 C3.96 0.33 7.92 0.66 12 1 C11.01 1.33 10.02 1.66 9 2 C9.350625 2.886875 9.70125 3.77375 10.0625 4.6875 C11.01755602 8.06203126 10.97151132 9.69686152 10 13 C8.68 13 7.36 13 6 13 C6.33 9.37 6.66 5.74 7 2 C5.02 2 3.04 2 1 2 C0.34 3.65 -0.32 5.3 -1 7 C-4.96 7 -8.92 7 -13 7 C-13.66 5.68 -14.32 4.36 -15 3 C-14.2575 3.495 -14.2575 3.495 -13.5 4 C-9.70336293 5.51865483 -7.09492581 5.45499176 -3 5 C-2.01 3.35 -1.02 1.7 0 0 Z " fill="#D1B1B5" transform="translate(104,75)"/>
<path d="M0 0 C2.05078125 0.03255208 4.1015625 0.06510417 6.15234375 0.09765625 C6.53297596 2.42374195 6.8650432 4.75820889 7.15234375 7.09765625 C6.15234375 8.09765625 6.15234375 8.09765625 4.33984375 8.23046875 C3.61796875 8.22789063 2.89609375 8.2253125 2.15234375 8.22265625 C1.43046875 8.22523437 0.70859375 8.2278125 -0.03515625 8.23046875 C-1.84765625 8.09765625 -1.84765625 8.09765625 -2.84765625 7.09765625 C-2.97265625 4.09765625 -2.97265625 4.09765625 -2.84765625 1.09765625 C-1.84765625 0.09765625 -1.84765625 0.09765625 0 0 Z " fill="#F79C3F" transform="translate(59.84765625,59.90234375)"/>
<path d="M0 0 C1.62463842 -0.05395478 3.24978541 -0.09277195 4.875 -0.125 C5.77992187 -0.14820313 6.68484375 -0.17140625 7.6171875 -0.1953125 C10 0 10 0 12 2 C12.125 5.125 12.125 5.125 12 8 C10.68 8 9.36 8 8 8 C8 6.35 8 4.7 8 3 C5.36 3 2.72 3 0 3 C0 9.6 0 16.2 0 23 C-0.33 23 -0.66 23 -1 23 C-1.02894547 19.54168414 -1.04678 16.08339928 -1.0625 12.625 C-1.07087891 11.64015625 -1.07925781 10.6553125 -1.08789062 9.640625 C-1.09111328 8.69960937 -1.09433594 7.75859375 -1.09765625 6.7890625 C-1.10289307 5.91975098 -1.10812988 5.05043945 -1.11352539 4.15478516 C-1 2 -1 2 0 0 Z " fill="#285775" transform="translate(29,143)"/>
<path d="M0 0 C0.33 0 0.66 0 1 0 C3.62096065 6.88002171 3.18170362 13.72176039 3 21 C3.66 21 4.32 21 5 21 C5 21.99 5 22.98 5 24 C2.69 24 0.38 24 -2 24 C-2 23.01 -2 22.02 -2 21 C-1.34 21 -0.68 21 0 21 C0 14.07 0 7.14 0 0 Z " fill="#0C4567" transform="translate(87,146)"/>
<path d="M0 0 C3 0.3125 3 0.3125 6 1 C7.35439668 3.70879335 7.06501451 6.00933268 7 9 C5.25 10.125 5.25 10.125 3 11 C0.75 10.125 0.75 10.125 -1 9 C-1.09765625 2.84765625 -1.09765625 2.84765625 -1 1 C-0.67 0.67 -0.34 0.34 0 0 Z " fill="#FCFCFC" transform="translate(121,63)"/>
<path d="M0 0 C0.33 0 0.66 0 1 0 C1.05391993 1.79133978 1.09275571 3.58313899 1.125 5.375 C1.14820313 6.37273437 1.17140625 7.37046875 1.1953125 8.3984375 C1 11 1 11 -1 13 C-3.53125 13.265625 -3.53125 13.265625 -6.5 13.25 C-7.4796875 13.25515625 -8.459375 13.2603125 -9.46875 13.265625 C-12 13 -12 13 -14 11 C-14 10.01 -14 9.02 -14 8 C-12.68 8 -11.36 8 -10 8 C-10 8.66 -10 9.32 -10 10 C-7.36 10 -4.72 10 -2 10 C-2.04125 8.906875 -2.0825 7.81375 -2.125 6.6875 C-2 3 -2 3 0 0 Z " fill="#0E4769" transform="translate(161,192)"/>
<path d="M0 0 C0.99 0.33 1.98 0.66 3 1 C3 3.97 3 6.94 3 10 C6.3 10 9.6 10 13 10 C12.67 10.99 12.34 11.98 12 13 C10.37536158 13.05395478 8.75021459 13.09277195 7.125 13.125 C6.22007812 13.14820313 5.31515625 13.17140625 4.3828125 13.1953125 C2 13 2 13 0 11 C-0.1953125 8.3984375 -0.1953125 8.3984375 -0.125 5.375 C-0.10695313 4.37210938 -0.08890625 3.36921875 -0.0703125 2.3359375 C-0.04710938 1.56507813 -0.02390625 0.79421875 0 0 Z " fill="#164C6C" transform="translate(127,180)"/>
<path d="M0 0 C2.31 0 4.62 0 7 0 C6.76228882 0.82226074 6.76228882 0.82226074 6.51977539 1.66113281 C5.9372438 4.28238816 5.78793845 6.73872553 5.68359375 9.421875 C5.64169922 10.44667969 5.59980469 11.47148437 5.55664062 12.52734375 C5.51732422 13.59082031 5.47800781 14.65429688 5.4375 15.75 C5.37272461 17.36841797 5.37272461 17.36841797 5.30664062 19.01953125 C5.20071011 21.67956428 5.09863579 24.33968812 5 27 C4.67 27 4.34 27 4 27 C3.67 24.03 3.34 21.06 3 18 C2.67 18 2.34 18 2 18 C1.93941406 17.03578125 1.87882812 16.0715625 1.81640625 15.078125 C1.73261719 13.81484375 1.64882812 12.5515625 1.5625 11.25 C1.48128906 9.99703125 1.40007812 8.7440625 1.31640625 7.453125 C1.07484478 4.81682447 0.75716066 2.51962706 0 0 Z " fill="#0B4567" transform="translate(99,143)"/>
<path d="M0 0 C-0.33 1.65 -0.66 3.3 -1 5 C-5.455 6.485 -5.455 6.485 -10 8 C-11 7 -11 7 -11.0625 4.4375 C-11.041875 3.633125 -11.02125 2.82875 -11 2 C-6.89657963 -0.38570952 -4.61380251 -1.49270081 0 0 Z " fill="#FCFBFB" transform="translate(124,75)"/>
<path d="M0 0 C0.99 0.33 1.98 0.66 3 1 C3.02895976 4.12498063 3.04678483 7.2499269 3.0625 10.375 C3.07087891 11.26445312 3.07925781 12.15390625 3.08789062 13.0703125 C3.09111328 13.92109375 3.09433594 14.771875 3.09765625 15.6484375 C3.10289307 16.43395996 3.10812988 17.21948242 3.11352539 18.02880859 C3 20 3 20 2 22 C1.34 22 0.68 22 0 22 C0 14.74 0 7.48 0 0 Z " fill="#124A6B" transform="translate(45,146)"/>
<path d="M0 0 C2.31 0 4.62 0 7 0 C7 0.99 7 1.98 7 3 C6.01 3 5.02 3 4 3 C4.01571045 3.56509277 4.0314209 4.13018555 4.04760742 4.71240234 C4.10987045 7.26650023 4.14896136 9.82043871 4.1875 12.375 C4.22520508 13.70917969 4.22520508 13.70917969 4.26367188 15.0703125 C4.27817383 16.34648437 4.27817383 16.34648437 4.29296875 17.6484375 C4.3086792 18.43395996 4.32438965 19.21948242 4.34057617 20.02880859 C4.22818604 20.67930176 4.1157959 21.32979492 4 22 C3.01 22.66 2.02 23.32 1 24 C0.67 16.08 0.34 8.16 0 0 Z " fill="#20506F" transform="translate(111,143)"/>
<path d="M0 0 C0 1.65 0 3.3 0 5 C-2.11997834 6.19733988 -4.24513676 7.38298713 -6.375 8.5625 C-6.97828125 8.90474609 -7.5815625 9.24699219 -8.203125 9.59960938 C-9.76978241 10.46127095 -11.38290862 11.23718183 -13 12 C-13.66 11.67 -14.32 11.34 -15 11 C-13.39801112 9.53927468 -11.79332884 8.08150284 -10.1875 6.625 C-9.29417969 5.81289062 -8.40085938 5.00078125 -7.48046875 4.1640625 C-2.70758123 0 -2.70758123 0 0 0 Z " fill="#2775A5" transform="translate(137,114)"/>
<path d="M0 0 C0.66 0.33 1.32 0.66 2 1 C2 1.99 2 2.98 2 4 C2.66 4 3.32 4 4 4 C4 5.65 4 7.3 4 9 C1.36 9 -1.28 9 -4 9 C-4 7.35 -4 5.7 -4 4 C-3.34 4 -2.68 4 -2 4 C-1.67 3.01 -1.34 2.02 -1 1 C-0.67 0.67 -0.34 0.34 0 0 Z " fill="#35627E" transform="translate(119,197)"/>
<path d="M0 0 C2.31 0 4.62 0 7 0 C7.04254356 1.99954746 7.04080783 4.00041636 7 6 C6 7 6 7 2.9375 7.0625 C1.968125 7.041875 0.99875 7.02125 0 7 C-1.125 2.25 -1.125 2.25 0 0 Z " fill="#DDAB4E" transform="translate(130,104)"/>
<path d="M0 0 C1.32 0.33 2.64 0.66 4 1 C4 2.32 4 3.64 4 5 C3.01 5.33 2.02 5.66 1 6 C0.67 6.99 0.34 7.98 0 9 C-1.65 9 -3.3 9 -5 9 C-5 4.61031544 -2.87194899 3.23094261 0 0 Z " fill="#F5F7F5" transform="translate(79,65)"/>
<path d="M0 0 C2.31 0 4.62 0 7 0 C6.8864371 1.64666203 6.75882619 3.29236082 6.625 4.9375 C6.55539063 5.85402344 6.48578125 6.77054688 6.4140625 7.71484375 C6.27742187 8.46894531 6.14078125 9.22304687 6 10 C5.01 10.495 5.01 10.495 4 11 C2.74335022 8.09399739 2 6.20395416 2 3 C1.34 3 0.68 3 0 3 C0 2.01 0 1.02 0 0 Z " fill="#104869" transform="translate(158,143)"/>
<path d="M0 0 C5.29158974 1.40071493 7.77478044 4.85487245 11 9 C5.76727367 7.36041242 0.84803364 5.61047965 -4 3 C-2.68 2.67 -1.36 2.34 0 2 C0 1.34 0 0.68 0 0 Z " fill="#2776A5" transform="translate(90,116)"/>
<path d="M0 0 C6.0546875 -0.1953125 6.0546875 -0.1953125 8 0 C10 2 10 2 10.125 4.625 C10.08375 5.40875 10.0425 6.1925 10 7 C9.01 7 8.02 7 7 7 C7 5.68 7 4.36 7 3 C4.36 3 1.72 3 -1 3 C-0.67 2.01 -0.34 1.02 0 0 Z " fill="#0E4668" transform="translate(70,143)"/>
<path d="M0 0 C0.90105469 0.02707031 1.80210938 0.05414063 2.73046875 0.08203125 C3.76107422 0.13423828 3.76107422 0.13423828 4.8125 0.1875 C4.8125 0.5175 4.8125 0.8475 4.8125 1.1875 C1.73632812 1.48046875 1.73632812 1.48046875 -1.33984375 1.7734375 C-1.94957031 1.91007813 -2.55929688 2.04671875 -3.1875 2.1875 C-3.5175 2.8475 -3.8475 3.5075 -4.1875 4.1875 C-1.5475 4.1875 1.0925 4.1875 3.8125 4.1875 C3.8125 5.5075 3.8125 6.8275 3.8125 8.1875 C4.8025 8.1875 5.7925 8.1875 6.8125 8.1875 C7.1425 6.8675 7.4725 5.5475 7.8125 4.1875 C7.8125 5.8375 7.8125 7.4875 7.8125 9.1875 C6.1625 9.1875 4.5125 9.1875 2.8125 9.1875 C2.8125 7.8675 2.8125 6.5475 2.8125 5.1875 C-0.16601562 5.28515625 -0.16601562 5.28515625 -3.14453125 5.3828125 C-5.1875 5.1875 -5.1875 5.1875 -8.1875 3.1875 C-5.67753317 0.01043235 -3.96125134 -0.15433447 0 0 Z " fill="#7490A2" transform="translate(73.1875,141.8125)"/>
<path d="M0 0 C0.33 0 0.66 0 1 0 C1.33 7.59 1.66 15.18 2 23 C-0.31 23 -2.62 23 -5 23 C-4.505 21.515 -4.505 21.515 -4 20 C-2.68 20 -1.36 20 0 20 C0 13.4 0 6.8 0 0 Z " fill="#2C5C7A" transform="translate(151,147)"/>
<path d="M0 0 C0.99 0 1.98 0 3 0 C3.125 2.375 3.125 2.375 3 5 C1 7 1 7 -1.3828125 7.1953125 C-2.28773437 7.17210937 -3.19265625 7.14890625 -4.125 7.125 C-5.49011719 7.09792969 -5.49011719 7.09792969 -6.8828125 7.0703125 C-7.58148438 7.04710937 -8.28015625 7.02390625 -9 7 C-8.67 6.01 -8.34 5.02 -8 4 C-5.36 4 -2.72 4 0 4 C0 2.68 0 1.36 0 0 Z " fill="#084467" transform="translate(74,198)"/>
<path d="M0 0 C2.31 0 4.62 0 7 0 C7 0.99 7 1.98 7 3 C6.34 3 5.68 3 5 3 C5 4.65 5 6.3 5 8 C4.01 7.67 3.02 7.34 2 7 C2 5.68 2 4.36 2 3 C1.34 3 0.68 3 0 3 C0 2.01 0 1.02 0 0 Z " fill="#144A6B" transform="translate(170,143)"/>
<path d="M0 0 C1.81242052 -0.02687279 3.62495233 -0.04633715 5.4375 -0.0625 C6.44683594 -0.07410156 7.45617187 -0.08570313 8.49609375 -0.09765625 C11 0 11 0 12 1 C12.04063832 2.66617115 12.042721 4.33388095 12 6 C11.01 6 10.02 6 9 6 C9 4.68 9 3.36 9 2 C6.36 2 3.72 2 1 2 C0.67 1.34 0.34 0.68 0 0 Z " fill="#0C4567" transform="translate(65,179)"/>
<path d="M0 0 C2 2 2 2 2 5 C2.66 5 3.32 5 4 5 C4 5.99 4 6.98 4 8 C1.69 8 -0.62 8 -3 8 C-2.37240135 5.07120629 -1.41377341 2.63904371 0 0 Z " fill="#0D4668" transform="translate(107,197)"/>
<path d="M0 0 C1.32 0 2.64 0 4 0 C4.1875 2.875 4.1875 2.875 4 6 C3.01 6.66 2.02 7.32 1 8 C0.34 7.67 -0.32 7.34 -1 7 C-0.67 4.69 -0.34 2.38 0 0 Z " fill="#305E7A" transform="translate(37,162)"/>
<path d="M0 0 C2 3 2 3 1.75 6.4375 C1.12045482 9.42783962 0.41256398 11.36591552 -1 14 C-2.51708428 4.58997722 -2.51708428 4.58997722 0 0 Z " fill="#406983" transform="translate(164,149)"/>
<path d="M0 0 C2.97 0 5.94 0 9 0 C9 0.99 9 1.98 9 3 C5.7 3 2.4 3 -1 3 C-0.67 2.01 -0.34 1.02 0 0 Z " fill="#094567" transform="translate(131,202)"/>
<path d="M0 0 C1.32 0 2.64 0 4 0 C4 1.98 4 3.96 4 6 C2.02 6 0.04 6 -2 6 C-1.34 4.02 -0.68 2.04 0 0 Z " fill="#1D5070" transform="translate(195,164)"/>
<path d="M0 0 C1.6490302 0.61651583 3.29415841 1.24347742 4.9375 1.875 C6.31228516 2.39707031 6.31228516 2.39707031 7.71484375 2.9296875 C10 4 10 4 11 6 C6.97007218 5.44687265 2.97977076 4.8441938 -1 4 C-0.67 2.68 -0.34 1.36 0 0 Z " fill="#446D86" transform="translate(80,124)"/>
<path d="M0 0 C0.763125 0.20625 1.52625 0.4125 2.3125 0.625 C2.3125 1.285 2.3125 1.945 2.3125 2.625 C-1.6475 3.285 -5.6075 3.945 -9.6875 4.625 C-2.96854575 -0.41421569 -2.96854575 -0.41421569 0 0 Z " fill="#305F7C" transform="translate(142.6875,125.375)"/>
<path d="M0 0 C1.65 0 3.3 0 5 0 C5 1.65 5 3.3 5 5 C3.35 5 1.7 5 0 5 C0 3.35 0 1.7 0 0 Z " fill="#EE683A" transform="translate(68,72)"/>
<path d="M0 0 C0.66 0.66 1.32 1.32 2 2 C1.7578125 4.1640625 1.7578125 4.1640625 1.125 6.625 C0.92132813 7.44226563 0.71765625 8.25953125 0.5078125 9.1015625 C0.25644531 10.04128906 0.25644531 10.04128906 0 11 C-0.33 11 -0.66 11 -1 11 C-1 8.69 -1 6.38 -1 4 C-3.97 4 -6.94 4 -10 4 C-10 3.67 -10 3.34 -10 3 C-9.36191406 2.95101562 -8.72382813 2.90203125 -8.06640625 2.8515625 C-7.24011719 2.77679688 -6.41382813 2.70203125 -5.5625 2.625 C-4.73878906 2.55539063 -3.91507813 2.48578125 -3.06640625 2.4140625 C-2.38449219 2.27742187 -1.70257813 2.14078125 -1 2 C-0.67 1.34 -0.34 0.68 0 0 Z " fill="#4C6E85" transform="translate(140,190)"/>
<path d="M0 0 C2.31 0 4.62 0 7 0 C6.67 1.32 6.34 2.64 6 4 C4.35 4 2.7 4 1 4 C0.67 2.68 0.34 1.36 0 0 Z " fill="#194D6D" transform="translate(82,178)"/>
<path d="M0 0 C1.65 0 3.3 0 5 0 C4.67 1.65 4.34 3.3 4 5 C2.68 5 1.36 5 0 5 C0 3.35 0 1.7 0 0 Z " fill="#F27145" transform="translate(110,83)"/>
<path d="M0 0 C3.96 0.33 7.92 0.66 12 1 C12 1.33 12 1.66 12 2 C10.72125 2.12375 9.4425 2.2475 8.125 2.375 C4.65209064 2.69042399 4.65209064 2.69042399 2 5 C1.34 4.34 0.68 3.68 0 3 C0 2.01 0 1.02 0 0 Z " fill="#476E88" transform="translate(127,200)"/>
<path d="M0 0 C0.99 0 1.98 0 3 0 C3 1.32 3 2.64 3 4 C1.35 4 -0.3 4 -2 4 C-2 3.34 -2 2.68 -2 2 C-4.31 2 -6.62 2 -9 2 C-9 1.67 -9 1.34 -9 1 C-6.03 1 -3.06 1 0 1 C0 0.67 0 0.34 0 0 Z " fill="#597C92" transform="translate(160,180)"/>
<path d="M0 0 C1.33998047 0.06960937 1.33998047 0.06960937 2.70703125 0.140625 C3.60808594 0.17671875 4.50914063 0.2128125 5.4375 0.25 C6.46810547 0.31960937 6.46810547 0.31960937 7.51953125 0.390625 C7.51953125 0.720625 7.51953125 1.050625 7.51953125 1.390625 C4.4921875 1.63476562 4.4921875 1.63476562 1.46484375 1.87890625 C-0.87566091 2.26455536 -0.87566091 2.26455536 -2.48046875 5.390625 C-3.47046875 5.060625 -4.46046875 4.730625 -5.48046875 4.390625 C-3.17521711 0.50003419 -3.17521711 0.50003419 0 0 Z " fill="#577A91" transform="translate(50.48046875,141.609375)"/>
<path d="M0 0 C0.66 0 1.32 0 2 0 C2.33 2.31 2.66 4.62 3 7 C1.68 7 0.36 7 -1 7 C-0.67 4.69 -0.34 2.38 0 0 Z " fill="#B8C5CE" transform="translate(112,187)"/>
<path d="M0 0 C0.33 0 0.66 0 1 0 C1.368 5.52 1.368 5.52 -0.4375 7.875 C-2 9 -2 9 -3 9 C-3 7.35 -3 5.7 -3 4 C-2.34 3.67 -1.68 3.34 -1 3 C-0.67 2.01 -0.34 1.02 0 0 Z " fill="#0E4768" transform="translate(111,186)"/>
<path d="M0 0 C1.32 0.33 2.64 0.66 4 1 C4 1.99 4 2.98 4 4 C1.69 4 -0.62 4 -3 4 C-2.01 2.68 -1.02 1.36 0 0 Z " fill="#184B6B" transform="translate(114,166)"/>
<path d="M0 0 C2.64752004 2.57784846 4.94432065 4.91648098 7 8 C6.01 8.33 5.02 8.66 4 9 C0 3.375 0 3.375 0 0 Z " fill="#B5C8C8" transform="translate(133,47)"/>
</svg>
