<?xml version="1.0" standalone="no"?>
<!DOCTYPE svg PUBLIC "-//W3C//DTD SVG 20010904//EN"
 "http://www.w3.org/TR/2001/REC-SVG-20010904/DTD/svg10.dtd">
<svg version="1.0" xmlns="http://www.w3.org/2000/svg"
 width="351.000000pt" height="143.000000pt" viewBox="0 0 351.000000 143.000000"
 preserveAspectRatio="xMidYMid meet">

<g transform="translate(0.000000,143.000000) scale(0.100000,-0.100000)"
fill="#000000" stroke="none">
<path d="M0 715 l0 -715 1755 0 1755 0 0 715 0 715 -1755 0 -1755 0 0 -715z
m694 129 c23 -22 9 -39 -15 -18 -22 20 -49 12 -49 -16 0 -15 7 -20 26 -20 14
0 23 -4 19 -10 -3 -5 -15 -10 -26 -10 -17 0 -19 -7 -19 -60 0 -33 -4 -60 -10
-60 -6 0 -10 27 -10 60 0 47 -3 60 -15 60 -8 0 -15 5 -15 10 0 6 7 10 15 10 9
0 15 9 15 23 0 45 52 64 84 31z m976 -95 c0 -92 -2 -110 -13 -100 -8 6 -17 8
-20 4 -13 -13 -72 -4 -84 13 -20 28 -16 91 7 114 22 22 42 25 71 10 17 -10 19
-7 19 23 0 30 6 47 17 47 2 0 3 -50 3 -111z m960 103 c0 -5 -9 -17 -20 -27
-46 -42 -46 -139 1 -199 17 -22 18 -26 5 -26 -37 0 -74 100 -62 165 9 47 76
124 76 87z m284 -29 c38 -52 30 -168 -14 -208 -30 -27 -35 -11 -8 25 32 44 33
132 1 177 -13 17 -23 34 -23 37 0 12 26 -6 44 -31z m-1583 17 c10 -6 19 -20
19 -30 0 -26 -16 -26 -23 1 -4 16 -12 20 -39 17 l-33 -3 0 -75 0 -75 29 -3
c21 -3 34 3 46 19 22 28 34 10 14 -19 -21 -31 -87 -31 -108 0 -24 34 -21 133
4 158 22 22 60 26 91 10z m653 -6 c17 -16 22 -44 8 -44 -4 0 -13 9 -20 20 -16
26 -58 26 -72 1 -14 -27 -13 -114 2 -129 20 -20 64 -14 81 11 15 21 16 21 16
1 1 -11 -4 -25 -11 -32 -17 -17 -84 -15 -102 4 -23 22 -22 141 1 166 20 22 76
24 97 2z m796 -78 c0 -31 3 -37 10 -26 9 13 11 13 20 0 15 -23 12 -64 -6 -86
-10 -12 -14 -14 -11 -4 2 8 -6 20 -17 25 -12 6 -21 21 -22 35 -1 14 -2 30 -3
35 -3 16 -51 -68 -51 -90 -1 -20 -1 -20 -15 -1 -22 29 -19 50 15 109 17 30 30
62 30 72 0 17 3 16 25 -5 19 -18 25 -34 25 -64z m-1926 28 c9 -8 16 -20 16
-25 0 -15 -18 -10 -29 8 -16 30 -41 -2 -41 -53 0 -37 3 -44 20 -44 11 0 20 -4
20 -10 0 -5 -25 -10 -56 -10 -34 0 -53 4 -49 10 3 6 13 10 21 10 10 0 14 13
14 50 0 38 -4 50 -15 50 -8 0 -15 5 -15 10 0 6 16 10 35 8 19 -1 37 1 41 5 11
11 21 8 38 -9z m164 -11 c6 -9 12 -25 12 -35 0 -15 -9 -18 -56 -18 -52 0 -55
-1 -52 -22 2 -18 11 -24 35 -26 18 -2 41 2 53 8 23 12 27 -1 6 -19 -19 -16
-82 -17 -101 -1 -10 8 -15 29 -15 61 0 38 5 51 23 64 26 19 76 13 95 -12z
m160 0 c6 -9 12 -25 12 -35 0 -15 -9 -18 -56 -18 -52 0 -55 -1 -52 -22 2 -18
11 -24 35 -26 18 -2 41 2 53 8 16 8 20 8 20 -4 0 -17 -46 -34 -79 -29 -42 6
-52 22 -49 77 3 42 7 53 28 63 29 15 70 9 88 -14z m306 17 c24 -9 26 -14 26
-69 0 -56 -1 -60 -29 -69 -60 -21 -101 7 -101 68 0 65 43 94 104 70z m337 -8
c4 -4 11 -19 14 -34 l7 -28 -57 0 c-53 0 -56 -1 -53 -22 2 -18 11 -24 35 -26
18 -2 41 2 53 8 23 12 27 -2 5 -20 -20 -16 -80 -17 -99 -1 -11 9 -16 30 -16
62 0 38 5 51 23 64 21 16 72 14 88 -3z m310 8 c15 -9 19 -22 19 -65 0 -30 5
-55 10 -55 6 0 10 -4 10 -10 0 -5 -12 -9 -27 -9 -16 0 -40 -1 -55 -2 -33 -2
-58 16 -58 42 0 26 44 53 75 45 20 -5 25 -3 25 14 0 31 -49 39 -71 12 -19 -25
-29 -28 -29 -10 0 38 59 60 101 38z m119 0 c9 -5 19 -5 27 1 8 7 18 7 32 -1
18 -9 21 -20 21 -75 0 -83 -18 -85 -22 -2 -2 47 -7 62 -18 62 -11 0 -16 -15
-18 -62 -4 -80 -22 -82 -22 -3 0 53 -2 60 -20 60 -18 0 -20 -7 -20 -60 0 -33
-4 -60 -10 -60 -6 0 -10 30 -10 69 0 70 1 72 40 80 3 0 12 -3 20 -9z m151 2
c22 7 38 7 55 -1 21 -9 24 -17 24 -65 0 -62 -14 -80 -65 -78 -30 1 -34 -2 -37
-26 -7 -58 -23 -18 -26 65 -3 81 5 133 15 106 3 -8 12 -9 34 -1z"/>
<path d="M1570 722 c0 -54 15 -67 58 -51 20 8 23 15 20 51 -3 42 -4 43 -40 46
l-38 3 0 -49z"/>
<path d="M934 766 c-26 -20 -14 -28 37 -24 41 3 42 4 25 21 -21 21 -36 22 -62
3z"/>
<path d="M1098 769 c-31 -17 -20 -29 27 -29 47 0 58 12 26 30 -24 12 -31 12
-53 -1z"/>
<path d="M1416 767 c-13 -9 -17 -23 -14 -52 3 -39 4 -40 43 -40 l40 0 3 44 c4
58 -29 80 -72 48z"/>
<path d="M1744 766 c-26 -20 -14 -28 35 -24 27 2 38 7 33 14 -12 20 -47 25
-68 10z"/>
<path d="M2068 709 c-23 -13 -23 -26 2 -39 14 -8 26 -8 40 0 24 13 26 36 4 44
-21 8 -26 7 -46 -5z"/>
<path d="M2400 773 c-22 -9 -30 -24 -30 -59 0 -35 13 -44 61 -44 28 0 29 1 29
50 0 28 -4 50 -9 50 -5 0 -15 2 -23 4 -7 3 -20 2 -28 -1z"/>
</g>
</svg>
