<?xml version="1.0" standalone="no"?>
<!DOCTYPE svg PUBLIC "-//W3C//DTD SVG 20010904//EN"
 "http://www.w3.org/TR/2001/REC-SVG-20010904/DTD/svg10.dtd">
<svg version="1.0" xmlns="http://www.w3.org/2000/svg"
 width="224.000000pt" height="224.000000pt" viewBox="0 0 224.000000 224.000000"
 preserveAspectRatio="xMidYMid meet">
<metadata>
Created by potrace 1.16, written by Peter Selinger 2001-2019
</metadata>
<g transform="translate(0.000000,224.000000) scale(0.100000,-0.100000)"
fill="#000000" stroke="none">
<path d="M0 1120 l0 -1120 1120 0 1120 0 0 1120 0 1120 -1120 0 -1120 0 0
-1120z m560 590 c9 -17 4 -27 -33 -68 -157 -172 -205 -277 -214 -473 -10 -215
49 -391 180 -534 70 -77 79 -92 65 -117 -16 -32 -56 -21 -110 30 -117 109
-195 260 -223 434 -44 274 22 496 201 676 77 77 113 91 134 52z m1216 -1 c50
-30 152 -163 196 -254 47 -99 68 -192 68 -311 0 -238 -78 -443 -225 -590 -54
-55 -88 -67 -113 -42 -23 23 -11 48 59 125 127 140 181 290 181 498 -1 192
-53 328 -183 470 -66 72 -83 108 -56 118 23 10 40 7 73 -14z m-625 -128 c121
-125 166 -259 136 -401 -9 -43 -12 -79 -7 -84 13 -13 57 19 75 55 9 17 22 29
28 26 7 -2 30 -38 52 -81 38 -74 40 -84 40 -165 0 -77 -3 -93 -32 -151 -31
-63 -81 -124 -133 -165 l-24 -20 19 30 c40 63 55 101 55 141 0 52 -12 61 -76
61 -106 1 -128 36 -118 196 6 108 -5 197 -25 197 -4 0 -13 -12 -20 -27 -7 -16
-41 -73 -76 -129 -96 -150 -127 -223 -133 -308 -3 -52 0 -82 12 -111 l17 -40
-51 50 c-58 57 -106 144 -116 212 -13 88 23 190 116 328 104 153 169 305 173
401 1 30 6 54 12 54 5 0 40 -31 76 -69z"/>
</g>
</svg>
