<?xml version="1.0" encoding="UTF-8"?>
<svg version="1.1" xmlns="http://www.w3.org/2000/svg" width="351" height="143">
<path d="M0 0 C115.83 0 231.66 0 351 0 C351 47.19 351 94.38 351 143 C235.17 143 119.34 143 0 143 C0 95.81 0 48.62 0 0 Z " fill="#050510" transform="translate(0,0)"/>
<path d="M0 0 C93.06 0 186.12 0 282 0 C282 1.65 282 3.3 282 5 C285.96 5.495 285.96 5.495 290 6 C290 6.99 290 7.98 290 9 C287.36 9 284.72 9 282 9 C281.67 10.98 281.34 12.96 281 15 C285.12973628 14.43260132 285.12973628 14.43260132 289 13 C290.67654729 13.27942455 292.34608154 13.60828247 294 14 C293.34 14.33 292.68 14.66 292 15 C291.27306096 16.97888961 290.60183749 18.97954558 290 21 C289.27949016 20.83785997 288.55898033 20.67571994 287.81663686 20.50866657 C285.11568833 20.02089257 282.67389621 19.86976583 279.93381023 19.8613348 C278.93108725 19.85586036 277.92836427 19.85038591 276.89525574 19.84474558 C275.80089969 19.84376747 274.70654363 19.84278936 273.57902527 19.84178162 C271.82689845 19.83437465 271.82689845 19.83437465 270.03937513 19.82681805 C266.80122143 19.81411795 263.56309093 19.80582556 260.32491982 19.79939139 C256.8314384 19.79137688 253.33797871 19.77768272 249.84451294 19.76467896 C243.79318613 19.74293112 237.7418571 19.72478044 231.6905117 19.70907402 C222.94128624 19.68635998 214.19208486 19.65821927 205.44287983 19.62875474 C191.24781919 19.58109765 177.05274871 19.53782836 162.85766602 19.49731445 C149.06859572 19.45794995 135.27953417 19.41652143 121.49047852 19.37231445 C120.64049839 19.36959018 119.79051827 19.36686591 118.91478118 19.36405908 C114.65067393 19.35037945 110.38656682 19.3366592 106.12245977 19.32291877 C70.74832461 19.20898357 35.37417081 19.10224072 0 19 C0 12.73 0 6.46 0 0 Z M267.875 12.5 C267.12089844 12.54769531 266.36679687 12.59539063 265.58984375 12.64453125 C263.72652709 12.76246268 261.86325886 12.88115889 260 13 C260 13.66 260 14.32 260 15 C259.01 15.495 259.01 15.495 258 16 C261.45745022 16.22527296 264.91587025 16.42733544 268.375 16.625 C269.85226562 16.72167969 269.85226562 16.72167969 271.359375 16.8203125 C272.77089844 16.89765625 272.77089844 16.89765625 274.2109375 16.9765625 C275.08024902 17.02893066 275.94956055 17.08129883 276.84521484 17.13525391 C279.21603496 17.22491212 279.21603496 17.22491212 281 15 C279.68 14.67 278.36 14.34 277 14 C277.33 13.34 277.66 12.68 278 12 C274.61896117 12 271.24811367 12.28444697 267.875 12.5 Z M283 10 C286.3 10 289.6 10 293 10 C293 10.99 293 11.98 293 13 C291.68 13 290.36 13 289 13 C289 12.34 289 11.68 289 11 C287.02 11 285.04 11 283 11 C283 10.67 283 10.34 283 10 Z " fill="#03030C" transform="translate(0,0)"/>
<path d="M0 0 C0.76316528 0.00359528 1.52633057 0.00719055 2.31262207 0.01089478 C3.51253029 0.01067574 3.51253029 0.01067574 4.73667908 0.01045227 C7.39344958 0.01115161 10.05015086 0.01894498 12.70690918 0.02676392 C14.54393984 0.02862802 16.38097099 0.03005196 18.21800232 0.03105164 C23.06284955 0.03487742 27.90766701 0.04470821 32.75250244 0.05575562 C37.69237871 0.06596845 42.63225978 0.07054898 47.57214355 0.07559204 C57.27202646 0.08633042 66.97188722 0.10340756 76.67175293 0.12442017 C76.67175293 1.77442017 76.67175293 3.42442017 76.67175293 5.12442017 C79.31175293 5.45442017 81.95175293 5.78442017 84.67175293 6.12442017 C84.67175293 7.11442017 84.67175293 8.10442017 84.67175293 9.12442017 C82.03175293 9.12442017 79.39175293 9.12442017 76.67175293 9.12442017 C76.34175293 11.10442017 76.01175293 13.08442017 75.67175293 15.12442017 C79.80148921 14.55702148 79.80148921 14.55702148 83.67175293 13.12442017 C85.34830022 13.40384471 87.01783447 13.73270264 88.67175293 14.12442017 C88.01175293 14.45442017 87.35175293 14.78442017 86.67175293 15.12442017 C85.94481389 17.10330977 85.27359042 19.10396574 84.67175293 21.12442017 C83.95501907 20.96365494 83.23828522 20.80288971 82.49983215 20.63725281 C79.75013361 20.13863341 77.21339757 19.96757528 74.42248535 19.9190979 C73.40180466 19.89915268 72.38112396 19.87920746 71.32951355 19.85865784 C70.23975723 19.84194534 69.15000092 19.82523285 68.02722168 19.80801392 C66.90229813 19.78723282 65.77737457 19.76645172 64.61836243 19.74504089 C61.03205353 19.67976225 57.44567266 19.62076118 53.85925293 19.56192017 C51.42500076 19.51871433 48.99075581 19.47509938 46.55651855 19.43106079 C40.59500565 19.32410307 34.63342147 19.22229666 28.67175293 19.12442017 C28.67175293 18.46442017 28.67175293 17.80442017 28.67175293 17.12442017 C21.08175293 17.12442017 13.49175293 17.12442017 5.67175293 17.12442017 C6.00175293 16.13442017 6.33175293 15.14442017 6.67175293 14.12442017 C7.33175293 14.12442017 7.99175293 14.12442017 8.67175293 14.12442017 C8.67175293 13.46442017 8.67175293 12.80442017 8.67175293 12.12442017 C0.69384759 11.52150154 -7.15173321 10.9813704 -15.15637207 11.28457642 C-17.32824707 11.12442017 -17.32824707 11.12442017 -20.32824707 9.12442017 C-20.32824707 8.46442017 -20.32824707 7.80442017 -20.32824707 7.12442017 C-21.64824707 7.12442017 -22.96824707 7.12442017 -24.32824707 7.12442017 C-23.99824707 6.13442017 -23.66824707 5.14442017 -23.32824707 4.12442017 C-18.37824707 4.45442017 -13.42824707 4.78442017 -8.32824707 5.12442017 C-7.66824707 3.80442017 -7.00824707 2.48442017 -6.32824707 1.12442017 C-4.5853253 -0.6185016 -2.32201212 0.00461713 0 0 Z M62.54675293 12.62442017 C61.79265137 12.67211548 61.0385498 12.71981079 60.26159668 12.76895142 C58.39828002 12.88688285 56.53501179 13.00557905 54.67175293 13.12442017 C54.67175293 13.78442017 54.67175293 14.44442017 54.67175293 15.12442017 C53.68175293 15.61942017 53.68175293 15.61942017 52.67175293 16.12442017 C56.12920315 16.34969313 59.58762318 16.55175561 63.04675293 16.74942017 C64.52401855 16.84609985 64.52401855 16.84609985 66.03112793 16.94473267 C67.44265137 17.02207642 67.44265137 17.02207642 68.88269043 17.10098267 C69.75200195 17.15335083 70.62131348 17.20571899 71.51696777 17.25967407 C73.88778789 17.34933229 73.88778789 17.34933229 75.67175293 15.12442017 C74.35175293 14.79442017 73.03175293 14.46442017 71.67175293 14.12442017 C72.00175293 13.46442017 72.33175293 12.80442017 72.67175293 12.12442017 C69.2907141 12.12442017 65.9198666 12.40886713 62.54675293 12.62442017 Z M-25.32824707 7.12442017 C-23.34824707 8.11442017 -23.34824707 8.11442017 -21.32824707 9.12442017 C-22.64824707 9.12442017 -23.96824707 9.12442017 -25.32824707 9.12442017 C-25.32824707 8.46442017 -25.32824707 7.80442017 -25.32824707 7.12442017 Z M77.67175293 10.12442017 C80.97175293 10.12442017 84.27175293 10.12442017 87.67175293 10.12442017 C87.67175293 11.11442017 87.67175293 12.10442017 87.67175293 13.12442017 C86.35175293 13.12442017 85.03175293 13.12442017 83.67175293 13.12442017 C83.67175293 12.46442017 83.67175293 11.80442017 83.67175293 11.12442017 C81.69175293 11.12442017 79.71175293 11.12442017 77.67175293 11.12442017 C77.67175293 10.79442017 77.67175293 10.46442017 77.67175293 10.12442017 Z " fill="#11111D" transform="translate(205.3282470703125,-0.124420166015625)"/>
<path d="M0 0 C25.08 0 50.16 0 76 0 C76 0.99 76 1.98 76 3 C71.71 3.33 67.42 3.66 63 4 C63 4.33 63 4.66 63 5 C63.33 4.67 63.66 4.34 64 4 C66.01964199 3.92755947 68.04167124 3.91622812 70.0625 3.9375 C71.16722656 3.94652344 72.27195312 3.95554688 73.41015625 3.96484375 C74.26480469 3.97644531 75.11945313 3.98804688 76 4 C76 4.99 76 5.98 76 7 C76.9590625 6.7525 76.9590625 6.7525 77.9375 6.5 C82.39499414 5.77224585 87.85965115 4.92982558 92 7 C92.33 6.01 92.66 5.02 93 4 C95.64 4 98.28 4 101 4 C99.97918798 7.06243607 99.55949546 8.14657225 97 10 C93.9375 10.1875 93.9375 10.1875 91 10 C88.93053177 9.93062311 88.93053177 9.93062311 86.67895508 10.49389648 C84.08541795 10.98386299 81.77071543 11.11464978 79.13671875 11.09765625 C77.80737305 11.09282227 77.80737305 11.09282227 76.45117188 11.08789062 C75.53916016 11.07951172 74.62714844 11.07113281 73.6875 11.0625 C72.75615234 11.05798828 71.82480469 11.05347656 70.86523438 11.04882812 C68.57675627 11.03709234 66.28841192 11.02067363 64 11 C63.67 11.66 63.34 12.32 63 13 C72.57 13 82.14 13 92 13 C92 13.66 92 14.32 92 15 C61.64 15 31.28 15 0 15 C0 10.05 0 5.1 0 0 Z " fill="#050510" transform="translate(0,0)"/>
<path d="M0 0 C8.58 0 17.16 0 26 0 C26 0.33 26 0.66 26 1 C22.7 1 19.4 1 16 1 C16 1.66 16 2.32 16 3 C23.92 2.505 23.92 2.505 32 2 C32 2.99 32 3.98 32 5 C31.01 5 30.02 5 29 5 C29 5.66 29 6.32 29 7 C27.35 7 25.7 7 24 7 C24 6.34 24 5.68 24 5 C21.69 5 19.38 5 17 5 C16.67 5.66 16.34 6.32 16 7 C10.72 7 5.44 7 0 7 C0 6.01 0 5.02 0 4 C-1.97986082 4.11347619 -3.95891598 4.2410935 -5.9375 4.375 C-7.03964844 4.44460937 -8.14179687 4.51421875 -9.27734375 4.5859375 C-10.62505859 4.79089844 -10.62505859 4.79089844 -12 5 C-12.33 5.66 -12.66 6.32 -13 7 C-13.66 6.67 -14.32 6.34 -15 6 C-15 5.34 -15 4.68 -15 4 C-12.11584117 2.55792059 -9.58278472 2.90605113 -6.375 2.9375 C-5.18648437 2.94652344 -3.99796875 2.95554688 -2.7734375 2.96484375 C-1.85820313 2.97644531 -0.94296875 2.98804688 0 3 C0 2.01 0 1.02 0 0 Z M30 6 C31.32 6 32.64 6 34 6 C34 6.99 34 7.98 34 9 C32.35 9 30.7 9 29 9 C29.33 8.01 29.66 7.02 30 6 Z M85.0625 5.9375 C86.5165625 5.9684375 86.5165625 5.9684375 88 6 C86 8 86 8 83 9 C96.86 9.495 96.86 9.495 111 10 C111.495 11.485 111.495 11.485 112 13 C109.36 13 106.72 13 104 13 C104 13.66 104 14.32 104 15 C102.02 15.33 100.04 15.66 98 16 C98 16.33 98 16.66 98 17 C78.53 17 59.06 17 39 17 C39 16.34 39 15.68 39 15 C36.69 15 34.38 15 32 15 C31.505 14.01 31.505 14.01 31 13 C29.02 13 27.04 13 25 13 C24.67 13.66 24.34 14.32 24 15 C21.36 15 18.72 15 16 15 C16 14.34 16 13.68 16 13 C6.1 13.33 -3.8 13.66 -14 14 C-14.33 13.34 -14.66 12.68 -15 12 C-11.76093862 9.84062575 -11.00073281 9.77151878 -7.2890625 9.875 C-6.37382813 9.89046875 -5.45859375 9.9059375 -4.515625 9.921875 C-2.59634845 9.97374734 -0.67707755 10.02582895 1.2421875 10.078125 C6.06722203 10.15944581 9.55098809 10.06131826 14 8 C14.99 8.33 15.98 8.66 17 9 C18.33106622 9.34227417 19.66400079 9.67751743 21 10 C21.33 9.01 21.66 8.02 22 7 C22.86625 7.309375 23.7325 7.61875 24.625 7.9375 C30.57013265 9.67303562 36.85139382 9.67594031 43 10 C42.67 10.99 42.34 11.98 42 13 C46.48133574 13.72256829 46.48133574 13.72256829 51 14 C50.01 13.01 50.01 13.01 49 12 C52.85410207 11.94152955 56.70808865 11.90624595 60.5625 11.875 C61.64853516 11.85824219 62.73457031 11.84148438 63.85351562 11.82421875 C69.64479442 11.78901341 74.54134642 12.01076326 80 14 C79.505 12.02 79.505 12.02 79 10 C76.69 9.67 74.38 9.34 72 9 C72 8.67 72 8.34 72 8 C72.95712891 7.90912109 72.95712891 7.90912109 73.93359375 7.81640625 C74.75988281 7.73261719 75.58617187 7.64882812 76.4375 7.5625 C77.26121094 7.48128906 78.08492188 7.40007813 78.93359375 7.31640625 C81.92980332 6.85762936 81.65764126 6.00698691 85.0625 5.9375 Z M63 10 C67.95 10 72.9 10 78 10 C78.33 10.99 78.66 11.98 79 13 C77.35 13 75.7 13 74 13 C74 12.34 74 11.68 74 11 C70.37 11 66.74 11 63 11 C63 10.67 63 10.34 63 10 Z " fill="#34343D" transform="translate(76,0)"/>
<path d="M0 0 C1.64510941 0.00015915 3.29022379 0.00585551 4.93530273 0.01586914 C6.23164894 0.01799156 6.23164894 0.01799156 7.55418396 0.02015686 C10.32578941 0.025773 13.09731528 0.0383282 15.86889648 0.05102539 C17.74324428 0.05603831 19.61759334 0.06060158 21.49194336 0.06469727 C26.09679192 0.07574767 30.70158069 0.09302309 35.30639648 0.11352539 C35.30639648 1.10352539 35.30639648 2.09352539 35.30639648 3.11352539 C33.32639648 3.11352539 31.34639648 3.11352539 29.30639648 3.11352539 C29.30639648 3.77352539 29.30639648 4.43352539 29.30639648 5.11352539 C30.11077148 5.09290039 30.91514648 5.07227539 31.74389648 5.05102539 C34.30639648 5.11352539 34.30639648 5.11352539 35.30639648 6.11352539 C36.21389648 5.78352539 37.12139648 5.45352539 38.05639648 5.11352539 C43.36823444 3.55830685 48.82660343 3.95156106 54.30639648 4.11352539 C54.30639648 5.10352539 54.30639648 6.09352539 54.30639648 7.11352539 C53.29319336 7.2044043 53.29319336 7.2044043 52.25952148 7.29711914 C50.92147461 7.42280273 50.92147461 7.42280273 49.55639648 7.55102539 C48.67467773 7.63223633 47.79295898 7.71344727 46.88452148 7.79711914 C44.34922968 8.04614198 44.34922968 8.04614198 42.11889648 8.70727539 C39.62564278 9.26610812 38.43236624 8.40429274 36.30639648 7.11352539 C36.30639648 7.77352539 36.30639648 8.43352539 36.30639648 9.11352539 C33.99639648 9.11352539 31.68639648 9.11352539 29.30639648 9.11352539 C29.30639648 9.77352539 29.30639648 10.43352539 29.30639648 11.11352539 C25.63972982 11.11352539 21.97306315 11.11352539 18.30639648 11.11352539 C18.30639648 8.80352539 18.30639648 6.49352539 18.30639648 4.11352539 C17.97639648 4.44352539 17.64639648 4.77352539 17.30639648 5.11352539 C17.30639648 5.77352539 17.30639648 6.43352539 17.30639648 7.11352539 C16.31639648 7.11352539 15.32639648 7.11352539 14.30639648 7.11352539 C14.30639648 6.45352539 14.30639648 5.79352539 14.30639648 5.11352539 C12.65639648 5.11352539 11.00639648 5.11352539 9.30639648 5.11352539 C9.30639648 4.12352539 9.30639648 3.13352539 9.30639648 2.11352539 C5.67639648 1.78352539 2.04639648 1.45352539 -1.69360352 1.11352539 C-0.37360352 1.77352539 0.94639648 2.43352539 2.30639648 3.11352539 C2.63639648 3.77352539 2.96639648 4.43352539 3.30639648 5.11352539 C1.65639648 5.11352539 0.00639648 5.11352539 -1.69360352 5.11352539 C-2.02360352 5.77352539 -2.35360352 6.43352539 -2.69360352 7.11352539 C-2.69360352 6.45352539 -2.69360352 5.79352539 -2.69360352 5.11352539 C-4.01360352 5.11352539 -5.33360352 5.11352539 -6.69360352 5.11352539 C-4.28301446 0.13164133 -4.28301446 0.13164133 0 0 Z M14.30639648 3.11352539 C14.63639648 3.77352539 14.96639648 4.43352539 15.30639648 5.11352539 C15.63639648 4.45352539 15.96639648 3.79352539 16.30639648 3.11352539 C15.64639648 3.11352539 14.98639648 3.11352539 14.30639648 3.11352539 Z M-21.69360352 4.11352539 C-19.25512901 4.22750083 -16.81847178 4.35423513 -14.38110352 4.48852539 C-13.69081055 4.51946289 -13.00051758 4.55040039 -12.28930664 4.58227539 C-8.62369563 4.79477458 -6.8145956 5.032864 -3.69360352 7.11352539 C-4.02360352 8.43352539 -4.35360352 9.75352539 -4.69360352 11.11352539 C-6.46410041 11.16763226 -8.235072 11.20636658 -10.00610352 11.23852539 C-11.48530273 11.27333008 -11.48530273 11.27333008 -12.99438477 11.30883789 C-15.69360352 11.11352539 -15.69360352 11.11352539 -18.69360352 9.11352539 C-18.69360352 8.45352539 -18.69360352 7.79352539 -18.69360352 7.11352539 C-20.01360352 7.11352539 -21.33360352 7.11352539 -22.69360352 7.11352539 C-22.36360352 6.12352539 -22.03360352 5.13352539 -21.69360352 4.11352539 Z M-23.69360352 7.11352539 C-21.71360352 8.10352539 -21.71360352 8.10352539 -19.69360352 9.11352539 C-21.01360352 9.11352539 -22.33360352 9.11352539 -23.69360352 9.11352539 C-23.69360352 8.45352539 -23.69360352 7.79352539 -23.69360352 7.11352539 Z M43.30639648 11.11352539 C39.34639648 11.11352539 35.38639648 11.11352539 31.30639648 11.11352539 C31.30639648 10.78352539 31.30639648 10.45352539 31.30639648 10.11352539 C38.80639648 8.86352539 38.80639648 8.86352539 43.30639648 11.11352539 Z " fill="#27272C" transform="translate(203.693603515625,-0.113525390625)"/>
<path d="M0 0 C0.67328842 -0.00014603 1.34657684 -0.00029205 2.04026794 -0.0004425 C4.26955366 0.00025512 6.4987562 0.0080405 8.72802734 0.01586914 C10.27216547 0.01773385 11.81630419 0.01915751 13.36044312 0.02015686 C17.42766957 0.02397785 21.49486039 0.03380457 25.56207275 0.04486084 C29.71113605 0.05508395 33.86020509 0.05965641 38.00927734 0.06469727 C46.15252287 0.0754272 54.29573943 0.09249862 62.43896484 0.11352539 C62.43896484 1.76352539 62.43896484 3.41352539 62.43896484 5.11352539 C43.62896484 5.11352539 24.81896484 5.11352539 5.43896484 5.11352539 C5.43896484 5.77352539 5.43896484 6.43352539 5.43896484 7.11352539 C3.47917057 6.83184242 1.52114106 6.53785822 -0.43603516 6.23852539 C-2.07185547 5.99489258 -2.07185547 5.99489258 -3.74072266 5.74633789 C-6.56103516 5.11352539 -6.56103516 5.11352539 -8.56103516 3.11352539 C-8.56103516 2.45352539 -8.56103516 1.79352539 -8.56103516 1.11352539 C-5.68359248 -0.32519595 -3.21537593 -0.00584614 0 0 Z " fill="#090914" transform="translate(288.56103515625,-0.113525390625)"/>
<path d="M0 0 C1.12591553 0.00523682 2.25183105 0.01047363 3.41186523 0.01586914 C4.62680664 0.0190918 5.84174805 0.02231445 7.09350586 0.02563477 C8.37290039 0.03401367 9.65229492 0.04239258 10.97045898 0.05102539 C12.2537207 0.05553711 13.53698242 0.06004883 14.85913086 0.06469727 C18.04211921 0.07652994 21.22501661 0.09301471 24.40795898 0.11352539 C24.40795898 1.76352539 24.40795898 3.41352539 24.40795898 5.11352539 C27.04795898 5.44352539 29.68795898 5.77352539 32.40795898 6.11352539 C32.40795898 7.10352539 32.40795898 8.09352539 32.40795898 9.11352539 C29.76795898 9.11352539 27.12795898 9.11352539 24.40795898 9.11352539 C24.07795898 11.09352539 23.74795898 13.07352539 23.40795898 15.11352539 C19.11795898 15.11352539 14.82795898 15.11352539 10.40795898 15.11352539 C10.40795898 14.78352539 10.40795898 14.45352539 10.40795898 14.11352539 C13.04795898 13.78352539 15.68795898 13.45352539 18.40795898 13.11352539 C13.12795898 13.11352539 7.84795898 13.11352539 2.40795898 13.11352539 C2.40795898 13.77352539 2.40795898 14.43352539 2.40795898 15.11352539 C0.42795898 15.44352539 -1.55204102 15.77352539 -3.59204102 16.11352539 C-2.93204102 15.78352539 -2.27204102 15.45352539 -1.59204102 15.11352539 C-1.92204102 13.79352539 -2.25204102 12.47352539 -2.59204102 11.11352539 C-1.27204102 10.78352539 0.04795898 10.45352539 1.40795898 10.11352539 C0.41795898 9.45352539 -0.57204102 8.79352539 -1.59204102 8.11352539 C1.70795898 7.78352539 5.00795898 7.45352539 8.40795898 7.11352539 C8.73795898 6.12352539 9.06795898 5.13352539 9.40795898 4.11352539 C8.41312696 2.89709247 8.41312696 2.89709247 6.45849609 3 C5.20951538 3.00785522 5.20951538 3.00785522 3.93530273 3.01586914 C2.58662109 3.02070312 2.58662109 3.02070312 1.21069336 3.02563477 C0.26516602 3.03401367 -0.68036133 3.04239258 -1.65454102 3.05102539 C-2.60393555 3.05553711 -3.55333008 3.06004883 -4.53149414 3.06469727 C-6.88507167 3.07652429 -9.23852579 3.09300514 -11.59204102 3.11352539 C-11.59204102 2.78352539 -11.59204102 2.45352539 -11.59204102 2.11352539 C-9.54125977 1.88566081 -7.49047852 1.65779622 -5.43969727 1.42993164 C-2.85608261 0.98749446 -2.86835426 0.12562727 0 0 Z " fill="#1B1B23" transform="translate(257.592041015625,-0.113525390625)"/>
<path d="M0 0 C4.3958194 -0.02907584 8.79161399 -0.0468244 13.1875 -0.0625 C14.43337891 -0.07087891 15.67925781 -0.07925781 16.96289062 -0.08789062 C18.16494141 -0.09111328 19.36699219 -0.09433594 20.60546875 -0.09765625 C22.26292114 -0.10551147 22.26292114 -0.10551147 23.95385742 -0.11352539 C27 0 27 0 29.30493164 0.5 C32.31656537 1.05873049 35.10421516 1.11986705 38.16723633 1.11352539 C39.38812454 1.11344986 40.60901276 1.11337433 41.86689758 1.11329651 C43.17539169 1.10813522 44.4838858 1.10297394 45.83203125 1.09765625 C47.19251961 1.09578961 48.55300865 1.09436687 49.91349792 1.09336853 C53.48255287 1.08956275 57.05156669 1.07974914 60.62060547 1.06866455 C64.26724695 1.05840863 67.91389511 1.05386197 71.56054688 1.04882812 C78.70704801 1.03812503 85.85352131 1.02107204 93 1 C93 1.99 93 2.98 93 4 C4.875 4 4.875 4 -1 3 C-0.67 2.01 -0.34 1.02 0 0 Z " fill="#080816" transform="translate(258,19)"/>
<path d="M0 0 C3.29159316 -0.05790353 6.58305603 -0.09356261 9.875 -0.125 C10.81214844 -0.14175781 11.74929688 -0.15851562 12.71484375 -0.17578125 C13.61074219 -0.18222656 14.50664062 -0.18867187 15.4296875 -0.1953125 C16.25710449 -0.20578613 17.08452148 -0.21625977 17.93701172 -0.22705078 C20 0 20 0 22 2 C22 1.34 22 0.68 22 0 C40.81 0 59.62 0 79 0 C79 0.99 79 1.98 79 3 C58.87 3.33 38.74 3.66 18 4 C18 3.01 18 2.02 18 1 C12.06 1 6.12 1 0 1 C0 0.67 0 0.34 0 0 Z M10 4 C12.64 4 15.28 4 18 4 C17.34 5.98 16.68 7.96 16 10 C13.69 10 11.38 10 9 10 C8.67 8.68 8.34 7.36 8 6 C8.66 6 9.32 6 10 6 C10 5.34 10 4.68 10 4 Z M6 8 C5.67 8.33 5.34 8.66 5 9 C6.32 9.66 7.64 10.32 9 11 C6.02129623 11.99290126 4.40817115 12.05524548 1.33203125 11.87890625 C-0.00698242 11.80639648 -0.00698242 11.80639648 -1.37304688 11.73242188 C-2.30181641 11.67634766 -3.23058594 11.62027344 -4.1875 11.5625 C-5.12787109 11.51029297 -6.06824219 11.45808594 -7.03710938 11.40429688 C-9.35841501 11.27468082 -11.67928409 11.13971819 -14 11 C-13.34 10.67 -12.68 10.34 -12 10 C-12 9.34 -12 8.68 -12 8 C-9.3753399 7.80569145 -6.75053235 7.61926762 -4.125 7.4375 C-3.00544922 7.35338867 -3.00544922 7.35338867 -1.86328125 7.26757812 C3.7734375 6.88671875 3.7734375 6.88671875 6 8 Z " fill="#020209" transform="translate(272,5)"/>
<path d="M0 0 C5.28 0 10.56 0 16 0 C15.67 0.66 15.34 1.32 15 2 C15.79664063 1.98839844 16.59328125 1.97679688 17.4140625 1.96484375 C27.93848858 1.87521968 27.93848858 1.87521968 33 3 C30.68055212 6.47917182 28.73630036 7.29429766 25 9 C25 9.99 25 10.98 25 12 C19.25 12.125 19.25 12.125 17 11 C17 12.32 17 13.64 17 15 C14.11584117 16.44207941 11.58278472 16.09394887 8.375 16.0625 C7.18648437 16.05347656 5.99796875 16.04445313 4.7734375 16.03515625 C3.85820312 16.02355469 2.94296875 16.01195313 2 16 C3.32 15.67 4.64 15.34 6 15 C6 14.34 6 13.68 6 13 C6.66 13 7.32 13 8 13 C8 12.01 8 11.02 8 10 C7.01 9.67 6.02 9.34 5 9 C5.33 8.34 5.66 7.68 6 7 C8.50390625 6.5859375 8.50390625 6.5859375 11.5625 6.375 C12.57441406 6.30023437 13.58632812 6.22546875 14.62890625 6.1484375 C15.41136719 6.09945313 16.19382813 6.05046875 17 6 C15.45763775 4.45763775 14.01543321 4.83063926 11.875 4.8125 C7.56231637 4.84700147 4.06950421 5.61463687 0 7 C-0.33 6.34 -0.66 5.68 -1 5 C-2.65 5 -4.3 5 -6 5 C-6 4.34 -6 3.68 -6 3 C-4.02 3 -2.04 3 0 3 C0 2.01 0 1.02 0 0 Z M-3 7 C-1 8 -1 8 -1 8 Z " fill="#020208" transform="translate(239,0)"/>
<path d="M0 0 C0.754021 0.03472412 1.50804199 0.06944824 2.28491211 0.10522461 C7.75589951 0.44339951 7.75589951 0.44339951 10 2.6875 C10 3.3475 10 4.0075 10 4.6875 C9.01 4.6875 8.02 4.6875 7 4.6875 C7 5.3475 7 6.0075 7 6.6875 C9.97 6.6875 12.94 6.6875 16 6.6875 C15 8.6875 15 8.6875 14 9.6875 C22.25 10.0175 30.5 10.3475 39 10.6875 C38.67 11.3475 38.34 12.0075 38 12.6875 C32.06 12.6875 26.12 12.6875 20 12.6875 C19.67 13.6775 19.34 14.6675 19 15.6875 C14.38 15.6875 9.76 15.6875 5 15.6875 C5.66 14.0375 6.32 12.3875 7 10.6875 C2.71 10.3575 -1.58 10.0275 -6 9.6875 C-6 9.3575 -6 9.0275 -6 8.6875 C-4.35 8.6875 -2.7 8.6875 -1 8.6875 C-1 7.6975 -1 6.7075 -1 5.6875 C-2.65 6.0175 -4.3 6.3475 -6 6.6875 C-5.67 5.3675 -5.34 4.0475 -5 2.6875 C-9.62 2.6875 -14.24 2.6875 -19 2.6875 C-19 2.0275 -19 1.3675 -19 0.6875 C-12.58247617 -0.22928912 -6.45503257 -0.34253417 0 0 Z M-21 2.6875 C-19 3.6875 -19 3.6875 -19 3.6875 Z M-11 6.6875 C-9.35 6.6875 -7.7 6.6875 -6 6.6875 C-6 7.3475 -6 8.0075 -6 8.6875 C-7.65 8.3575 -9.3 8.0275 -11 7.6875 C-11 7.3575 -11 7.0275 -11 6.6875 Z M-10 8.6875 C-8 9.6875 -8 9.6875 -8 9.6875 Z " fill="#020208" transform="translate(111,0.3125)"/>
<path d="M0 0 C1.06367294 0.00222061 2.12734589 0.00444122 3.22325134 0.00672913 C5.02500572 0.00684242 5.02500572 0.00684242 6.86315918 0.00695801 C8.17042465 0.01211929 9.47769012 0.01728058 10.8245697 0.02259827 C12.16835477 0.02446253 13.51214052 0.02588639 14.85592651 0.02688599 C18.39873622 0.0307105 21.94150515 0.0405402 25.48429871 0.05158997 C29.09706572 0.06180552 32.7098393 0.06638392 36.32261658 0.07142639 C43.41573225 0.08216254 50.50882019 0.09923816 57.60191345 0.12025452 C57.60191345 1.11025452 57.60191345 2.10025452 57.60191345 3.12025452 C50.09149652 3.16658366 42.58109439 3.20212666 35.07056713 3.22387886 C31.58316185 3.23431855 28.09585429 3.24848101 24.60850525 3.27113342 C20.59978799 3.29700964 16.59117348 3.30672575 12.5823822 3.31556702 C11.32918686 3.32588959 10.07599152 3.33621216 8.78482056 3.34684753 C7.04335503 3.34707413 7.04335503 3.34707413 5.26670837 3.3473053 C3.73115547 3.35396713 3.73115547 3.35396713 2.1645813 3.36076355 C-0.39808655 3.12025452 -0.39808655 3.12025452 -3.39808655 1.12025452 C-2.39808655 0.12025452 -2.39808655 0.12025452 0 0 Z " fill="#090918" transform="translate(293.39808654785156,7.8797454833984375)"/>
<path d="M0 0 C7.5276878 -0.0462929 15.05536088 -0.08185365 22.58315849 -0.10362434 C26.07843927 -0.11407198 29.57362283 -0.12824883 33.06884766 -0.15087891 C37.08497056 -0.17671953 41.10099097 -0.18646466 45.1171875 -0.1953125 C47.00472244 -0.21079636 47.00472244 -0.21079636 48.9303894 -0.22659302 C50.09144196 -0.22674408 51.25249451 -0.22689514 52.44873047 -0.22705078 C53.47465302 -0.231492 54.50057556 -0.23593323 55.55758667 -0.24050903 C58 -0 58 -0 60 2 C57.36284904 3.31857548 55.4016736 3.11991704 52.44873047 3.11352539 C51.28767792 3.11344986 50.12662537 3.11337433 48.9303894 3.11329651 C47.67203278 3.10813522 46.41367615 3.10297394 45.1171875 3.09765625 C43.83264679 3.0962413 42.54810608 3.09482635 41.22463989 3.09336853 C37.80843158 3.08954911 34.39226574 3.07972373 30.97607422 3.06866455 C27.49056574 3.05843807 24.0050504 3.05386826 20.51953125 3.04882812 C13.67967005 3.03810096 6.83983706 3.02103142 0 3 C0 2.01 0 1.02 0 0 Z " fill="#03030B" transform="translate(0,1)"/>
<path d="M0 0 C8.58 0 17.16 0 26 0 C26 0.33 26 0.66 26 1 C22.7 1 19.4 1 16 1 C16 1.66 16 2.32 16 3 C23.92 2.505 23.92 2.505 32 2 C32 2.99 32 3.98 32 5 C27.05 5 22.1 5 17 5 C16.67 5.66 16.34 6.32 16 7 C10.72 7 5.44 7 0 7 C0 6.01 0 5.02 0 4 C-1.97986082 4.11347619 -3.95891598 4.2410935 -5.9375 4.375 C-7.03964844 4.44460937 -8.14179687 4.51421875 -9.27734375 4.5859375 C-10.62505859 4.79089844 -10.62505859 4.79089844 -12 5 C-12.33 5.66 -12.66 6.32 -13 7 C-13.66 6.67 -14.32 6.34 -15 6 C-15 5.34 -15 4.68 -15 4 C-12.11584117 2.55792059 -9.58278472 2.90605113 -6.375 2.9375 C-5.18648437 2.94652344 -3.99796875 2.95554688 -2.7734375 2.96484375 C-1.85820313 2.97644531 -0.94296875 2.98804688 0 3 C0 2.01 0 1.02 0 0 Z " fill="#2F2F36" transform="translate(76,0)"/>
<path d="M0 0 C4.95 0 9.9 0 15 0 C14.67 0.99 14.34 1.98 14 3 C14.66 3.33 15.32 3.66 16 4 C16 4.66 16 5.32 16 6 C15.34 6 14.68 6 14 6 C14 6.66 14 7.32 14 8 C12.02 8 10.04 8 8 8 C10.31 8.33 12.62 8.66 15 9 C15.33 9.99 15.66 10.98 16 12 C15.42475586 11.8460376 14.84951172 11.6920752 14.25683594 11.53344727 C12.12373701 11.02924766 10.06675967 10.71213178 7.890625 10.46484375 C6.75947266 10.33432617 6.75947266 10.33432617 5.60546875 10.20117188 C4.82816406 10.11416016 4.05085937 10.02714844 3.25 9.9375 C2.45722656 9.84662109 1.66445312 9.75574219 0.84765625 9.66210938 C-1.10129277 9.4390369 -3.05061162 9.21919979 -5 9 C-4.67 8.01 -4.34 7.02 -4 6 C-4.33 5.34 -4.66 4.68 -5 4 C-2.36 3.67 0.28 3.34 3 3 C2.01 2.67 1.02 2.34 0 2 C0 1.34 0 0.68 0 0 Z M-2 2 C0 3 0 3 0 3 Z M16 2 C16.99 2.495 16.99 2.495 18 3 C17.01 3.495 17.01 3.495 16 4 C16 3.34 16 2.68 16 2 Z M17 7 C17.66 7.33 18.32 7.66 19 8 C19 8.66 19 9.32 19 10 C18.01 10 17.02 10 16 10 C16.33 9.01 16.66 8.02 17 7 Z " fill="#424247" transform="translate(202,1)"/>
<path d="M0 0 C6.6 0 13.2 0 20 0 C19.67 1.65 19.34 3.3 19 5 C20.89575251 5.02721176 22.79161979 5.04649136 24.6875 5.0625 C26.27111328 5.07990234 26.27111328 5.07990234 27.88671875 5.09765625 C30.72410262 5.00865425 33.2438919 4.64939838 36 4 C35.6875 6.375 35.6875 6.375 35 9 C31.2632157 11.49118953 29.25548181 11.2065226 24.8125 11.125 C23.54019531 11.10695313 22.26789063 11.08890625 20.95703125 11.0703125 C19.49330078 11.03550781 19.49330078 11.03550781 18 11 C18 10.67 18 10.34 18 10 C15.36 9.67 12.72 9.34 10 9 C10 8.67 10 8.34 10 8 C10.71027344 8.01160156 11.42054687 8.02320313 12.15234375 8.03515625 C13.07144531 8.04417969 13.99054688 8.05320312 14.9375 8.0625 C16.31228516 8.07990234 16.31228516 8.07990234 17.71484375 8.09765625 C19.96593327 8.25949049 19.96593327 8.25949049 21 7 C18.03 7 15.06 7 12 7 C12.33 5.35 12.66 3.7 13 2 C8.71 1.67 4.42 1.34 0 1 C0 0.67 0 0.34 0 0 Z " fill="#4A4A50" transform="translate(106,0)"/>
<path d="M0 0 C0.67328842 -0.00014603 1.34657684 -0.00029205 2.04026794 -0.0004425 C4.26955366 0.00025512 6.4987562 0.0080405 8.72802734 0.01586914 C10.27216547 0.01773385 11.81630419 0.01915751 13.36044312 0.02015686 C17.42766957 0.02397785 21.49486039 0.03380457 25.56207275 0.04486084 C29.71113605 0.05508395 33.86020509 0.05965641 38.00927734 0.06469727 C46.15252287 0.0754272 54.29573943 0.09249862 62.43896484 0.11352539 C62.43896484 0.77352539 62.43896484 1.43352539 62.43896484 2.11352539 C53.47721396 2.29035718 44.5153477 2.45632149 35.55314064 2.60830116 C31.39191316 2.67921057 27.23082446 2.75390355 23.06982422 2.8371582 C19.05642859 2.91732173 15.04297141 2.98765784 11.0292778 3.05109787 C9.49576821 3.07708008 7.96231506 3.10664109 6.42894363 3.13978958 C4.28600019 3.18551252 2.14321146 3.2186614 0 3.2487793 C-1.22133636 3.27098541 -2.44267273 3.29319153 -3.70101929 3.31607056 C-6.56103516 3.11352539 -6.56103516 3.11352539 -8.56103516 1.11352539 C-5.68359248 -0.32519595 -3.21537593 -0.00584614 0 0 Z M-8.56103516 3.11352539 C-6.56103516 4.11352539 -6.56103516 4.11352539 -6.56103516 4.11352539 Z " fill="#070713" transform="translate(288.56103515625,-0.113525390625)"/>
<path d="M0 0 C11.22 0 22.44 0 34 0 C34 0.33 34 0.66 34 1 C30.7 1.33 27.4 1.66 24 2 C23.627322 6.627322 23.627322 6.627322 25 9 C21.7 9 18.4 9 15 9 C15.33 7.35 15.66 5.7 16 4 C13.6568787 4.25561323 11.32156597 4.59270772 9 5 C8.67 5.66 8.34 6.32 8 7 C5.36 7 2.72 7 0 7 C0 4.69 0 2.38 0 0 Z " fill="#45454A" transform="translate(149,0)"/>
<path d="M0 0 C21.12 0 42.24 0 64 0 C63.67 0.99 63.34 1.98 63 3 C62.29651932 2.83923477 61.59303864 2.67846954 60.86824036 2.51283264 C57.89641928 1.98148008 55.12565971 1.84069634 52.1081543 1.79467773 C50.94732834 1.77473251 49.78650238 1.75478729 48.59049988 1.73423767 C47.34762711 1.71752518 46.10475433 1.70081268 44.82421875 1.68359375 C42.90377495 1.6524221 42.90377495 1.6524221 40.9445343 1.62062073 C37.55310271 1.56562428 34.16161265 1.51611688 30.77008057 1.46777344 C27.30435021 1.41739384 23.83870397 1.36179399 20.37304688 1.30664062 C13.5820984 1.19962571 6.79108669 1.09782866 0 1 C0 0.67 0 0.34 0 0 Z M60 3 C60 3.66 60 4.32 60 5 C40.2 5 20.4 5 0 5 C0 4.67 0 4.34 0 4 C7.527716 3.86941364 15.05543518 3.73901226 22.58315849 3.60884857 C26.07838981 3.54840583 29.57361998 3.48789881 33.06884766 3.42724609 C37.08495766 3.35755729 41.10107242 3.28814591 45.1171875 3.21875 C46.37554413 3.19687622 47.63390076 3.17500244 48.9303894 3.15246582 C50.09144196 3.13244507 51.25249451 3.11242432 52.44873047 3.09179688 C53.47465302 3.07403198 54.50057556 3.05626709 55.55758667 3.03796387 C57.03826633 3.01494879 58.51914149 3 60 3 Z " fill="#0F0F25" transform="translate(0,0)"/>
<path d="M0 0 C1.4540625 0.0309375 1.4540625 0.0309375 2.9375 0.0625 C0.9375 2.0625 0.9375 2.0625 -2.0625 3.0625 C11.7975 3.5575 11.7975 3.5575 25.9375 4.0625 C26.4325 5.5475 26.4325 5.5475 26.9375 7.0625 C24.2975 7.0625 21.6575 7.0625 18.9375 7.0625 C18.9375 7.7225 18.9375 8.3825 18.9375 9.0625 C13.91624074 9.84166092 9.96046004 10.19266601 4.9375 9.0625 C4.9375 8.7325 4.9375 8.4025 4.9375 8.0625 C1.6375 7.7325 -1.6625 7.4025 -5.0625 7.0625 C-5.3925 6.0725 -5.7225 5.0825 -6.0625 4.0625 C-8.3725 3.7325 -10.6825 3.4025 -13.0625 3.0625 C-13.0625 2.7325 -13.0625 2.4025 -13.0625 2.0625 C-12.10537109 1.97162109 -12.10537109 1.97162109 -11.12890625 1.87890625 C-9.88947266 1.75322266 -9.88947266 1.75322266 -8.625 1.625 C-7.80128906 1.54378906 -6.97757813 1.46257813 -6.12890625 1.37890625 C-3.13269668 0.92012936 -3.40485874 0.06948691 0 0 Z " fill="#6D6D74" transform="translate(161.0625,5.9375)"/>
<path d="M0 0 C9.24 0 18.48 0 28 0 C28 0.66 28 1.32 28 2 C48.46 2 68.92 2 90 2 C90 2.33 90 2.66 90 3 C60.3 3 30.6 3 0 3 C0 2.01 0 1.02 0 0 Z " fill="#09091B" transform="translate(261,24)"/>
<path d="M0 0 C2.0625 0.4375 2.0625 0.4375 4 1 C3.67 1.33 3.34 1.66 3 2 C3.99 2.33 4.98 2.66 6 3 C6.33 3.66 6.66 4.32 7 5 C5.35 5 3.7 5 2 5 C1.67 5.66 1.34 6.32 1 7 C1 6.34 1 5.68 1 5 C-0.32 5 -1.64 5 -3 5 C-1.125 1.125 -1.125 1.125 0 0 Z M-18 4 C-15.56152549 4.11397544 -13.12486826 4.24070974 -10.6875 4.375 C-9.99720703 4.4059375 -9.30691406 4.436875 -8.59570312 4.46875 C-4.93009211 4.68124919 -3.12099208 4.91933861 0 7 C-0.33 8.32 -0.66 9.64 -1 11 C-2.77049689 11.05410687 -4.54146849 11.09284119 -6.3125 11.125 C-7.79169922 11.15980469 -7.79169922 11.15980469 -9.30078125 11.1953125 C-12 11 -12 11 -15 9 C-15 8.34 -15 7.68 -15 7 C-16.32 7 -17.64 7 -19 7 C-18.67 6.01 -18.34 5.02 -18 4 Z M-20 7 C-18.02 7.99 -18.02 7.99 -16 9 C-17.32 9 -18.64 9 -20 9 C-20 8.34 -20 7.68 -20 7 Z " fill="#39393E" transform="translate(200,0)"/>
<path d="M0 0 C1.12591553 0.00523682 2.25183105 0.01047363 3.41186523 0.01586914 C4.62680664 0.0190918 5.84174805 0.02231445 7.09350586 0.02563477 C8.37290039 0.03401367 9.65229492 0.04239258 10.97045898 0.05102539 C12.2537207 0.05553711 13.53698242 0.06004883 14.85913086 0.06469727 C18.04211921 0.07652994 21.22501661 0.09301471 24.40795898 0.11352539 C24.40795898 2.42352539 24.40795898 4.73352539 24.40795898 7.11352539 C19.45795898 7.11352539 14.50795898 7.11352539 9.40795898 7.11352539 C9.07795898 5.79352539 8.74795898 4.47352539 8.40795898 3.11352539 C1.80795898 3.11352539 -4.79204102 3.11352539 -11.59204102 3.11352539 C-11.59204102 2.78352539 -11.59204102 2.45352539 -11.59204102 2.11352539 C-9.54125977 1.88566081 -7.49047852 1.65779622 -5.43969727 1.42993164 C-2.85608261 0.98749446 -2.86835426 0.12562727 0 0 Z " fill="#6B6B70" transform="translate(257.592041015625,-0.113525390625)"/>
<path d="M0 0 C-1.16015625 2.46508789 -1.16015625 2.46508789 -3 5 C-5.49609375 5.59936523 -5.49609375 5.59936523 -8.4375 5.55859375 C-10.02691406 5.54795898 -10.02691406 5.54795898 -11.6484375 5.53710938 C-13.30746094 5.48780273 -13.30746094 5.48780273 -15 5.4375 C-16.10601562 5.43169922 -17.21203125 5.42589844 -18.3515625 5.41992188 C-26.55729167 5.29513889 -26.55729167 5.29513889 -30 3 C-30 2.34 -30 1.68 -30 1 C-19.97112823 0.0232751 -10.06604235 -0.10849626 0 0 Z M-30 5 C-27 6 -27 6 -27 6 Z " fill="#11111B" transform="translate(200,0)"/>
<path d="M0 0 C1.01320312 0.00902344 2.02640625 0.01804687 3.0703125 0.02734375 C5.54712801 0.05070993 8.02343379 0.08346832 10.5 0.125 C9.5 3.125 9.5 3.125 7.83105469 4.30029297 C4.84916389 5.3552602 2.36546703 5.35014592 -0.796875 5.3203125 C-2.60478516 5.31064453 -2.60478516 5.31064453 -4.44921875 5.30078125 C-6.33060547 5.27564453 -6.33060547 5.27564453 -8.25 5.25 C-9.51972656 5.24097656 -10.78945312 5.23195313 -12.09765625 5.22265625 C-15.23196093 5.19909005 -18.36588541 5.16618832 -21.5 5.125 C-19.20834461 1.68751691 -17.85674749 1.33027081 -13.93359375 0.47363281 C-9.29900298 -0.19031137 -4.67133768 -0.07969474 0 0 Z " fill="#050515" transform="translate(201.5,11.875)"/>
<path d="M0 0 C11.55 0 23.1 0 35 0 C35 0.99 35 1.98 35 3 C33.02 3 31.04 3 29 3 C29 3.66 29 4.32 29 5 C27.35 5 25.7 5 24 5 C23.67 3.68 23.34 2.36 23 1 C23 1.66 23 2.32 23 3 C21.02 3 19.04 3 17 3 C17 4.32 17 5.64 17 7 C16.01 7 15.02 7 14 7 C14 6.34 14 5.68 14 5 C12.35 5 10.7 5 9 5 C9 4.01 9 3.02 9 2 C6.03 1.67 3.06 1.34 0 1 C0 0.67 0 0.34 0 0 Z M14 3 C14.33 3.66 14.66 4.32 15 5 C15.33 4.34 15.66 3.68 16 3 C15.34 3 14.68 3 14 3 Z " fill="#606067" transform="translate(204,0)"/>
<path d="M0 0 C3.77076889 -0.05799124 7.54142334 -0.09359306 11.3125 -0.125 C12.38435547 -0.14175781 13.45621094 -0.15851562 14.56054688 -0.17578125 C15.58857422 -0.18222656 16.61660156 -0.18867187 17.67578125 -0.1953125 C18.62364502 -0.20578613 19.57150879 -0.21625977 20.5480957 -0.22705078 C23 0 23 0 26 2 C22.68929162 3.00109515 19.69915231 3.10356134 16.25 3.0625 C15.26515625 3.05347656 14.2803125 3.04445312 13.265625 3.03515625 C12.51796875 3.02355469 11.7703125 3.01195312 11 3 C11 3.66 11 4.32 11 5 C6.32798795 6.20568053 1.78503708 6.09382426 -3 6 C-2.34 5.67 -1.68 5.34 -1 5 C-0.34444881 2.47266765 -0.34444881 2.47266765 0 0 Z " fill="#1D1D27" transform="translate(126,0)"/>
<path d="M0 0 C22.44 0 44.88 0 68 0 C68 0.33 68 0.66 68 1 C49.19 1 30.38 1 11 1 C11 1.66 11 2.32 11 3 C7.04 3 3.08 3 -1 3 C-0.67 2.01 -0.34 1.02 0 0 Z " fill="#090921" transform="translate(283,2)"/>
<path d="M0 0 C1.32 0.33 2.64 0.66 4 1 C4 2.98 4 4.96 4 7 C4.66 7.33 5.32 7.66 6 8 C6 7.34 6 6.68 6 6 C7.65 6 9.3 6 11 6 C11.33 6.99 11.66 7.98 12 9 C10.25021843 9.16894443 8.50016388 9.33506309 6.75 9.5 C5.77546875 9.5928125 4.8009375 9.685625 3.796875 9.78125 C1.53697847 9.95800168 -0.73320193 10 -3 10 C-3 8 -3 8 -1 6 C-1.66 6 -2.32 6 -3 6 C-3 4 -3 4 -1 2 C-0.67 1.34 -0.34 0.68 0 0 Z M-11 4 C-10.67 4.66 -10.34 5.32 -10 6 C-8.35 6 -6.7 6 -5 6 C-4.67 5.34 -4.34 4.68 -4 4 C-3.67 5.32 -3.34 6.64 -3 8 C-5.97 7.67 -8.94 7.34 -12 7 C-11.67 6.01 -11.34 5.02 -11 4 Z M19 4 C20.32 4.33 21.64 4.66 23 5 C22.67 5.66 22.34 6.32 22 7 C19.71484375 7.4140625 19.71484375 7.4140625 16.9375 7.625 C16.01839844 7.69976562 15.09929687 7.77453125 14.15234375 7.8515625 C13.44207031 7.90054687 12.73179687 7.94953125 12 8 C12 7.34 12 6.68 12 6 C14.31 6 16.62 6 19 6 C19 5.34 19 4.68 19 4 Z M-5 10 C-3 11 -3 11 -3 11 Z M4 10 C6 11 6 11 6 11 Z " fill="#000000" transform="translate(221,3)"/>
<path d="M0 0 C2.31 0 4.62 0 7 0 C7 0.99 7 1.98 7 3 C7.66 3.66 8.32 4.32 9 5 C-6.51 5 -22.02 5 -38 5 C-38 4.67 -38 4.34 -38 4 C-25.79 3.67 -13.58 3.34 -1 3 C-0.67 2.01 -0.34 1.02 0 0 Z " fill="#050517" transform="translate(101,12)"/>
<path d="M0 0 C0.74886475 0.00523682 1.49772949 0.01047363 2.26928711 0.01586914 C3.07817383 0.0190918 3.88706055 0.02231445 4.72045898 0.02563477 C5.5705957 0.03401367 6.42073242 0.04239258 7.29663086 0.05102539 C8.15063477 0.05553711 9.00463867 0.06004883 9.88452148 0.06469727 C12.00108749 0.07652166 14.11761771 0.0944577 16.23413086 0.11352539 C16.23413086 0.44352539 16.23413086 0.77352539 16.23413086 1.11352539 C13.59413086 1.11352539 10.95413086 1.11352539 8.23413086 1.11352539 C7.90413086 3.09352539 7.57413086 5.07352539 7.23413086 7.11352539 C2.94413086 7.11352539 -1.34586914 7.11352539 -5.76586914 7.11352539 C-5.76586914 6.78352539 -5.76586914 6.45352539 -5.76586914 6.11352539 C-4.80874023 6.04004883 -4.80874023 6.04004883 -3.83227539 5.96508789 C-3.00598633 5.89032227 -2.17969727 5.81555664 -1.32836914 5.73852539 C-0.5046582 5.66891602 0.31905273 5.59930664 1.16772461 5.52758789 C2.1905957 5.32262695 2.1905957 5.32262695 3.23413086 5.11352539 C3.56413086 4.45352539 3.89413086 3.79352539 4.23413086 3.11352539 C0.60413086 3.11352539 -3.02586914 3.11352539 -6.76586914 3.11352539 C-5.44586914 2.45352539 -4.12586914 1.79352539 -2.76586914 1.11352539 C-1.76586914 0.11352539 -1.76586914 0.11352539 0 0 Z " fill="#41414C" transform="translate(273.765869140625,7.886474609375)"/>
<path d="M0 0 C1.65322266 0.01740234 1.65322266 0.01740234 3.33984375 0.03515625 C4.99693359 0.04869141 4.99693359 0.04869141 6.6875 0.0625 C7.54214844 0.07410156 8.39679688 0.08570313 9.27734375 0.09765625 C9.27734375 1.08765625 9.27734375 2.07765625 9.27734375 3.09765625 C8.61734375 3.09765625 7.95734375 3.09765625 7.27734375 3.09765625 C7.27734375 3.75765625 7.27734375 4.41765625 7.27734375 5.09765625 C3.64734375 5.09765625 0.01734375 5.09765625 -3.72265625 5.09765625 C-3.72265625 5.75765625 -3.72265625 6.41765625 -3.72265625 7.09765625 C-4.38265625 6.76765625 -5.04265625 6.43765625 -5.72265625 6.09765625 C-3.42464819 0.1228353 -3.42464819 0.1228353 0 0 Z " fill="#13131F" transform="translate(66.72265625,3.90234375)"/>
<path d="M0 0 C7.92 0 15.84 0 24 0 C24 0.33 24 0.66 24 1 C21.36 1 18.72 1 16 1 C15.67 1.99 15.34 2.98 15 4 C4.27475338 4.56229448 4.27475338 4.56229448 0 1 C0 0.67 0 0.34 0 0 Z " fill="#4D4D54" transform="translate(125,12)"/>
<path d="M0 0 C3.3 0 6.6 0 10 0 C10 0.99 10 1.98 10 3 C8.68 3 7.36 3 6 3 C6 2.34 6 1.68 6 1 C4.02 1 2.04 1 0 1 C0 0.67 0 0.34 0 0 Z M4 3 C6.31 3.33 8.62 3.66 11 4 C10.01 4.495 10.01 4.495 9 5 C8.34786708 7.02463255 8.34786708 7.02463255 8 9 C6.68 9 5.36 9 4 9 C4 8.34 4 7.68 4 7 C1.36 7 -1.28 7 -4 7 C-1.4345406 4.4345406 0.47686668 4.45953913 4 4 C4 3.67 4 3.34 4 3 Z M2 9 C4.475 9.495 4.475 9.495 7 10 C5.68 10.33 4.36 10.66 3 11 C2.67 10.34 2.34 9.68 2 9 Z " fill="#49494F" transform="translate(283,10)"/>
<path d="M0 0 C0.99 0.33 1.98 0.66 3 1 C4.48123547 1.0806622 5.96582204 1.10761193 7.44921875 1.09765625 C8.29677734 1.09443359 9.14433594 1.09121094 10.01757812 1.08789062 C11.33918945 1.07532227 11.33918945 1.07532227 12.6875 1.0625 C13.58017578 1.05798828 14.47285156 1.05347656 15.39257812 1.04882812 C17.59511987 1.03704983 19.79752599 1.02060164 22 1 C20 3 20 3 16.3046875 3.1953125 C14.82799892 3.182009 13.35137642 3.15814835 11.875 3.125 C11.12089844 3.11597656 10.36679687 3.10695313 9.58984375 3.09765625 C7.72642746 3.0740687 5.86317407 3.03819719 4 3 C4 3.66 4 4.32 4 5 C2.02 5.33 0.04 5.66 -2 6 C-1.34 5.67 -0.68 5.34 0 5 C-0.2784375 4.0409375 -0.2784375 4.0409375 -0.5625 3.0625 C-0.7790625 2.0415625 -0.7790625 2.0415625 -1 1 C-0.67 0.67 -0.34 0.34 0 0 Z " fill="#181825" transform="translate(256,10)"/>
<path d="M0 0 C3.96 0 7.92 0 12 0 C12 0.99 12 1.98 12 3 C7.71 3 3.42 3 -1 3 C-0.67 2.01 -0.34 1.02 0 0 Z M-3 3 C-0.525 3.495 -0.525 3.495 2 4 C0.68 4.33 -0.64 4.66 -2 5 C-2.33 4.34 -2.66 3.68 -3 3 Z M1 7 C-2.96 7 -6.92 7 -11 7 C-11 6.67 -11 6.34 -11 6 C-3.5 4.75 -3.5 4.75 1 7 Z " fill="#6B6B70" transform="translate(246,4)"/>
<path d="M0 0 C4.95 0 9.9 0 15 0 C15 0.33 15 0.66 15 1 C12.03 1 9.06 1 6 1 C6 2.32 6 3.64 6 5 C2.04 5 -1.92 5 -6 5 C-6 4.34 -6 3.68 -6 3 C-4.02 3 -2.04 3 0 3 C0 2.01 0 1.02 0 0 Z " fill="#181825" transform="translate(239,0)"/>
<path d="M0 0 C0.33 0.33 0.66 0.66 1 1 C2.99958364 1.04080783 5.00045254 1.04254356 7 1 C7 1.33 7 1.66 7 2 C5.35 2 3.7 2 2 2 C2 2.66 2 3.32 2 4 C-0.31 4 -2.62 4 -5 4 C-5 4.66 -5 5.32 -5 6 C-6.65 6 -8.3 6 -10 6 C-10 4.35 -10 2.7 -10 1 C-6.60169639 0.22324489 -3.48880949 -0.19382275 0 0 Z " fill="#42424C" transform="translate(238,5)"/>
<path d="M0 0 C1.50433594 0.01353516 1.50433594 0.01353516 3.0390625 0.02734375 C3.80992187 0.03894531 4.58078125 0.05054688 5.375 0.0625 C5.045 1.0525 4.715 2.0425 4.375 3.0625 C2.395 3.3925 0.415 3.7225 -1.625 4.0625 C-1.625 5.0525 -1.625 6.0425 -1.625 7.0625 C-2.945 6.7325 -4.265 6.4025 -5.625 6.0625 C-5.625 5.4025 -5.625 4.7425 -5.625 4.0625 C-4.965 3.7325 -4.305 3.4025 -3.625 3.0625 C-4.945 2.4025 -6.265 1.7425 -7.625 1.0625 C-4.98041621 -0.25979189 -2.94738699 -0.03427194 0 0 Z " fill="#5B5B5E" transform="translate(240.625,11.9375)"/>
<path d="M0 0 C-1.7890625 3.890625 -1.7890625 3.890625 -3.6875 4.875 C-7.04055779 5.05624637 -9.83571466 4.0344779 -13 3 C-9.21656826 -0.94792877 -5.07874402 -0.29300446 0 0 Z " fill="#10101A" transform="translate(90,6)"/>
<path d="M0 0 C4.95 0 9.9 0 15 0 C14.67 0.99 14.34 1.98 14 3 C9.5732274 5.04312582 4.40702235 3.46900745 0 2 C0 1.34 0 0.68 0 0 Z M-2 2 C0 3 0 3 0 3 Z M8 4 C10 5 10 5 10 5 Z " fill="#000002" transform="translate(202,1)"/>
<path d="M0 0 C2.64 0 5.28 0 8 0 C7.979375 0.78375 7.95875 1.5675 7.9375 2.375 C7.81315937 4.98114961 7.81315937 4.98114961 9 7 C5.7 7 2.4 7 -1 7 C-0.67 4.69 -0.34 2.38 0 0 Z " fill="#7A7A83" transform="translate(165,2)"/>
<path d="M0 0 C1.32 0 2.64 0 4 0 C4 0.99 4 1.98 4 3 C2.35 3 0.7 3 -1 3 C-0.67 2.01 -0.34 1.02 0 0 Z M-3 3 C-1.35 3.33 0.3 3.66 2 4 C1.67 4.99 1.34 5.98 1 7 C-2.63 7 -6.26 7 -10 7 C-10 6.67 -10 6.34 -10 6 C-8.02 6 -6.04 6 -4 6 C-3.67 5.01 -3.34 4.02 -3 3 Z " fill="#59595E" transform="translate(101,4)"/>
<path d="M0 0 C2.4375 2 2.4375 2 4 4 C2.27119018 4.05449838 0.54187288 4.09301688 -1.1875 4.125 C-2.15042969 4.14820313 -3.11335937 4.17140625 -4.10546875 4.1953125 C-7.12812778 3.9913544 -9.26769985 3.26874632 -12 2 C-12 1.67 -12 1.34 -12 1 C-7.92627115 0.01242937 -4.18508673 -0.38046243 0 0 Z " fill="#12111B" transform="translate(170,13)"/>
<path d="M0 0 C3.63 0 7.26 0 11 0 C11 0.99 11 1.98 11 3 C7.04 3 3.08 3 -1 3 C-0.67 2.01 -0.34 1.02 0 0 Z " fill="#232330" transform="translate(283,2)"/>
<path d="M0 0 C6.6 0 13.2 0 20 0 C20 0.99 20 1.98 20 3 C19.113125 2.855625 18.22625 2.71125 17.3125 2.5625 C11.57406419 1.73256094 5.78045724 1.40854359 0 1 C0 0.67 0 0.34 0 0 Z M13 3 C15 4 15 4 15 4 Z " fill="#504F56" transform="translate(106,0)"/>
<path d="M0 0 C-0.99 0.495 -0.99 0.495 -2 1 C-2 1.66 -2 2.32 -2 3 C-7.02125926 3.77916092 -10.97703996 4.13016601 -16 3 C-16 2.67 -16 2.34 -16 2 C-10.51324804 0.13216954 -5.77807024 -0.2358396 0 0 Z " fill="#58585F" transform="translate(182,12)"/>
<path d="M0 0 C-0.99 0.495 -0.99 0.495 -2 1 C-2 1.66 -2 2.32 -2 3 C-6.97063121 3.91297308 -11.02936879 3.91297308 -16 3 C-16 2.67 -16 2.34 -16 2 C-10.42932723 0.40837921 -5.78898419 -0.20674944 0 0 Z " fill="#44444E" transform="translate(198,12)"/>
<path d="M0 0 C0 0.99 0 1.98 0 3 C-1.98 3 -3.96 3 -6 3 C-6 3.66 -6 4.32 -6 5 C-7.65 5 -9.3 5 -11 5 C-11 4.01 -11 3.02 -11 2 C-7.17010894 0.19769832 -4.21878192 -0.19622241 0 0 Z " fill="#43434C" transform="translate(239,0)"/>
<path d="M0 0 C2.97 0 5.94 0 9 0 C9 0.99 9 1.98 9 3 C7.35 3 5.7 3 4 3 C4 3.66 4 4.32 4 5 C2.68 4.67 1.36 4.34 0 4 C0 2.68 0 1.36 0 0 Z " fill="#5C5C61" transform="translate(149,0)"/>
<path d="M0 0 C1.65 0 3.3 0 5 0 C4.67 1.65 4.34 3.3 4 5 C-0.29 5 -4.58 5 -9 5 C-9 4.67 -9 4.34 -9 4 C-4.545 3.505 -4.545 3.505 0 3 C0 2.01 0 1.02 0 0 Z " fill="#53535D" transform="translate(277,10)"/>
<path d="M0 0 C3.3 0 6.6 0 10 0 C7 3 7 3 4.73828125 3.29296875 C3.93777344 3.25816406 3.13726562 3.22335937 2.3125 3.1875 C1.10013672 3.14689453 1.10013672 3.14689453 -0.13671875 3.10546875 C-1.05904297 3.05326172 -1.05904297 3.05326172 -2 3 C-1.34 2.67 -0.68 2.34 0 2 C0 1.34 0 0.68 0 0 Z " fill="#020207" transform="translate(125,3)"/>
<path d="M0 0 C2.97 0 5.94 0 9 0 C8.67 0.99 8.34 1.98 8 3 C5.36 3 2.72 3 0 3 C0 2.01 0 1.02 0 0 Z " fill="#69696D" transform="translate(92,12)"/>
<path d="M0 0 C0.99 0.495 0.99 0.495 2 1 C1.01 1.495 1.01 1.495 0 2 C0 1.34 0 0.68 0 0 Z M-6 2 C-4.02 2 -2.04 2 0 2 C0 2.66 0 3.32 0 4 C-0.66 4 -1.32 4 -2 4 C-2 4.66 -2 5.32 -2 6 C-3.65 6 -5.3 6 -7 6 C-6.67 4.68 -6.34 3.36 -6 2 Z " fill="#35353A" transform="translate(218,3)"/>
<path d="M0 0 C2.31 0 4.62 0 7 0 C7 0.99 7 1.98 7 3 C4.36 3 1.72 3 -1 3 C-0.67 2.01 -0.34 1.02 0 0 Z M-3 3 C-1 4 -1 4 -1 4 Z " fill="#050513" transform="translate(259,2)"/>
<path d="M0 0 C4.29 0 8.58 0 13 0 C13 0.33 13 0.66 13 1 C10.03 1 7.06 1 4 1 C4 1.66 4 2.32 4 3 C2.35 2.67 0.7 2.34 -1 2 C-0.67 1.34 -0.34 0.68 0 0 Z " fill="#3F3F4A" transform="translate(259,20)"/>
<path d="M0 0 C1.4540625 0.0309375 1.4540625 0.0309375 2.9375 0.0625 C0.55317602 2.44682398 -0.80046244 3.16023429 -4.0625 4.0625 C-7.09833453 3.93515795 -10.06436905 3.5458588 -13.0625 3.0625 C-13.0625 2.7325 -13.0625 2.4025 -13.0625 2.0625 C-12.10537109 1.97162109 -12.10537109 1.97162109 -11.12890625 1.87890625 C-9.88947266 1.75322266 -9.88947266 1.75322266 -8.625 1.625 C-7.80128906 1.54378906 -6.97757813 1.46257813 -6.12890625 1.37890625 C-3.13269668 0.92012936 -3.40485874 0.06948691 0 0 Z " fill="#3B3B47" transform="translate(161.0625,5.9375)"/>
<path d="M0 0 C0.99 0.33 1.98 0.66 3 1 C3.6875 3.0625 3.6875 3.0625 4 5 C2.02 5.33 0.04 5.66 -2 6 C-1.34 5.67 -0.68 5.34 0 5 C-0.2784375 4.0409375 -0.2784375 4.0409375 -0.5625 3.0625 C-0.7790625 2.0415625 -0.7790625 2.0415625 -1 1 C-0.67 0.67 -0.34 0.34 0 0 Z " fill="#515154" transform="translate(256,10)"/>
<path d="M0 0 C2.64 0 5.28 0 8 0 C8 0.99 8 1.98 8 3 C5.03 3 2.06 3 -1 3 C-0.67 2.01 -0.34 1.02 0 0 Z " fill="#40404B" transform="translate(219,12)"/>
<path d="M0 0 C2.31 0 4.62 0 7 0 C6.67 0.99 6.34 1.98 6 3 C4.02 3 2.04 3 0 3 C0 2.01 0 1.02 0 0 Z " fill="#626266" transform="translate(205,12)"/>
<path d="M0 0 C2.31 0.33 4.62 0.66 7 1 C6.67 1.99 6.34 2.98 6 4 C4.35 4 2.7 4 1 4 C0.67 2.68 0.34 1.36 0 0 Z " fill="#3A3A3E" transform="translate(203,6)"/>
<path d="M0 0 C1.32 0 2.64 0 4 0 C4 0.99 4 1.98 4 3 C2.35 3 0.7 3 -1 3 C-0.67 2.01 -0.34 1.02 0 0 Z M-2 3 C-0.02 3.99 -0.02 3.99 2 5 C0.68 5 -0.64 5 -2 5 C-2 4.34 -2 3.68 -2 3 Z " fill="#33333C" transform="translate(182,4)"/>
<path d="M0 0 C2.31 0 4.62 0 7 0 C6.67 0.99 6.34 1.98 6 3 C4.02 3 2.04 3 0 3 C0 2.01 0 1.02 0 0 Z " fill="#060615" transform="translate(158,0)"/>
<path d="M0 0 C1.32 0 2.64 0 4 0 C4.33 1.32 4.66 2.64 5 4 C3.02 4 1.04 4 -1 4 C-0.67 2.68 -0.34 1.36 0 0 Z " fill="#545459" transform="translate(186,5)"/>
<path d="M0 0 C0.33 0.66 0.66 1.32 1 2 C-0.65 2 -2.3 2 -4 2 C-4.33 2.66 -4.66 3.32 -5 4 C-5 3.34 -5 2.68 -5 2 C-5.99 1.67 -6.98 1.34 -8 1 C-3.375 -1.125 -3.375 -1.125 0 0 Z " fill="#616169" transform="translate(206,3)"/>
</svg>
