<?xml version="1.0" standalone="no"?>
<!DOCTYPE svg PUBLIC "-//W3C//DTD SVG 20010904//EN"
 "http://www.w3.org/TR/2001/REC-SVG-20010904/DTD/svg10.dtd">
<svg version="1.0" xmlns="http://www.w3.org/2000/svg"
 width="663.000000pt" height="321.000000pt" viewBox="0 0 663.000000 321.000000"
 preserveAspectRatio="xMidYMid meet">
<metadata>
Created by potrace 1.16, written by Peter Selinger 2001-2019
</metadata>
<g transform="translate(0.000000,321.000000) scale(0.100000,-0.100000)"
fill="#000000" stroke="none">
<path d="M0 1605 l0 -1605 3315 0 3315 0 0 1605 0 1605 -3315 0 -3315 0 0
-1605z m1414 636 c89 -40 316 -176 366 -220 l42 -36 10 -144 c11 -160 -2 -392
-23 -418 -46 -55 -420 -265 -472 -266 -54 0 -363 169 -450 245 -36 31 -38 37
-47 118 -21 185 -6 445 27 483 58 64 413 266 471 267 7 0 41 -13 76 -29z
m1870 -267 c3 -9 6 -84 6 -167 l0 -151 68 67 c59 58 72 67 104 67 52 0 57 -18
17 -53 -19 -17 -56 -50 -83 -75 l-49 -45 87 -80 c104 -96 110 -117 29 -111
-24 1 -45 17 -98 73 -37 39 -70 71 -74 71 -3 0 -6 -30 -6 -67 l0 -68 -37 -3
-38 -3 0 280 0 281 34 0 c22 0 36 -6 40 -16z m2168 -148 l3 -164 68 64 c60 56
74 64 107 64 22 0 41 -4 45 -10 6 -10 1 -15 -95 -104 l-64 -59 87 -84 c48 -46
87 -88 87 -93 0 -6 -22 -10 -48 -10 -47 0 -50 2 -111 70 -34 39 -66 70 -72 70
-5 0 -9 -31 -9 -70 l0 -70 -35 0 -35 0 0 280 0 280 35 0 35 0 2 -164z m-3394
122 c8 -8 12 -47 12 -110 l0 -98 120 0 120 0 0 105 0 105 40 0 40 0 0 -260 0
-260 -25 -6 c-51 -13 -55 -4 -55 121 l0 115 -122 0 -123 0 0 -112 0 -113 -37
-3 -38 -3 0 259 c0 142 3 262 7 265 11 11 48 8 61 -5z m2427 -10 c112 -57 105
-214 -10 -263 l-25 -10 66 -108 c36 -59 64 -113 61 -120 -5 -14 -79 -14 -85 0
-1 4 -31 55 -65 113 -57 95 -66 105 -95 108 l-32 3 0 -115 0 -116 -40 0 -40 0
0 259 c0 198 3 261 13 265 19 8 230 -5 252 -16z m-1785 -163 c47 -24 57 -57
63 -207 l6 -138 -34 0 c-18 0 -35 5 -37 11 -3 8 -14 7 -35 -5 -18 -9 -55 -16
-84 -16 -45 0 -55 4 -85 34 -29 29 -34 41 -34 81 0 38 5 52 28 75 29 28 101
50 167 50 39 0 42 6 19 38 -19 28 -77 30 -130 5 -35 -17 -36 -17 -50 2 -22 30
-17 43 24 64 46 25 140 28 182 6z m418 -13 c39 -28 40 -44 7 -66 -24 -16 -27
-16 -52 4 -83 65 -196 -25 -164 -131 22 -73 107 -104 164 -59 32 25 39 25 63
-1 57 -63 -118 -119 -216 -69 -130 66 -128 267 2 334 49 25 153 18 196 -12z
m693 5 c42 -27 79 -98 79 -149 l0 -38 -135 0 c-151 0 -161 -6 -106 -61 39 -39
96 -40 140 -3 32 27 58 26 81 -2 29 -34 -68 -94 -151 -94 -108 0 -179 76 -179
191 0 67 39 136 91 162 51 25 138 22 180 -6z m215 8 c5 -13 8 -13 27 0 12 8
43 15 70 15 l48 0 -3 -32 c-3 -30 -6 -33 -45 -39 -23 -3 -48 -11 -57 -18 -24
-20 -36 -78 -36 -178 0 -79 -2 -92 -17 -95 -50 -11 -51 -7 -55 170 -2 92 1
173 6 180 12 17 55 15 62 -3z m844 -12 c17 -14 36 -36 40 -49 5 -12 10 -80 11
-151 l1 -128 -26 -3 c-15 -2 -33 1 -39 6 -8 7 -20 6 -37 -3 -34 -19 -114 -19
-151 1 -64 33 -75 131 -19 178 29 24 105 46 160 46 32 0 41 25 18 48 -18 18
-96 15 -130 -5 -29 -18 -30 -18 -49 6 -16 20 -18 27 -7 37 29 29 75 44 135 44
52 0 66 -4 93 -27z m190 12 c11 -13 15 -13 41 0 15 8 51 15 80 15 44 0 55 -4
84 -33 40 -40 47 -79 43 -222 l-3 -100 -37 -3 -38 -3 0 123 c0 146 -9 168 -69
168 -27 0 -44 -7 -62 -26 -22 -24 -24 -35 -27 -145 l-4 -120 -36 3 -37 3 -3
165 c-1 90 0 170 2 177 7 18 51 16 66 -2z"/>
<path d="M4302 1808 l3 -73 37 -3 c92 -8 160 38 141 95 -13 38 -46 53 -121 53
l-63 0 3 -72z"/>
</g>
</svg>
