<?xml version="1.0" standalone="no"?>
<!DOCTYPE svg PUBLIC "-//W3C//DTD SVG 20010904//EN"
 "http://www.w3.org/TR/2001/REC-SVG-20010904/DTD/svg10.dtd">
<svg version="1.0" xmlns="http://www.w3.org/2000/svg"
 width="373.000000pt" height="135.000000pt" viewBox="0 0 373.000000 135.000000"
 preserveAspectRatio="xMidYMid meet">

<g transform="translate(0.000000,135.000000) scale(0.100000,-0.100000)"
fill="#000000" stroke="none">
<path d="M1095 828 c-3 -8 -4 -81 -3 -163 3 -142 4 -150 23 -150 18 0 20 8 23
73 l3 72 79 0 80 0 0 -75 c0 -69 2 -75 20 -75 20 0 20 5 18 162 -3 144 -5 163
-20 166 -14 3 -18 -7 -20 -65 l-3 -68 -77 -3 -77 -3 -3 68 c-2 55 -6 68 -21
71 -9 2 -19 -3 -22 -10z"/>
<path d="M1860 675 c0 -153 1 -166 18 -163 12 2 18 16 22 51 l5 48 50 -50 c47
-48 77 -62 89 -42 4 5 -20 32 -51 60 l-57 51 55 50 54 49 -30 1 c-23 0 -41
-10 -70 -41 l-40 -40 -5 93 c-4 78 -8 93 -22 96 -17 3 -18 -10 -18 -163z"/>
<path d="M2490 675 c0 -158 1 -165 20 -165 18 0 20 7 20 75 0 71 1 75 23 75
17 0 31 -14 56 -57 44 -75 60 -93 83 -93 10 0 18 3 18 6 0 3 -18 36 -40 73
-44 74 -46 81 -26 81 22 0 56 49 56 79 0 60 -53 91 -157 91 l-53 0 0 -165z
m157 99 c17 -24 17 -30 -7 -54 -14 -14 -33 -20 -65 -20 l-45 0 0 43 c0 24 3
47 8 51 13 14 95 -1 109 -20z"/>
<path d="M3214 827 c-2 -7 -3 -80 -2 -162 3 -133 5 -150 21 -153 14 -3 17 4
17 49 l0 53 53 -52 c32 -31 61 -52 75 -52 12 0 22 3 22 7 0 4 -23 31 -52 60
l-52 53 49 50 49 50 -29 0 c-21 0 -41 -12 -72 -42 l-43 -42 0 97 c0 80 -3 97
-15 97 -9 0 -18 -6 -21 -13z"/>
<path d="M1432 724 c-56 -29 -31 -46 41 -28 16 4 33 1 42 -6 28 -23 17 -37
-35 -42 -59 -6 -90 -30 -90 -70 0 -55 67 -87 121 -57 15 7 24 7 34 -1 26 -22
33 -1 28 87 -4 63 -10 93 -22 105 -25 25 -80 31 -119 12z m98 -127 c0 -32 -18
-47 -57 -47 -55 0 -55 52 0 63 49 10 57 7 57 -16z"/>
<path d="M1694 729 c-45 -13 -66 -42 -72 -99 -4 -46 -2 -52 31 -85 27 -27 43
-35 71 -35 40 0 83 17 90 36 6 16 -24 28 -38 14 -15 -15 -73 -12 -90 6 -39 38
-28 104 20 126 21 10 31 9 54 -4 24 -13 32 -14 46 -3 16 11 16 13 -7 28 -33
22 -69 27 -105 16z"/>
<path d="M2145 733 c-32 -8 -74 -54 -81 -88 -8 -44 18 -100 55 -119 41 -22 79
-20 120 5 31 19 33 22 18 37 -15 14 -18 14 -35 -1 -25 -22 -75 -22 -95 1 -32
35 -21 42 68 42 95 0 97 2 70 66 -10 23 -26 39 -49 49 -37 16 -38 16 -71 8z
m70 -53 c10 -11 16 -23 13 -26 -3 -3 -32 -4 -64 -2 l-59 3 23 23 c27 27 63 28
87 2z"/>
<path d="M2395 731 c-11 -5 -33 -6 -48 -4 l-28 6 3 -109 c3 -101 4 -109 23
-109 18 0 20 8 23 78 3 68 6 79 26 92 13 9 30 14 37 13 8 -2 14 5 14 17 0 22
-20 28 -50 16z"/>
<path d="M2783 725 c-54 -23 -39 -53 17 -34 23 8 38 9 56 0 36 -16 31 -41 -10
-41 -79 0 -126 -42 -106 -94 16 -42 76 -60 120 -36 13 7 21 7 25 0 3 -5 13
-10 21 -10 11 0 14 18 14 86 0 98 -7 118 -51 133 -40 14 -46 13 -86 -4z m97
-123 c0 -49 -91 -72 -98 -25 -3 18 4 24 30 32 52 15 68 13 68 -7z"/>
<path d="M3045 730 c-11 -4 -33 -5 -48 -3 l-28 6 3 -109 c3 -91 6 -109 19
-112 14 -3 17 9 21 72 4 79 23 116 59 116 37 0 49 -27 49 -111 0 -72 2 -79 20
-79 18 0 20 7 20 84 0 100 -4 112 -41 131 -31 17 -44 17 -74 5z"/>
<path d="M340 521 c0 -11 4 -22 9 -25 4 -3 6 6 3 19 -5 30 -12 33 -12 6z"/>
<path d="M932 502 c-11 -25 -11 -25 4 -10 9 9 15 21 13 27 -2 6 -10 -2 -17
-17z"/>
<path d="M528 513 c7 -3 16 -2 19 1 4 3 -2 6 -13 5 -11 0 -14 -3 -6 -6z"/>
<path d="M700 495 c13 -14 26 -25 28 -25 3 0 -5 11 -18 25 -13 14 -26 25 -28
25 -3 0 5 -11 18 -25z"/>
<path d="M759 493 c-13 -16 -12 -17 4 -4 16 13 21 21 13 21 -2 0 -10 -8 -17
-17z"/>
<path d="M880 459 c-22 -18 -22 -19 -3 -10 12 6 25 16 28 21 9 15 3 12 -25
-11z"/>
<path d="M824 424 c-18 -14 -18 -15 4 -4 12 6 22 13 22 15 0 8 -5 6 -26 -11z"/>
<path d="M490 405 c0 -7 81 -47 86 -43 2 3 -17 14 -41 26 -25 12 -45 20 -45
17z"/>
<path d="M730 375 c-36 -19 -61 -34 -57 -35 10 0 127 59 127 65 0 7 2 8 -70
-30z"/>
<path d="M638 333 c7 -3 16 -2 19 1 4 3 -2 6 -13 5 -11 0 -14 -3 -6 -6z"/>
</g>
</svg>
