<?xml version="1.0" encoding="UTF-8"?>
<svg version="1.1" xmlns="http://www.w3.org/2000/svg" width="373" height="135">
<path d="M0 0 C123.09 0 246.18 0 373 0 C373 44.55 373 89.1 373 135 C249.91 135 126.82 135 0 135 C0 90.45 0 45.9 0 0 Z " fill="#818181" transform="translate(0,0)"/>
<path d="M0 0 C123.09 0 246.18 0 373 0 C373 16.5 373 33 373 50 C249.91 50 126.82 50 0 50 C0 33.5 0 17 0 0 Z " fill="#57615D" transform="translate(0,0)"/>
<path d="M0 0 C123.09 0 246.18 0 373 0 C373 7.26 373 14.52 373 22 C249.91 22 126.82 22 0 22 C0 14.74 0 7.48 0 0 Z " fill="#67716A" transform="translate(0,28)"/>
<path d="M0 0 C123.09 0 246.18 0 373 0 C373 5.28 373 10.56 373 16 C249.91 16 126.82 16 0 16 C0 10.72 0 5.44 0 0 Z " fill="#777C78" transform="translate(0,50)"/>
<path d="M0 0 C123.09 0 246.18 0 373 0 C373 2.31 373 4.62 373 7 C249.91 7 126.82 7 0 7 C0 4.69 0 2.38 0 0 Z " fill="#57605D" transform="translate(0,0)"/>
<path d="M0 0 C123.09 0 246.18 0 373 0 C373 1.65 373 3.3 373 5 C326.7026558 5.99204535 280.41873482 6.16239755 234.11221004 6.13057256 C227.19181077 6.12582464 220.27141391 6.12350217 213.35101318 6.12231445 C142.23052815 6.10775369 71.11667978 5.72760817 0 5 C0 3.35 0 1.7 0 0 Z " fill="#414A47" transform="translate(0,23)"/>
<path d="M0 0 C123.09 0 246.18 0 373 0 C373 1.65 373 3.3 373 5 C339.34 5 305.68 5 271 5 C271 4.67 271 4.34 271 4 C136.855 3.505 136.855 3.505 0 3 C0 2.01 0 1.02 0 0 Z " fill="#707C77" transform="translate(0,28)"/>
<path d="M0 0 C123.09 0 246.18 0 373 0 C373 0.99 373 1.98 373 3 C323.17634705 4.1189447 273.35848805 4.16058363 223.52445978 4.13057256 C215.65940317 4.12584034 207.79434866 4.12350664 199.92929077 4.12231445 C133.28182325 4.1102457 66.64206869 3.91267892 0 3 C0 2.01 0 1.02 0 0 Z " fill="#373E3C" transform="translate(0,11)"/>
<path d="M0 0 C123.09 0 246.18 0 373 0 C373 0.99 373 1.98 373 3 C249.91 3 126.82 3 0 3 C0 2.01 0 1.02 0 0 Z " fill="#7B8782" transform="translate(0,4)"/>
<path d="M0 0 C123.09 0 246.18 0 373 0 C373 0.99 373 1.98 373 3 C249.91 3 126.82 3 0 3 C0 2.01 0 1.02 0 0 Z " fill="#7A8881" transform="translate(0,14)"/>
</svg>
