<?xml version="1.0" standalone="no"?>
<!DOCTYPE svg PUBLIC "-//W3C//DTD SVG 20010904//EN"
 "http://www.w3.org/TR/2001/REC-SVG-20010904/DTD/svg10.dtd">
<svg version="1.0" xmlns="http://www.w3.org/2000/svg"
 width="920.000000pt" height="500.000000pt" viewBox="0 0 920.000000 500.000000"
 preserveAspectRatio="xMidYMid meet">

<g transform="translate(0.000000,500.000000) scale(0.100000,-0.100000)"
fill="#000000" stroke="none">
<path d="M1008 2753 c-52 -4 -66 -23 -18 -23 19 0 33 -7 40 -19 6 -12 10 -100
10 -215 0 -183 -1 -197 -20 -216 -11 -11 -29 -20 -40 -20 -11 0 -20 -4 -20
-10 0 -6 45 -10 114 -10 66 0 117 4 121 10 3 6 -4 10 -17 10 -50 0 -60 19 -66
122 l-5 95 83 7 c130 11 172 44 172 135 0 98 -51 132 -206 136 -56 1 -122 1
-148 -2z m217 -28 c38 -19 55 -51 55 -105 0 -79 -35 -113 -118 -114 l-47 -1
-3 104 c-1 58 0 111 2 118 7 18 71 17 111 -2z"/>
<path d="M4758 2748 c-94 -25 -168 -138 -168 -256 0 -80 16 -127 57 -173 55
-60 103 -81 190 -82 65 0 78 3 125 32 29 18 54 29 56 23 1 -5 9 -18 17 -28 13
-17 14 -9 15 74 0 50 -3 92 -8 92 -4 0 -13 -18 -20 -41 -18 -59 -40 -88 -83
-110 -45 -22 -119 -25 -157 -5 -73 38 -102 102 -102 224 0 77 4 95 28 142 32
64 64 89 120 97 88 12 171 -45 194 -133 7 -24 16 -44 20 -44 4 0 8 43 8 95 0
97 -10 119 -29 64 l-10 -30 -33 24 c-58 44 -139 57 -220 35z"/>
<path d="M7040 2732 c-24 -25 -30 -39 -30 -74 0 -24 9 -59 19 -79 l19 -36 -49
-36 c-61 -46 -83 -86 -76 -143 6 -57 38 -99 92 -119 56 -22 106 -14 163 26
l43 31 33 -30 c56 -49 126 -53 174 -9 33 30 29 54 -4 28 -40 -32 -69 -26 -120
22 l-44 42 37 75 c26 50 49 82 70 95 54 34 42 45 -46 45 -86 0 -108 -11 -64
-32 19 -9 29 -22 31 -42 4 -29 -25 -106 -38 -106 -5 0 -36 37 -70 83 l-61 82
23 15 c47 30 88 78 88 103 0 14 -10 38 -23 53 -19 22 -34 28 -80 32 -52 4 -58
2 -87 -26z m124 -14 c9 -12 16 -33 16 -45 0 -22 -54 -93 -71 -93 -17 0 -49 64
-49 97 0 17 7 39 16 47 23 24 70 20 88 -6z m-34 -284 c34 -48 64 -93 67 -100
6 -17 -33 -51 -68 -59 -62 -14 -149 59 -149 125 0 48 48 118 82 120 4 0 35
-39 68 -86z"/>
<path d="M7758 2750 c-108 -32 -169 -127 -170 -262 0 -161 100 -255 266 -246
66 3 79 7 115 36 l41 33 12 -26 c20 -45 28 -27 28 67 0 97 -6 102 -34 26 -51
-138 -220 -160 -303 -39 -61 89 -50 274 20 349 51 55 128 67 197 32 45 -23 73
-59 90 -117 7 -24 17 -43 22 -43 4 0 8 43 8 95 0 98 -12 122 -31 65 l-11 -30
-31 24 c-59 43 -147 58 -219 36z"/>
<path d="M660 2740 c0 -5 13 -10 28 -10 15 0 33 -5 40 -12 16 -16 17 -354 1
-395 -22 -59 -80 -94 -130 -78 -17 6 -20 12 -15 36 9 46 -36 78 -64 45 -34
-42 30 -106 104 -106 49 1 110 21 138 47 46 42 52 68 58 268 l5 190 30 3 c17
2 34 8 40 13 5 5 -38 9 -113 9 -75 0 -122 -4 -122 -10z"/>
<path d="M1435 2741 c6 -5 23 -11 40 -13 28 -3 30 -7 38 -58 5 -30 6 -124 4
-208 -6 -166 -11 -183 -64 -197 -17 -4 -23 -9 -16 -16 13 -13 178 -7 178 6 0
6 -10 11 -22 13 -47 7 -53 32 -53 232 l0 185 76 -170 c42 -93 87 -194 100
-224 21 -47 27 -53 38 -40 7 8 53 104 102 214 48 110 91 204 96 210 4 5 8 -77
8 -183 0 -179 -1 -193 -20 -212 -11 -11 -32 -20 -46 -20 -14 0 -23 -4 -19 -10
4 -6 57 -10 126 -10 73 0 119 4 119 10 0 6 -10 10 -23 10 -13 0 -32 6 -43 14
-17 13 -19 30 -22 208 -4 226 1 248 53 248 19 0 35 5 35 10 0 7 -30 10 -81 8
l-80 -3 -87 -197 c-48 -108 -90 -199 -93 -202 -2 -3 -45 86 -95 197 l-91 202
-84 3 c-54 2 -80 -1 -74 -7z"/>
<path d="M2265 2623 c-45 -23 -86 -64 -101 -100 -30 -70 -8 -179 47 -230 59
-54 176 -70 254 -34 151 68 151 294 0 362 -51 23 -158 25 -200 2z m161 -12
c57 -26 79 -74 79 -171 -1 -124 -46 -183 -140 -183 -101 0 -151 71 -143 203 5
88 29 133 82 156 42 18 74 17 122 -5z"/>
<path d="M2630 2630 c0 -5 9 -10 20 -10 31 0 40 -39 40 -180 0 -149 -8 -180
-45 -180 -15 0 -24 -4 -20 -10 8 -13 182 -13 190 -1 3 5 -9 11 -27 13 l-33 3
-3 83 c-3 75 -1 83 15 80 9 -2 36 -28 60 -58 102 -128 104 -130 161 -130 60 0
67 11 18 28 -19 7 -47 29 -62 50 -16 20 -46 56 -67 78 l-38 42 29 10 c97 34
96 144 -1 181 -36 14 -237 15 -237 1z m229 -35 c22 -21 21 -99 0 -121 -10 -9
-38 -19 -63 -21 l-46 -6 0 86 c0 59 4 87 13 90 20 6 79 -10 96 -28z"/>
<path d="M3175 2628 c-35 -19 -76 -62 -96 -100 -26 -50 -25 -136 1 -187 48
-95 137 -120 287 -80 l52 14 3 55 c3 47 7 56 28 67 22 11 14 13 -65 12 -49 -1
-81 -4 -70 -6 33 -8 45 -24 45 -57 0 -44 -24 -73 -69 -87 -33 -10 -45 -9 -77
7 -64 32 -79 62 -82 167 -3 83 -1 95 20 127 65 98 190 85 238 -24 l19 -41 0
70 c0 56 -3 66 -11 49 l-10 -22 -35 24 c-28 19 -49 24 -97 24 -34 0 -70 -6
-81 -12z"/>
<path d="M3619 2468 c-40 -95 -83 -182 -96 -194 -13 -12 -23 -24 -23 -28 0 -3
25 -6 55 -6 30 0 55 3 55 6 0 3 -10 14 -21 23 -21 17 -22 18 -5 69 l18 52 74
0 75 0 19 -46 c25 -58 25 -75 0 -81 -44 -12 -16 -23 55 -23 41 0 75 2 75 5 0
3 -11 16 -24 28 -14 13 -55 96 -97 195 -40 94 -76 172 -80 172 -4 0 -40 -78
-80 -172z m94 14 c15 -35 27 -66 27 -70 0 -4 -27 -5 -60 -4 -33 2 -60 6 -60
10 0 17 56 140 61 134 3 -4 18 -35 32 -70z"/>
<path d="M3940 2630 c0 -5 9 -10 20 -10 34 0 41 -32 38 -187 l-3 -148 -32 -16
c-18 -9 -30 -19 -26 -23 9 -9 143 -8 143 2 0 4 -13 13 -29 19 -38 14 -43 40
-39 203 l3 125 135 -177 c74 -97 141 -177 148 -177 9 -1 12 41 12 179 l0 181
30 13 c42 17 27 26 -46 26 -67 0 -93 -14 -44 -23 38 -8 42 -24 38 -165 l-3
-113 -115 150 -115 151 -57 0 c-32 0 -58 -4 -58 -10z"/>
<path d="M5145 2631 c-3 -5 7 -11 22 -13 l28 -3 3 -172 2 -172 -32 -10 c-26
-7 -14 -9 62 -9 52 0 86 2 75 5 -35 8 -45 33 -45 110 l0 73 105 0 105 0 0 -54
c0 -91 -8 -115 -44 -125 -24 -7 -9 -9 64 -9 72 -1 89 2 70 9 -13 6 -28 15 -31
21 -12 19 -11 296 1 318 6 11 20 20 30 20 11 0 20 5 20 10 0 6 -37 10 -90 10
-53 0 -90 -4 -90 -10 0 -5 11 -10 25 -10 33 0 47 -35 43 -104 l-3 -51 -100 0
-100 0 -3 54 c-4 78 3 101 33 101 14 0 25 5 25 10 0 13 -167 13 -175 1z"/>
<path d="M5816 2632 c-3 -5 -37 -83 -76 -173 -48 -113 -78 -171 -97 -186 l-28
-23 65 1 c54 0 61 2 43 11 -27 13 -29 41 -8 92 l15 36 74 0 74 0 22 -56 c23
-57 21 -68 -15 -77 -11 -3 18 -5 65 -5 67 -1 80 2 63 10 -21 10 -71 113 -149
305 -28 70 -37 82 -48 65z m22 -149 l31 -73 -64 0 c-36 0 -65 2 -65 4 0 2 11
28 23 57 13 30 27 63 31 73 8 24 8 24 44 -61z"/>
<path d="M6109 2611 c-37 -37 -39 -88 -6 -126 12 -15 58 -46 102 -68 61 -32
81 -48 83 -66 9 -60 -21 -93 -85 -93 -42 0 -89 40 -98 83 -12 55 -25 40 -25
-28 1 -59 2 -66 14 -50 13 17 15 17 50 -4 29 -17 48 -20 87 -17 66 7 99 38
106 99 7 60 -18 89 -118 140 -89 44 -110 71 -91 114 25 55 117 36 149 -29 21
-44 33 -37 33 19 0 45 -13 67 -24 39 -6 -15 -8 -15 -31 0 -13 9 -45 16 -70 16
-38 0 -52 -5 -76 -29z"/>
<path d="M6400 2631 c0 -5 10 -11 23 -13 22 -3 22 -5 25 -175 l2 -172 -32 -10
c-24 -7 11 -9 133 -10 l166 -1 7 46 c3 26 6 53 6 60 0 26 -16 14 -28 -20 -18
-50 -45 -69 -105 -73 -75 -5 -81 2 -85 96 -5 91 3 101 61 84 22 -6 33 -16 35
-31 7 -48 22 -18 22 43 0 37 -4 65 -10 65 -5 0 -10 -8 -10 -19 0 -27 -24 -43
-62 -39 l-33 3 -3 78 -3 77 56 0 c69 0 89 -10 106 -52 l13 -33 4 39 c6 67 8
66 -148 66 -80 0 -140 -4 -140 -9z"/>
<path d="M8252 2619 c-70 -35 -96 -79 -100 -165 -4 -65 -1 -79 22 -118 37 -63
82 -88 171 -94 62 -4 81 -1 120 18 67 32 98 85 103 170 5 84 -19 137 -80 177
-58 39 -172 45 -236 12z m187 -16 c42 -31 64 -87 64 -163 0 -118 -51 -184
-142 -184 -82 0 -129 46 -142 138 -9 66 3 140 28 174 45 61 134 77 192 35z"/>
<path d="M8623 2313 c-20 -7 -16 -61 5 -71 26 -15 62 3 62 31 0 38 -29 56 -67
40z"/>
</g>
</svg>
