<?xml version="1.0" standalone="no"?>
<!DOCTYPE svg PUBLIC "-//W3C//DTD SVG 20010904//EN"
 "http://www.w3.org/TR/2001/REC-SVG-20010904/DTD/svg10.dtd">
<svg version="1.0" xmlns="http://www.w3.org/2000/svg"
 width="225.000000pt" height="225.000000pt" viewBox="0 0 225.000000 225.000000"
 preserveAspectRatio="xMidYMid meet">
<metadata>
Created by potrace 1.16, written by Peter Selinger 2001-2019
</metadata>
<g transform="translate(0.000000,225.000000) scale(0.100000,-0.100000)"
fill="#000000" stroke="none">
<path d="M0 1125 l0 -1125 1125 0 1125 0 0 1125 0 1125 -1125 0 -1125 0 0
-1125z m1728 206 c19 -10 22 -20 22 -66 0 -30 -2 -55 -5 -55 -2 0 -13 19 -23
43 -24 53 -43 69 -85 70 -73 2 -120 -59 -121 -158 -2 -132 110 -206 206 -135
34 25 42 25 28 0 -16 -31 -83 -60 -136 -60 -125 0 -204 104 -180 235 9 45 59
103 111 127 44 21 143 20 183 -1z m-803 -6 c52 -25 72 -96 39 -143 -19 -28
-75 -52 -120 -52 l-34 0 0 -58 c0 -63 11 -82 48 -82 13 0 21 -4 17 -9 -7 -12
-205 -10 -205 1 0 4 8 8 18 8 37 0 42 19 42 172 l0 148 -25 10 c-16 6 -34 6
-50 0 l-25 -10 0 -157 c0 -130 -3 -164 -18 -193 -19 -39 -53 -60 -97 -60 -29
1 -29 1 -10 15 11 8 26 19 33 25 9 8 12 59 12 191 l0 180 -32 14 c-30 13 -14
14 170 15 164 0 210 -3 237 -15z m180 -6 c4 -12 29 -69 57 -128 l49 -106 57
128 56 127 65 -1 c58 0 63 -2 41 -12 -14 -6 -28 -16 -32 -22 -4 -5 -8 -74 -8
-151 0 -147 2 -156 45 -167 11 -2 -7 -6 -40 -7 -33 -1 -77 -3 -97 -4 -21 -1
-38 2 -38 6 0 4 9 8 20 8 33 0 41 33 38 154 l-3 115 -60 -140 c-33 -78 -63
-143 -66 -145 -3 -2 -21 29 -39 69 -19 39 -48 104 -67 142 l-33 70 0 -120 c0
-126 6 -145 44 -145 10 0 16 -3 12 -7 -10 -10 -146 -11 -146 -1 0 4 6 8 14 8
8 0 22 7 30 16 13 12 16 41 16 152 0 75 -4 142 -8 149 -4 7 -19 16 -32 22 -20
8 -11 10 47 10 65 1 72 -1 78 -20z"/>
</g>
</svg>
