<?xml version="1.0" encoding="UTF-8"?>
<svg version="1.1" xmlns="http://www.w3.org/2000/svg" width="920" height="500">
<path d="M0 0 C303.6 0 607.2 0 920 0 C920 165 920 330 920 500 C616.4 500 312.8 500 0 500 C0 335 0 170 0 0 Z " fill="#FEFEFE" transform="translate(0,0)"/>
<path d="M0 0 C4.84303774 2.9244896 8.23502879 7.16828077 10.4375 12.375 C11.4716204 19.33727569 10.24913284 25.4587846 6.4375 31.375 C2.67976465 35.4944425 -1.40461522 38.13882598 -6.953125 38.74609375 C-14.62468725 38.87809432 -20.69593391 38.90806621 -26.5625 33.375 C-32.10119833 27.54479123 -33.03407174 22.07862423 -32.87109375 14.24609375 C-32.18735785 7.88475342 -27.85414872 4.48439457 -23.24609375 0.57421875 C-17.34855311 -3.62658166 -6.35091338 -2.93212668 0 0 Z " fill="#FAFAFA" transform="translate(247.5625,237.625)"/>
<path d="M0 0 C2.06640625 1.41796875 2.06640625 1.41796875 3.875 2.9375 C4.69291016 3.61232422 4.69291016 3.61232422 5.52734375 4.30078125 C9.1047019 8.13578847 9.32726095 12.19860755 9.5625 17.3125 C9.31033165 24.39422784 7.89462412 28.90659583 2.875 33.9375 C-2.62414761 38.83891417 -9.13449535 38.78991656 -16.2265625 38.4453125 C-22.69341381 37.60293708 -26.40633191 35.15521128 -30.55078125 30.25 C-34.32637782 24.22980478 -34.16561227 16.75311317 -33.125 9.9375 C-31.03054162 5.12690655 -27.1768856 0.92220599 -22.43359375 -1.43359375 C-15.19413707 -3.40576384 -6.76429974 -3.42754785 0 0 Z " fill="#FBFBFB" transform="translate(848.125,238.0625)"/>
<path d="M0 0 C2.96912882 1.38980498 4.69657028 2.69657028 7 5 C7.67586332 9.24828375 7.21667941 10.69547759 4.6875 14.25 C2 17 2 17 -1 19 C-1.99 19 -2.98 19 -4 19 C1.76129645 29.2714651 1.76129645 29.2714651 10 37 C12.07209902 30.62726417 12.07209902 30.62726417 12 24 C9.57327433 22.21030974 9.57327433 22.21030974 7 21 C7 20.34 7 19.68 7 19 C12.61 19 18.22 19 24 19 C24 19.99 24 20.98 24 22 C23.0925 22.5878125 22.185 23.175625 21.25 23.78125 C17.51472915 26.33129068 16.11019792 28.53428321 14 32.5 C13.38125 33.6240625 12.7625 34.748125 12.125 35.90625 C10.70911449 38.84003755 10.70911449 38.84003755 11.671875 41.234375 C15.35620252 46.31745655 15.35620252 46.31745655 21 48.4375 C23.95807995 48.00611334 26.30253681 47.26939444 29 46 C27.98929671 48.6645814 27.0600516 49.95195872 24.8125 51.75 C21.21577899 53.34854267 18.90628989 53.47971981 15 53 C11.8125 51.125 11.8125 51.125 9 49 C7.6808418 48.30570621 6.35350594 47.62469505 5 47 C3.88625 47.928125 3.88625 47.928125 2.75 48.875 C-2.1486462 52.66031752 -5.74246818 53.72652991 -12 53 C-17.1666273 51.51131078 -20.259488 49.50314463 -23.1171875 45.02734375 C-24.73009131 41.32337437 -24.75611473 37.93179658 -24 34 C-21.37653293 28.42513247 -16.96105098 25.39567082 -12 22 C-12.495 21.236875 -12.99 20.47375 -13.5 19.6875 C-15.52747136 14.70329957 -15.96810058 10.30841819 -15 5 C-11.80732636 -0.63555271 -5.8018808 -1.00623025 0 0 Z " fill="#110D0E" transform="translate(716,224)"/>
<path d="M0 0 C5.28 0 10.56 0 16 0 C21.19167477 10.19106528 26.09372612 20.45686977 30.76123047 30.89892578 C31.37248779 32.26186768 31.37248779 32.26186768 31.99609375 33.65234375 C32.35888428 34.46695068 32.7216748 35.28155762 33.09545898 36.12084961 C33.85644867 37.96659743 33.85644867 37.96659743 35 39 C39.80298097 28.93282465 44.31828039 18.76051238 48.71044922 8.50756836 C49.12311035 7.54858643 49.53577148 6.58960449 49.9609375 5.6015625 C50.33009277 4.73869629 50.69924805 3.87583008 51.07958984 2.98681641 C52 1 52 1 53 0 C55.69654854 -0.07319621 58.36691458 -0.09242537 61.0625 -0.0625 C61.82111328 -0.05798828 62.57972656 -0.05347656 63.36132812 -0.04882812 C65.24091871 -0.0370068 67.12046899 -0.01907078 69 0 C69 0.66 69 1.32 69 2 C66.69 2.33 64.38 2.66 62 3 C62 17.52 62 32.04 62 47 C64.31 47.66 66.62 48.32 69 49 C69 49.66 69 50.32 69 51 C60.75 51 52.5 51 44 51 C44 50.34 44 49.68 44 49 C45.134375 48.690625 46.26875 48.38125 47.4375 48.0625 C50.78775099 47.37075469 50.78775099 47.37075469 52 46 C52.08861992 43.1883662 52.11522355 40.40141745 52.09765625 37.58984375 C52.0962413 36.74780899 52.09482635 35.90577423 52.09336853 35.03822327 C52.08775263 32.33794665 52.07519748 29.63775172 52.0625 26.9375 C52.05748705 25.11132932 52.05292379 23.28515734 52.04882812 21.45898438 C52.03777804 16.97262458 52.02050279 12.48632616 52 8 C51.48840332 9.14662109 50.97680664 10.29324219 50.44970703 11.47460938 C49.4576129 13.69804801 48.46431321 15.9209082 47.46826172 18.14257812 C45.3753421 22.83024576 43.34866796 27.53878715 41.3828125 32.28125 C40.94501465 33.32466553 40.5072168 34.36808105 40.05615234 35.44311523 C39.19268937 37.5052585 38.34121358 39.57246644 37.50244141 41.64477539 C37.10460449 42.58828857 36.70676758 43.53180176 36.296875 44.50390625 C35.94979492 45.34767822 35.60271484 46.1914502 35.24511719 47.06079102 C34 49 34 49 31.85644531 49.78100586 C31.24381836 49.85327393 30.63119141 49.92554199 30 50 C29.63237549 49.17910889 29.26475098 48.35821777 28.88598633 47.51245117 C27.49771895 44.41289616 26.10917661 41.31346462 24.72045898 38.21411133 C24.12399776 36.88277908 23.52764037 35.55140031 22.93139648 34.2199707 C19.31107903 26.13591448 15.67675407 18.05859588 12 10 C11.95056535 14.78717542 11.91426418 19.57420227 11.89013672 24.36157227 C11.88007858 25.99017932 11.86643042 27.61876832 11.84912109 29.24731445 C11.82486426 31.58809872 11.81351517 33.92864424 11.8046875 36.26953125 C11.79436493 36.99775589 11.78404236 37.72598053 11.77340698 38.47627258 C11.77257751 42.21275069 11.87116704 43.80675056 14 47 C16.55183404 48.20450304 16.55183404 48.20450304 19 49 C19 49.66 19 50.32 19 51 C12.73 51 6.46 51 0 51 C0 50.01 0 49.02 0 48 C0.969375 47.690625 1.93875 47.38125 2.9375 47.0625 C5.84065792 46.30476658 5.84065792 46.30476658 7 45 C7.08874135 41.89748799 7.11518455 38.8173188 7.09765625 35.71484375 C7.0962413 34.78402481 7.09482635 33.85320587 7.09336853 32.8941803 C7.08775172 29.90858809 7.0751964 26.92306971 7.0625 23.9375 C7.05748716 21.91862087 7.05292388 19.89974057 7.04882812 17.88085938 C7.03777683 12.92054428 7.02050095 7.96028468 7 3 C4.69 2.67 2.38 2.34 0 2 C0 1.34 0 0.68 0 0 Z " fill="#181415" transform="translate(143,225)"/>
<path d="M0 0 C4.52071021 -0.08751499 9.0412007 -0.1405661 13.5625 -0.1875 C15.47772461 -0.22520508 15.47772461 -0.22520508 17.43164062 -0.26367188 C25.86122749 -0.32935697 30.93085846 0.22952065 37.9375 5 C41.03621531 9.50722227 40.73542368 13.69215954 40 19 C38.43853003 22.74752793 36.52832972 24.98381159 33 27 C27.46266558 28.48562631 21.68783373 28.06936383 16 28 C16.33 34.6 16.66 41.2 17 48 C19.31 48.66 21.62 49.32 24 50 C24 50.66 24 51.32 24 52 C16.08 52 8.16 52 0 52 C0 51.34 0 50.68 0 50 C2.31 49.01 4.62 48.02 7 47 C7 33.14 7 19.28 7 5 C4.69 4.34 2.38 3.68 0 3 C0 2.01 0 1.02 0 0 Z " fill="#0E0A0B" transform="translate(96,224)"/>
<path d="M0 0 C3.54150893 -0.08761663 7.08273633 -0.14059739 10.625 -0.1875 C11.62402344 -0.21263672 12.62304688 -0.23777344 13.65234375 -0.26367188 C19.23185825 -0.31909752 23.17099391 -0.13571824 28 3 C28.61875 3.391875 29.2375 3.78375 29.875 4.1875 C31.7857518 7.26593345 31.62887216 10.54819057 31 14 C28.58194458 17.31363151 25.48935416 18.93416346 22 21 C23.58207497 22.75115168 25.16561229 24.50094278 26.75 26.25 C27.63171875 27.22453125 28.5134375 28.1990625 29.421875 29.203125 C34.42894459 34.74004662 34.42894459 34.74004662 41 38 C41 38.66 41 39.32 41 40 C31.69046366 41.21209153 31.69046366 41.21209153 27.95703125 38.53515625 C26.1440831 36.44010176 24.56362917 34.28704315 23 32 C21.78121918 30.36719597 20.55213462 28.74202867 19.3125 27.125 C18.77238281 26.38507813 18.23226563 25.64515625 17.67578125 24.8828125 C15.88019704 22.63110425 15.88019704 22.63110425 12 21 C12.33 26.28 12.66 31.56 13 37 C14.98 37.33 16.96 37.66 19 38 C19 38.66 19 39.32 19 40 C12.4 40 5.8 40 -1 40 C-1 39.34 -1 38.68 -1 38 C0.98 37.34 2.96 36.68 5 36 C5 25.44 5 14.88 5 4 C2.525 3.01 2.525 3.01 0 2 C0 1.34 0 0.68 0 0 Z " fill="#1E1A1B" transform="translate(263,236)"/>
<path d="M0 0 C2.83507701 1.39669235 5.13878748 2.93566248 7.375 5.171875 C8.035 3.521875 8.695 1.871875 9.375 0.171875 C10.365 0.171875 11.355 0.171875 12.375 0.171875 C12.375 6.441875 12.375 12.711875 12.375 19.171875 C11.715 19.171875 11.055 19.171875 10.375 19.171875 C10.02888672 18.05039063 10.02888672 18.05039063 9.67578125 16.90625 C7.37500975 9.95846571 5.61786345 6.52902136 -0.875 2.921875 C-5.8574047 1.56303735 -10.63909234 1.33338066 -15.4375 3.359375 C-21.06949487 8.02588503 -23.8396753 12.97306521 -24.625 20.171875 C-25.18651363 28.7817507 -24.67024194 36.60364919 -19.1875 43.609375 C-15.75329625 47.04357875 -13.18200113 48.45842739 -8.3125 48.484375 C-2.7366699 48.33764263 1.50895925 46.93424682 5.625 43.046875 C7.91959527 39.27718277 9.1601841 35.39612121 10.375 31.171875 C11.035 31.171875 11.695 31.171875 12.375 31.171875 C12.375 37.111875 12.375 43.051875 12.375 49.171875 C11.715 49.171875 11.055 49.171875 10.375 49.171875 C9.715 48.181875 9.055 47.191875 8.375 46.171875 C6.1812395 47.22813006 4.22246209 48.28194815 2.2421875 49.7109375 C-3.59385602 52.68461635 -11.22753219 52.1046157 -17.625 51.171875 C-24.2744799 48.92798376 -28.41340892 45.08745036 -31.78515625 39.00390625 C-35.09522365 31.78334062 -34.82475296 21.66814544 -32.7890625 14.0390625 C-30.08781049 8.11081145 -26.19510595 4.44971071 -20.625 1.171875 C-19.72201172 0.61113281 -19.72201172 0.61113281 -18.80078125 0.0390625 C-13.23699496 -2.17846094 -5.64403398 -1.78055834 0 0 Z " fill="#0F0B0D" transform="translate(792.625,224.828125)"/>
<path d="M0 0 C2.11120482 1.22919036 4.02320609 2.55356543 6 4 C6.66 2.35 7.32 0.7 8 -1 C8.66 -1 9.32 -1 10 -1 C10 5.27 10 11.54 10 18 C9.34 18 8.68 18 8 18 C7.65388672 16.87851563 7.65388672 16.87851563 7.30078125 15.734375 C4.88638299 8.11817479 4.88638299 8.11817479 -1 3 C-1.61101562 2.64808594 -2.22203125 2.29617187 -2.8515625 1.93359375 C-6.77937557 0.22678043 -10.80822713 0.46939584 -15 1 C-19.89472807 3.35672092 -22.31615602 6.32812344 -25 11 C-26.36327078 15.08981234 -26.22385809 18.90349523 -26.25 23.1875 C-26.270625 24.01314453 -26.29125 24.83878906 -26.3125 25.68945312 C-26.35049736 31.71678408 -25.86483698 37.91701356 -21.54760742 42.56298828 C-16.80139221 46.61472318 -13.74771975 47.37098647 -7.671875 47.265625 C-3.46546254 46.84744364 -0.2119313 45.80394927 3 43 C4.78848085 40.12806263 5.95411821 37.2085526 7 34 C7.33 33.01 7.66 32.02 8 31 C8.66 31 9.32 31 10 31 C10 36.61 10 42.22 10 48 C9.34 48 8.68 48 8 48 C7.505 46.02 7.505 46.02 7 44 C6.33613281 44.42152344 5.67226563 44.84304688 4.98828125 45.27734375 C4.10527344 45.82519531 3.22226562 46.37304688 2.3125 46.9375 C1.44238281 47.48277344 0.57226562 48.02804687 -0.32421875 48.58984375 C-6.35688512 51.76910296 -12.94594103 51.7587119 -19.4375 49.9375 C-26.03223037 47.51793169 -31.1602104 43.21083681 -34.5 37 C-37.24474651 29.79965602 -37.27366715 21.41968372 -35.15234375 14.05859375 C-32.12374566 7.33407935 -27.24916882 2.06270331 -20.5859375 -1.171875 C-13.97522543 -3.28890062 -6.38333188 -2.5032674 0 0 Z " fill="#100C0D" transform="translate(495,226)"/>
<path d="M0 0 C5.94 0 11.88 0 18 0 C18 0.66 18 1.32 18 2 C16.35 2.33 14.7 2.66 13 3 C12.67 7.95 12.34 12.9 12 18 C18.93 18 25.86 18 33 18 C32.67 13.38 32.34 8.76 32 4 C30.02 3.34 28.04 2.68 26 2 C26 1.34 26 0.68 26 0 C31.94 0 37.88 0 44 0 C44 0.66 44 1.32 44 2 C42.35 2.66 40.7 3.32 39 4 C38.97530919 8.3782512 38.95714443 12.75646567 38.94506836 17.13476562 C38.94003486 18.62468166 38.93320758 20.11459274 38.92456055 21.60449219 C38.91245195 23.74415304 38.90676193 25.88374868 38.90234375 28.0234375 C38.89710693 29.31169434 38.89187012 30.59995117 38.88647461 31.92724609 C38.78457369 34.91405228 38.78457369 34.91405228 40 37 C41.32 37.66 42.64 38.32 44 39 C38.06 39 32.12 39 26 39 C26 38.67 26 38.34 26 38 C28.475 37.505 28.475 37.505 31 37 C31.33 31.39 31.66 25.78 32 20 C25.4 20 18.8 20 12 20 C12.33 25.28 12.66 30.56 13 36 C14.65 36.66 16.3 37.32 18 38 C18 38.33 18 38.66 18 39 C12.06 39 6.12 39 0 39 C0 38.67 0 38.34 0 38 C2.475 37.505 2.475 37.505 5 37 C5 25.78 5 14.56 5 3 C3.35 2.67 1.7 2.34 0 2 C0 1.34 0 0.68 0 0 Z " fill="#201D1E" transform="translate(514,236)"/>
<path d="M0 0 C7.92 0 15.84 0 24 0 C24 0.66 24 1.32 24 2 C21.69 2.33 19.38 2.66 17 3 C16.98541748 4.05388916 16.97083496 5.10777832 16.95581055 6.19360352 C16.89755055 10.12818213 16.82032096 14.06220493 16.73754883 17.99633789 C16.70442917 19.69448786 16.67635739 21.39274448 16.65356445 23.09106445 C16.61977831 25.54163787 16.56745361 27.99124531 16.51171875 30.44140625 C16.50213387 31.56839684 16.50213387 31.56839684 16.49235535 32.71815491 C16.3123253 39.26861997 14.95919787 44.04080213 10.1875 48.8125 C4.41327686 52.77520216 -1.09837211 53.85315326 -8 53 C-10.96912882 51.61019502 -12.69657028 50.30342972 -15 48 C-15.25 45.5 -15.25 45.5 -15 43 C-14.34 42.34 -13.68 41.68 -13 41 C-10.375 41.375 -10.375 41.375 -8 42 C-7.20046862 45.28696233 -6.90341064 46.71023192 -8 50 C-2.25728483 50.47000434 -2.25728483 50.47000434 2.875 48.25 C7.27663955 43.58944048 7.2747301 39.53297742 7.1953125 33.296875 C7.19106766 32.04019012 7.19106766 32.04019012 7.18673706 30.75811768 C7.17556349 28.08859837 7.15046421 25.4194175 7.125 22.75 C7.11496654 20.93750485 7.10584133 19.12500444 7.09765625 17.3125 C7.0756334 12.87487007 7.04112304 8.43749237 7 4 C4.69 3.34 2.38 2.68 0 2 C0 1.34 0 0.68 0 0 Z " fill="#120E0F" transform="translate(66,225)"/>
<path d="M0 0 C2.06640625 1.41796875 2.06640625 1.41796875 3.875 2.9375 C4.69291016 3.61232422 4.69291016 3.61232422 5.52734375 4.30078125 C9.1047019 8.13578847 9.32726095 12.19860755 9.5625 17.3125 C9.31033165 24.39422784 7.89462412 28.90659583 2.875 33.9375 C-2.62414761 38.83891417 -9.13449535 38.78991656 -16.2265625 38.4453125 C-22.69341381 37.60293708 -26.40633191 35.15521128 -30.55078125 30.25 C-34.32637782 24.22980478 -34.16561227 16.75311317 -33.125 9.9375 C-31.03054162 5.12690655 -27.1768856 0.92220599 -22.43359375 -1.43359375 C-15.19413707 -3.40576384 -6.76429974 -3.42754785 0 0 Z M-24.26953125 4.9921875 C-26.88202067 9.1391707 -26.71374017 12.57193817 -26.625 17.375 C-26.64046875 18.20837891 -26.6559375 19.04175781 -26.671875 19.90039062 C-26.63717339 25.38758277 -25.81389078 28.63162925 -22.125 32.9375 C-18.98303415 36.01427984 -16.59945314 36.39323076 -12.25 36.4375 C-8.39494064 36.33407158 -5.60528707 36.19526978 -2.5 33.8125 C1.74258196 28.67674289 2.23780185 23.42691715 2.25 16.9375 C2.27449219 16.25171875 2.29898438 15.5659375 2.32421875 14.859375 C2.3536117 9.72540631 1.06453936 6.89631601 -2.125 2.9375 C-5.42074454 0.04123965 -8.02899155 -0.95910298 -12.4375 -1.375 C-17.77430818 -0.92272812 -20.48699495 1.36811811 -24.26953125 4.9921875 Z " fill="#161314" transform="translate(848.125,238.0625)"/>
<path d="M0 0 C4.84303774 2.9244896 8.23502879 7.16828077 10.4375 12.375 C11.4716204 19.33727569 10.24913284 25.4587846 6.4375 31.375 C2.67976465 35.4944425 -1.40461522 38.13882598 -6.953125 38.74609375 C-14.62468725 38.87809432 -20.69593391 38.90806621 -26.5625 33.375 C-32.10119833 27.54479123 -33.03407174 22.07862423 -32.87109375 14.24609375 C-32.18735785 7.88475342 -27.85414872 4.48439457 -23.24609375 0.57421875 C-17.34855311 -3.62658166 -6.35091338 -2.93212668 0 0 Z M-22.875 4.9375 C-27.0493936 10.96717964 -26.41433359 19.2463152 -25.5625 26.375 C-23.8762781 31.09511922 -21.69823533 33.61784312 -17.5625 36.375 C-14.76105546 36.73099164 -14.76105546 36.73099164 -11.6875 36.6875 C-10.65882813 36.70425781 -9.63015625 36.72101563 -8.5703125 36.73828125 C-5.14586923 36.32467966 -3.31109027 35.42920957 -0.5625 33.375 C3.65843239 26.28986349 4.16651596 19.49832075 3.4375 11.375 C2.1916631 6.72187423 0.19075319 3.51224531 -3.875 0.875 C-11.34152192 -2.16222926 -17.41073182 -1.11749988 -22.875 4.9375 Z " fill="#131011" transform="translate(247.5625,237.625)"/>
<path d="M0 0 C0.66 0 1.32 0 2 0 C4.99479167 6.73828125 7.98958333 13.4765625 10.984375 20.21484375 C11.76264648 21.95677002 11.76264648 21.95677002 12.55664062 23.73388672 C13.44909095 25.75337258 14.32606333 27.77987535 15.17773438 29.81689453 C15.51611328 30.6211084 15.85449219 31.42532227 16.203125 32.25390625 C16.48317383 32.93912354 16.76322266 33.62434082 17.05175781 34.33032227 C18.03048171 36.34501908 18.03048171 36.34501908 21 38 C21 38.66 21 39.32 21 40 C15.72 40 10.44 40 5 40 C5 39.34 5 38.68 5 38 C6.65 38 8.3 38 10 38 C9.52309796 36.37433394 9.04340334 34.74948689 8.5625 33.125 C8.29566406 32.22007812 8.02882813 31.31515625 7.75390625 30.3828125 C7.07386174 28.01724619 7.07386174 28.01724619 6 26 C3.45058627 25.68758629 0.99638487 25.48696579 -1.5625 25.375 C-2.27341797 25.33632813 -2.98433594 25.29765625 -3.71679688 25.2578125 C-5.47742425 25.16328217 -7.23867728 25.08054183 -9 25 C-10.8755758 30.95598956 -10.8755758 30.95598956 -10 37 C-9.01 37.33 -8.02 37.66 -7 38 C-7 38.66 -7 39.32 -7 40 C-11.29 40 -15.58 40 -20 40 C-20 39.34 -20 38.68 -20 38 C-19.38358643 37.75266113 -18.76717285 37.50532227 -18.13208008 37.25048828 C-15.5687626 35.74707455 -15.04657858 34.69342816 -13.88671875 31.9921875 C-13.52892334 31.17717773 -13.17112793 30.36216797 -12.80249023 29.52246094 C-12.43454346 28.64879883 -12.06659668 27.77513672 -11.6875 26.875 C-11.30086182 25.98586914 -10.91422363 25.09673828 -10.51586914 24.18066406 C-9.72194918 22.3522819 -8.93347801 20.5215244 -8.15039062 18.68847656 C-6.74651028 15.40759152 -5.31039271 12.14148742 -3.87231445 8.87548828 C-2.57279591 5.92077206 -1.28597333 2.96063312 0 0 Z " fill="#1E1B1C" transform="translate(369,236)"/>
<path d="M0 0 C4.39366753 -1.30361564 7.61581491 -1.41502692 12 0 C17.02758851 4.4062468 20.70385531 10.21917832 24.44042969 15.71240234 C26.50737823 18.74422886 28.68897227 21.67811103 30.875 24.625 C31.90625 26.06875 32.9375 27.5125 34 29 C34 20.75 34 12.5 34 4 C32.02 3.34 30.04 2.68 28 2 C28 1.34 28 0.68 28 0 C32.95 0 37.9 0 43 0 C43 0.66 43 1.32 43 2 C41.35 2.66 39.7 3.32 38 4 C37.67 15.88 37.34 27.76 37 40 C36.01 40 35.02 40 34 40 C32.08984375 37.83203125 32.08984375 37.83203125 29.9375 34.8125 C29.139012 33.70891759 28.33949538 32.60607885 27.5390625 31.50390625 C26.91692871 30.63983154 26.91692871 30.63983154 26.28222656 29.75830078 C24.18219634 26.87855637 21.99588386 24.06673501 19.8125 21.25 C18.97753343 20.16561949 18.14288891 19.08099091 17.30859375 17.99609375 C15.88775904 16.15213399 14.46393423 14.31046809 13.03515625 12.47265625 C12.48730469 11.75980469 11.93945312 11.04695312 11.375 10.3125 C10.90835937 9.71050781 10.44171875 9.10851562 9.9609375 8.48828125 C9 7 9 7 9 5 C8.34 5 7.68 5 7 5 C7.09346313 9.23623542 7.19953913 13.47190851 7.31738281 17.70751953 C7.35569674 19.1488374 7.39054543 20.59025168 7.421875 22.03173828 C7.46747446 24.10223886 7.52547444 26.17207433 7.5859375 28.2421875 C7.6173584 29.4885498 7.6487793 30.73491211 7.68115234 32.01904297 C7.69682309 35.11541776 7.69682309 35.11541776 10 37 C12.06874034 37.6425235 12.06874034 37.6425235 14 38 C14 38.66 14 39.32 14 40 C9.05 40 4.1 40 -1 40 C-1 39.34 -1 38.68 -1 38 C1.31 37.34 3.62 36.68 6 36 C5.67 25.44 5.34 14.88 5 4 C2.525 3.01 2.525 3.01 0 2 C0 1.34 0 0.68 0 0 Z " fill="#110D0E" transform="translate(394,236)"/>
<path d="M0 0 C9.57 0 19.14 0 29 0 C29 3.3 29 6.6 29 10 C28.01 8.68 27.02 7.36 26 6 C24.07256034 3.47059721 23.29106702 3.05104388 20.08203125 2.48828125 C19.00308594 2.43027344 17.92414062 2.37226563 16.8125 2.3125 C14.894375 2.209375 12.97625 2.10625 11 2 C11 7.28 11 12.56 11 18 C14.96 17.505 14.96 17.505 19 17 C19.66 15.35 20.32 13.7 21 12 C21.66 12 22.32 12 23 12 C23 16.62 23 21.24 23 26 C22.34 26 21.68 26 21 26 C20.505 23.525 20.505 23.525 20 21 C17.36 20.67 14.72 20.34 12 20 C12.33 25.61 12.66 31.22 13 37 C19.60067779 37.35567248 19.60067779 37.35567248 25.9375 35.9375 C28.79621176 33.2520435 29.68047578 30.68077808 31 27 C31.66 27 32.32 27 33 27 C32.67 30.96 32.34 34.92 32 39 C21.44 39 10.88 39 0 39 C1.32 38.34 2.64 37.68 4 37 C4 25.78 4 14.56 4 3 C2.68 2.67 1.36 2.34 0 2 C0 1.34 0 0.68 0 0 Z " fill="#110E0F" transform="translate(640,236)"/>
<path d="M0 0 C2.61722287 1.06881353 3.92097914 2.04327448 6 4 C6.99 3.01 7.98 2.02 9 1 C9 5.29 9 9.58 9 14 C7.6917422 12.03761331 6.43837744 10.03721846 5.25 8 C2.09315004 3.79086672 -0.82881532 2.3166311 -6 1.5625 C-10.54569978 2.22541455 -13.38838652 4.45315586 -16.65234375 7.5859375 C-18.70509287 11.26303593 -18.43519197 14.73513006 -18.375 18.875 C-18.38660156 19.66519531 -18.39820313 20.45539063 -18.41015625 21.26953125 C-18.3853877 26.23149752 -17.80641713 29.74592878 -15 34 C-12.81700095 36.15571156 -11.59073498 36.90343755 -8.5625 37.3984375 C-7.2940625 37.38683594 -7.2940625 37.38683594 -6 37.375 C-5.154375 37.38273437 -4.30875 37.39046875 -3.4375 37.3984375 C-0.47457839 36.91411378 0.90278764 36.14050344 3 34 C3.48057715 31.9511352 3.48057715 31.9511352 3.25 29.8125 C3.1675 28.554375 3.085 27.29625 3 26 C1.35 25.34 -0.3 24.68 -2 24 C-2 23.67 -2 23.34 -2 23 C3.61 23 9.22 23 15 23 C13.68 23.99 12.36 24.98 11 26 C10.30250411 28.72489473 10.30250411 28.72489473 10.25 31.6875 C10.16492188 33.17830078 10.16492188 33.17830078 10.078125 34.69921875 C10.03945313 35.83810547 10.03945313 35.83810547 10 37 C2.04821235 40.01557636 -6.91352104 41.97227367 -15.2421875 39.2734375 C-20.86252664 36.30647735 -23.99537098 31.87798 -26 26 C-26.89156584 19.19594494 -26.75875374 13.35030189 -22.5234375 7.7578125 C-22.02070313 7.17773438 -21.51796875 6.59765625 -21 6 C-20.53851563 5.39929688 -20.07703125 4.79859375 -19.6015625 4.1796875 C-14.31799052 -1.5866474 -7.30617492 -1.06493828 0 0 Z " fill="#151213" transform="translate(332,236)"/>
<path d="M0 0 C2.33984375 1.03125 2.33984375 1.03125 4 2 C4.33 1.34 4.66 0.68 5 0 C5.66 0 6.32 0 7 0 C7 3.63 7 7.26 7 11 C6.34 11 5.68 11 5 11 C4.4225 9.88625 3.845 8.7725 3.25 7.625 C2.00234825 5.477474 1.11254016 4.09313668 -0.8125 2.5 C-4.05168593 1.75961464 -6.77952378 2.33159928 -10 3 C-11.28356708 4.0998799 -11.28356708 4.0998799 -11.5625 6.75 C-11.35084191 9.95633093 -11.35084191 9.95633093 -9.53125 11.33203125 C-7.39900311 12.66468555 -5.23638353 13.85038797 -3 15 C7.6023026 20.51734833 7.6023026 20.51734833 10 25 C10.91825498 31.42778484 10.91825498 31.42778484 8.94140625 34.8125 C7.17443159 36.99369127 5.52695685 38.73652157 3 40 C-2.16391457 40.5147039 -7.2416778 41.01718869 -11.6875 38 C-12.450625 37.34 -13.21375 36.68 -14 36 C-14.33 36.99 -14.66 37.98 -15 39 C-15.33 39 -15.66 39 -16 39 C-16 34.71 -16 30.42 -16 26 C-14 27 -14 27 -12.5625 30.375 C-10.91267609 34.26633166 -10.91267609 34.26633166 -8 37 C-5.82504919 37.47307456 -5.82504919 37.47307456 -3.5 37.375 C-2.7265625 37.38273437 -1.953125 37.39046875 -1.15625 37.3984375 C1.0298649 37.12705778 1.0298649 37.12705778 2.78125 35.9140625 C4.63277022 33.00622626 4.19005818 30.35769455 4 27 C2.97519531 26.49210937 1.95039062 25.98421875 0.89453125 25.4609375 C-0.46650961 24.76633734 -1.82716655 24.07098456 -3.1875 23.375 C-3.86103516 23.04371094 -4.53457031 22.71242188 -5.22851562 22.37109375 C-9.99395359 19.90701363 -12.92111194 17.42186972 -16 13 C-16.79735035 8.53483803 -16.3033266 6.57527458 -14.1875 2.5625 C-10.44783395 -1.46731255 -5.06273198 -0.78468573 0 0 Z " fill="#0E0A0B" transform="translate(624,236)"/>
<path d="M0 0 C10.44444444 0 10.44444444 0 15 3 C17.97655864 7.46483796 17.73906389 11.76683047 17 17 C15.45523864 20.18183913 13.43134727 22.30900477 10.1875 23.875 C6.79694215 24.06874616 3.39608895 24 0 24 C0 16.08 0 8.16 0 0 Z " fill="#F2F2F2" transform="translate(111,226)"/>
<path d="M0 0 C3.21012901 1.36417601 4.829416 2.72405594 6.796875 5.58984375 C7.28027344 6.29173828 7.76367188 6.99363281 8.26171875 7.71679688 C8.75285156 8.44962891 9.24398437 9.18246094 9.75 9.9375 C10.25660156 10.66646484 10.76320313 11.39542969 11.28515625 12.14648438 C15 17.60860638 15 17.60860638 15 21 C7.09233792 26.06090373 7.09233792 26.06090373 2 25 C-1.74335945 22.49132003 -4.50256377 19.74615434 -7 16 C-7.4775733 11.14467144 -7.51341394 8.95601216 -5.1875 4.625 C-3 2 -3 2 0 0 Z " fill="#F6F6F6" transform="translate(705,248)"/>
<path d="M0 0 C6.08735318 -0.32481924 10.72428087 -0.47425406 16 3 C16.61875 3.391875 17.2375 3.78375 17.875 4.1875 C19.7857518 7.26593345 19.62887216 10.54819057 19 14 C16.58194458 17.31363151 13.48935416 18.93416346 10 21 C11.58207497 22.75115168 13.16561229 24.50094278 14.75 26.25 C15.63171875 27.22453125 16.5134375 28.1990625 17.421875 29.203125 C22.42894459 34.74004662 22.42894459 34.74004662 29 38 C29 38.66 29 39.32 29 40 C19.69046366 41.21209153 19.69046366 41.21209153 15.95703125 38.53515625 C14.1440831 36.44010176 12.56362917 34.28704315 11 32 C9.78121918 30.36719597 8.55213462 28.74202867 7.3125 27.125 C6.77238281 26.38507813 6.23226563 25.64515625 5.67578125 24.8828125 C3.91223092 22.90138766 2.4316552 22.00656751 0 21 C0 20.34 0 19.68 0 19 C0.69867188 18.89042969 1.39734375 18.78085938 2.1171875 18.66796875 C3.02726562 18.50941406 3.93734375 18.35085937 4.875 18.1875 C5.77992188 18.03667969 6.68484375 17.88585937 7.6171875 17.73046875 C10.34412478 17.16948699 10.34412478 17.16948699 12 14 C12.41291603 10.21493637 12.60225333 7.92847389 10.5 4.6875 C7.08739609 2.38399236 4.03143117 1.80628623 0 1 C0 0.67 0 0.34 0 0 Z " fill="#181516" transform="translate(275,236)"/>
<path d="M0 0 C4.52071021 -0.08751499 9.0412007 -0.1405661 13.5625 -0.1875 C15.47772461 -0.22520508 15.47772461 -0.22520508 17.43164062 -0.26367188 C25.86122749 -0.32935697 30.93085846 0.22952065 37.9375 5 C41.03621531 9.50722227 40.73542368 13.69215954 40 19 C38.43853003 22.74752793 36.52832972 24.98381159 33 27 C27.46266558 28.48562631 21.68783373 28.06936383 16 28 C16 34.27 16 40.54 16 47 C15.67 47 15.34 47 15 47 C15 40.4 15 33.8 15 27 C18.96 26.505 18.96 26.505 23 26 C26.91578563 24.69473812 28.95663839 22.57588282 31 19 C31.51574193 14.17463376 31.54020319 9.62060956 30 5 C26.99152582 3.77479736 26.99152582 3.77479736 24 3 C24 2.67 24 2.34 24 2 C16.08 1.67 8.16 1.34 0 1 C0 0.67 0 0.34 0 0 Z " fill="#2B2729" transform="translate(96,224)"/>
<path d="M0 0 C5.94 0 11.88 0 18 0 C18 0.66 18 1.32 18 2 C16.35 2.66 14.7 3.32 13 4 C12.97530919 8.3782512 12.95714443 12.75646567 12.94506836 17.13476562 C12.94003486 18.62468166 12.93320758 20.11459274 12.92456055 21.60449219 C12.91245195 23.74415304 12.90676193 25.88374868 12.90234375 28.0234375 C12.89710693 29.31169434 12.89187012 30.59995117 12.88647461 31.92724609 C12.78457369 34.91405228 12.78457369 34.91405228 14 37 C15.32 37.66 16.64 38.32 18 39 C12.06 39 6.12 39 0 39 C0 38.67 0 38.34 0 38 C1.98 37.34 3.96 36.68 6 36 C6.33 30.39 6.66 24.78 7 19 C0.07 19 -6.86 19 -14 19 C-14 18.67 -14 18.34 -14 18 C-7.07 18 -0.14 18 7 18 C6.67 13.38 6.34 8.76 6 4 C4.02 3.34 2.04 2.68 0 2 C0 1.34 0 0.68 0 0 Z " fill="#050203" transform="translate(540,236)"/>
<path d="M0 0 C0.99 0 1.98 0 3 0 C3.31227539 0.74048584 3.62455078 1.48097168 3.94628906 2.24389648 C5.379976 5.64213778 6.81497857 9.03982203 8.25 12.4375 C8.98669922 14.18450195 8.98669922 14.18450195 9.73828125 15.96679688 C12.19617971 21.78382322 14.67358233 27.58187143 17.32714844 33.31274414 C18 35 18 35 18 37 C19.32 37.33 20.64 37.66 22 38 C22 38.33 22 38.66 22 39 C16.72 39 11.44 39 6 39 C7.32 38.34 8.64 37.68 10 37 C9.37744495 33.35196673 8.36882417 30.17707614 6.93359375 26.76953125 C6.53076172 25.80208984 6.12792969 24.83464844 5.71289062 23.83789062 C5.29201172 22.83951172 4.87113281 21.84113281 4.4375 20.8125 C3.59969894 18.82033876 2.76490428 16.82690964 1.93359375 14.83203125 C1.56290771 13.95264893 1.19222168 13.0732666 0.81030273 12.16723633 C0 10 0 10 0 8 C-0.66 8 -1.32 8 -2 8 C-1.47731534 5.23723823 -0.89130413 2.6739124 0 0 Z " fill="#141011" transform="translate(581,236)"/>
<path d="M0 0 C0.66 0.33 1.32 0.66 2 1 C1.835 1.66 1.67 2.32 1.5 3 C0.18361405 9.77699736 0.18361405 9.77699736 2.26953125 16.03515625 C4.33899752 18.48729755 6.11070555 20.55535278 9 22 C11.08238466 21.97663986 11.08238466 21.97663986 13.375 21.6875 C14.14585937 21.60886719 14.91671875 21.53023438 15.7109375 21.44921875 C18.09760878 20.98084469 19.88597746 20.18250119 22 19 C22 19.99 22 20.98 22 22 C18.62051909 25.1907333 14.61272503 27.3261658 9.9375 27.5 C4.14185859 26.76404553 -0.154769 25.45465467 -3.9375 20.875 C-6.58710201 16.72512665 -6.96664138 12.78966448 -6 8 C-4.26016146 4.81029602 -2.55304507 2.55304507 0 0 Z " fill="#130F10" transform="translate(698,250)"/>
<path d="M0 0 C3 1 3 1 3.9831543 2.67407227 C4.26070557 3.38104248 4.53825684 4.0880127 4.82421875 4.81640625 C5.13037109 5.58017578 5.43652344 6.34394531 5.75195312 7.13085938 C6.21504883 8.33452148 6.21504883 8.33452148 6.6875 9.5625 C7.00783203 10.36880859 7.32816406 11.17511719 7.65820312 12.00585938 C8.44877255 13.99998225 9.225685 15.99950948 10 18 C5.05 18.33 0.1 18.66 -5 19 C-6.5731146 22.9327865 -7.42732628 25.89583836 -8 30 C-6.68 30.66 -5.36 31.32 -4 32 C-7.96 32 -11.92 32 -16 32 C-15.29488281 31.28585937 -14.58976563 30.57171875 -13.86328125 29.8359375 C-9.68348434 24.82018121 -7.61686312 18.61245571 -5.1875 12.625 C-4.68541016 11.41199219 -4.18332031 10.19898438 -3.66601562 8.94921875 C-2.43442286 5.9699372 -1.2128 2.98696952 0 0 Z " fill="#3A3738" transform="translate(578,243)"/>
<path d="M0 0 C0.66 0 1.32 0 2 0 C1.97905273 0.66531738 1.95810547 1.33063477 1.93652344 2.01611328 C1.85299391 5.05225302 1.80122397 8.08815043 1.75 11.125 C1.71648438 12.17171875 1.68296875 13.2184375 1.6484375 14.296875 C1.56841081 20.61898365 1.89110483 24.13253957 6 29 C6.75 31.375 6.75 31.375 7 33 C1.50401028 31.27268894 -1.69930622 28.19609893 -4.6171875 23.26953125 C-6.98675158 17.66691788 -6.80037307 11.97035046 -6 6 C-4.57842331 3.41160946 -3.51754466 2.65789526 -1 1 C-0.67 0.67 -0.34 0.34 0 0 Z " fill="#130F10" transform="translate(821,242)"/>
<path d="M0 0 C8 0 8 0 11 2.0625 C13.52975133 5.77807226 13.7878128 7.5882483 13 12 C11 14.9375 11 14.9375 8 17 C5.36 17 2.72 17 0 17 C0 11.39 0 5.78 0 0 Z " fill="#F7F7F7" transform="translate(275,238)"/>
<path d="M0 0 C-0.875 4.75 -0.875 4.75 -2 7 C-2.08471364 8.81341842 -2.10721083 10.62994161 -2.09765625 12.4453125 C-2.09282227 14.05986328 -2.09282227 14.05986328 -2.08789062 15.70703125 C-2.07951172 16.83496094 -2.07113281 17.96289062 -2.0625 19.125 C-2.05798828 20.26066406 -2.05347656 21.39632813 -2.04882812 22.56640625 C-2.03701615 25.37765638 -2.02054507 28.1888023 -2 31 C-6.03968296 29.09722102 -7.37810146 27.52103334 -9.234375 23.484375 C-11.13241609 17.32542533 -11.10946904 11.18068052 -8.1875 5.4375 C-7.465625 4.633125 -6.74375 3.82875 -6 3 C-5.484375 2.38125 -4.96875 1.7625 -4.4375 1.125 C-3 0 -3 0 0 0 Z " fill="#0F0B0C" transform="translate(225,240)"/>
<path d="M0 0 C1.875 1.125 1.875 1.125 3 3 C3.5625 5.75 3.5625 5.75 3 9 C1.22412657 11.56343469 -0.80411422 13.79104347 -3 16 C-6 15 -6 15 -7.6875 12.875 C-9.31359025 9.31308802 -9.43072505 6.87652542 -9 3 C-6.84332735 -0.71426957 -4.0099826 -0.50124783 0 0 Z " fill="#F7F7F7" transform="translate(715,226)"/>
<path d="M0 0 C0.66 0 1.32 0 2 0 C2 5.61 2 11.22 2 17 C1.34 17 0.68 17 0 17 C-0.33 15.68 -0.66 14.36 -1 13 C-1.99580078 13.63228516 -1.99580078 13.63228516 -3.01171875 14.27734375 C-4.33623047 15.09912109 -4.33623047 15.09912109 -5.6875 15.9375 C-6.55761719 16.48277344 -7.42773438 17.02804687 -8.32421875 17.58984375 C-14.16354809 20.66721294 -20.63898219 20.79412325 -26.9375 19 C-27.948125 18.67 -28.95875 18.34 -30 18 C-29.34 17.67 -28.68 17.34 -28 17 C-28 16.34 -28 15.68 -28 15 C-27.38125 15.165 -26.7625 15.33 -26.125 15.5 C-19.30374953 16.59140008 -12.87698499 16.95048349 -6.69140625 13.4765625 C-3.49689526 10.6878208 -2.286312 6.9461436 -1 3 C-0.67 2.01 -0.34 1.02 0 0 Z " fill="#262424" transform="translate(503,257)"/>
<path d="M0 0 C2.11120482 1.22919036 4.02320609 2.55356543 6 4 C6.66 2.35 7.32 0.7 8 -1 C8.66 -1 9.32 -1 10 -1 C10 5.27 10 11.54 10 18 C9.34 18 8.68 18 8 18 C7.76925781 17.25234375 7.53851563 16.5046875 7.30078125 15.734375 C4.88638299 8.11817479 4.88638299 8.11817479 -1 3 C-1.91652344 2.47019531 -1.91652344 2.47019531 -2.8515625 1.9296875 C-6.75220404 0.24177353 -10.83339464 0.54796263 -15 1 C-18.5047765 2.32985569 -18.5047765 2.32985569 -21 4 C-21 2.35 -21 0.7 -21 -1 C-14.2963369 -3.23455437 -6.51649909 -2.55548984 0 0 Z " fill="#1B1919" transform="translate(495,226)"/>
<path d="M0 0 C8.42571973 -0.42601954 14.81009068 -0.70109455 22 4 C22.66 4.66 23.32 5.32 24 6 C24.66 4.35 25.32 2.7 26 1 C26.99 1 27.98 1 29 1 C29 7.27 29 13.54 29 20 C28.34 20 27.68 20 27 20 C26.76925781 19.25234375 26.53851562 18.5046875 26.30078125 17.734375 C24.00000975 10.78659071 22.24286345 7.35714636 15.75 3.75 C10.52072653 2.32383451 5.20033868 2.5259811 0 4 C0 2.68 0 1.36 0 0 Z " fill="#2B2A2A" transform="translate(776,224)"/>
<path d="M0 0 C2.96912882 1.38980498 4.69657028 2.69657028 7 5 C7.66383452 9.1726741 7.20003159 10.7028102 4.8125 14.25 C2.16920762 16.83455255 0.5023123 17.99933934 -3 19 C-3 16 -3 16 -1 13.6875 C1.38986135 10.47612381 1.52199547 8.91496601 1 5 C-0.76136355 2.81668311 -0.76136355 2.81668311 -2.9453125 2.8046875 C-5.97265625 2.90234375 -5.97265625 2.90234375 -9 3 C-9 3.66 -9 4.32 -9 5 C-10.98 5.66 -12.96 6.32 -15 7 C-12.04396891 -0.1437418 -7.17016179 -0.97309339 0 0 Z " fill="#1F1D1E" transform="translate(716,224)"/>
<path d="M0 0 C5.61 0 11.22 0 17 0 C17 0.99 17 1.98 17 3 C16.08992187 3.58265625 15.17984375 4.1653125 14.2421875 4.765625 C10.44497876 7.38249657 9.17132119 9.65735762 7.125 13.75 C6.52945313 14.92046875 5.93390625 16.0909375 5.3203125 17.296875 C4.88460937 18.18890625 4.44890625 19.0809375 4 20 C3.01 19.34 2.02 18.68 1 18 C1.66 18 2.32 18 3 18 C5.07209902 11.62726417 5.07209902 11.62726417 5 5 C2.57327433 3.21030974 2.57327433 3.21030974 0 2 C0 1.34 0 0.68 0 0 Z " fill="#282627" transform="translate(723,243)"/>
<path d="M0 0 C0.33 0 0.66 0 1 0 C1.66964286 7.76785714 1.66964286 7.76785714 -1.375 11.4375 C-5.57195079 15.53452339 -8.53603656 15.32319894 -14.22265625 15.30078125 C-18.1740502 14.87285251 -20.03201175 13.56690875 -23 11 C-23.33 11.99 -23.66 12.98 -24 14 C-24.33 14 -24.66 14 -25 14 C-25 9.71 -25 5.42 -25 1 C-23 2 -23 2 -21.5625 5.375 C-19.91267609 9.26633166 -19.91267609 9.26633166 -17 12 C-14.82504919 12.47307456 -14.82504919 12.47307456 -12.5 12.375 C-11.33984375 12.38660156 -11.33984375 12.38660156 -10.15625 12.3984375 C-7.49835299 11.90730436 -6.62872628 11.12289091 -5 9 C-4.27802838 6.39388923 -4.27802838 6.39388923 -4 4 C-3.67 4.99 -3.34 5.98 -3 7 C-2.34 6.67 -1.68 6.34 -1 6 C-0.34227572 2.97065509 -0.34227572 2.97065509 0 0 Z " fill="#3D3B3B" transform="translate(633,261)"/>
<path d="M0 0 C6.08735318 -0.32481924 10.72428087 -0.47425406 16 3 C16.61875 3.391875 17.2375 3.78375 17.875 4.1875 C19.77871769 7.25460072 19.65753652 10.56004579 19 14 C17 16.5 17 16.5 15 18 C14.01 17.67 13.02 17.34 12 17 C12.17789062 16.42378906 12.35578125 15.84757813 12.5390625 15.25390625 C13.29125605 11.57580726 12.46868244 8.41723141 11 5 C7.63465857 2.1020671 4.3522424 1.5060747 0 1 C0 0.67 0 0.34 0 0 Z " fill="#0C0809" transform="translate(275,236)"/>
<path d="M0 0 C2.625 0.375 2.625 0.375 5 1 C5.79953138 4.28696233 6.09658936 5.71023192 5 9 C10.78251112 9.49630412 10.78251112 9.49630412 15.875 7.125 C16.57625 6.42375 17.2775 5.7225 18 5 C18.66 4.34 19.32 3.68 20 3 C19.42655063 5.86724686 19.1385485 6.8614515 17 9 C17.33 9.66 17.66 10.32 18 11 C12.6144208 12.51431252 7.20356532 13.03145611 2.0625 10.625 C0 9 0 9 -2 7 C-2.25 4.5 -2.25 4.5 -2 2 C-1.34 1.34 -0.68 0.68 0 0 Z " fill="#1D1A1A" transform="translate(53,266)"/>
<path d="M0 0 C5.61 0 11.22 0 17 0 C15.68 0.99 14.36 1.98 13 3 C12.30250411 5.72489473 12.30250411 5.72489473 12.25 8.6875 C12.19328125 9.68136719 12.1365625 10.67523438 12.078125 11.69921875 C12.05234375 12.45847656 12.0265625 13.21773438 12 14 C9.69 14 7.38 14 5 14 C5 10.37 5 6.74 5 3 C2.525 2.01 2.525 2.01 0 1 C0 0.67 0 0.34 0 0 Z " fill="#070304" transform="translate(330,259)"/>
<path d="M0 0 C3.77720794 4.49667612 6 9.0971218 6 15 C2.04 15 -1.92 15 -6 15 C-4.32819664 9.74576086 -2.62305301 4.87138415 0 0 Z " fill="#F1F1F1" transform="translate(580,244)"/>
<path d="M0 0 C0.66 0 1.32 0 2 0 C2.83739781 2.1234016 3.66980283 4.2487728 4.5 6.375 C4.9640625 7.55835938 5.428125 8.74171875 5.90625 9.9609375 C7 13 7 13 7 15 C3.04 15 -0.92 15 -5 15 C-4.23239022 11.16195111 -3.40495674 8.23779856 -1.9375 4.6875 C-1.39416016 3.36298828 -1.39416016 3.36298828 -0.83984375 2.01171875 C-0.56269531 1.34785156 -0.28554688 0.68398437 0 0 Z " fill="#F0EFF0" transform="translate(367,244)"/>
<path d="M0 0 C0.66 0 1.32 0 2 0 C2 5.94 2 11.88 2 18 C1.34 18 0.68 18 0 18 C-0.66 17.01 -1.32 16.02 -2 15 C-4.27154254 16.09370567 -6.22363493 17.1677262 -8.25 18.6875 C-12.19862478 20.57207092 -14.74249493 19.79377213 -19 19 C-19 18.67 -19 18.34 -19 18 C-18.26394531 17.85304688 -17.52789063 17.70609375 -16.76953125 17.5546875 C-12.00905103 16.4604688 -8.72584821 15.63511718 -5 12.375 C-2.63436978 8.382999 -1.21895255 4.4595825 0 0 Z " fill="#100D0E" transform="translate(803,256)"/>
<path d="M0 0 C0.33 0 0.66 0 1 0 C1.04934399 5.94481181 1.08569282 11.88950509 1.10986328 17.83447266 C1.11993671 19.85793127 1.13359595 21.88137528 1.15087891 23.90478516 C1.17506847 26.80895589 1.18646949 29.71293461 1.1953125 32.6171875 C1.20563507 33.52556366 1.21595764 34.43393982 1.22659302 35.36984253 C1.22674408 36.21056305 1.22689514 37.05128357 1.22705078 37.91748047 C1.231492 38.65916473 1.23593323 39.400849 1.24050903 40.16500854 C1 42 1 42 -1 44 C2.63 44 6.26 44 10 44 C10.33 44.99 10.66 45.98 11 47 C4.73 47 -1.54 47 -8 47 C-8 46.01 -8 45.02 -8 44 C-7.030625 43.690625 -6.06125 43.38125 -5.0625 43.0625 C-2.15934208 42.30476658 -2.15934208 42.30476658 -1 41 C-0.8396444 37.97192956 -0.74039552 34.96414546 -0.68359375 31.93359375 C-0.66281265 31.02497086 -0.64203156 30.11634796 -0.62062073 29.18019104 C-0.55502328 26.26604054 -0.4961932 23.35179696 -0.4375 20.4375 C-0.39432446 18.46678709 -0.35071049 16.49608374 -0.30664062 14.52539062 C-0.19933157 9.68369012 -0.09809325 4.84189563 0 0 Z " fill="#5D5B5C" transform="translate(151,229)"/>
<path d="M0 0 C4.95 0 9.9 0 15 0 C15 0.66 15 1.32 15 2 C13.35 2.66 11.7 3.32 10 4 C9.67 15.88 9.34 27.76 9 40 C8.67 40 8.34 40 8 40 C8 28.12 8 16.24 8 4 C5.36 3.34 2.72 2.68 0 2 C0 1.34 0 0.68 0 0 Z " fill="#535051" transform="translate(422,236)"/>
<path d="M0 0 C9.57 0 19.14 0 29 0 C29 3.3 29 6.6 29 10 C28.01 8.68 27.02 7.36 26 6 C24.26383574 3.84867267 23.50612162 3.09784318 20.76342773 2.56762695 C19.91208252 2.54144287 19.0607373 2.51525879 18.18359375 2.48828125 C16.79043945 2.43510742 16.79043945 2.43510742 15.36914062 2.38085938 C14.40169922 2.35830078 13.43425781 2.33574219 12.4375 2.3125 C11.46619141 2.27833984 10.49488281 2.24417969 9.49414062 2.20898438 C6.32925572 2.10121554 3.16686302 2 0 2 C0 1.34 0 0.68 0 0 Z " fill="#484546" transform="translate(640,236)"/>
<path d="M0 0 C0.33 0 0.66 0 1 0 C0.46494862 5.00952251 -0.64083153 9.00982937 -2.72265625 13.58984375 C-3.52993164 15.38325195 -3.52993164 15.38325195 -4.35351562 17.21289062 C-4.92298296 18.45451613 -5.49264684 19.69605152 -6.0625 20.9375 C-6.636886 22.20601 -7.21046139 23.47488738 -7.78320312 24.74414062 C-9.18088241 27.8331293 -10.58667579 30.91814597 -12 34 C-12.99 33.34 -13.98 32.68 -15 32 C-14.25556641 30.5459375 -14.25556641 30.5459375 -13.49609375 29.0625 C-8.64539556 19.51478911 -4.1929267 9.85337775 0 0 Z " fill="#2A2728" transform="translate(192,233)"/>
<path d="M0 0 C0.38929688 0.433125 0.77859375 0.86625 1.1796875 1.3125 C4.68027409 4.79695486 7.09155299 6.4397192 12.125 6.5 C15.74109694 6.27950628 18.76284726 5.72648146 22 4 C22.33 4.99 22.66 5.98 23 7 C17.12918818 9.72807241 11.363277 9.67146236 5 9 C2.20631789 7.95520832 0.41500862 6.79721571 -2 5 C-2 4.34 -2 3.68 -2 3 C-1.34 3 -0.68 3 0 3 C0 2.01 0 1.02 0 0 Z " fill="#1C1A1B" transform="translate(314,267)"/>
<path d="M0 0 C0.33 0 0.66 0 1 0 C1.01458252 1.1552417 1.02916504 2.3104834 1.04418945 3.50073242 C1.10226822 7.79677912 1.1795005 12.09230694 1.26245117 16.38793945 C1.29565549 18.2452755 1.32370141 20.10271137 1.34643555 21.96020508 C1.38006442 24.63405798 1.43238374 27.30699993 1.48828125 29.98046875 C1.49467117 30.80773972 1.5010611 31.63501068 1.50764465 32.48735046 C1.62601748 37.15448001 2.07815384 40.14615634 5 44 C4 45 4 45 0.4375 45.0625 C-0.696875 45.041875 -1.83125 45.02125 -3 45 C-2.34 44.01 -1.68 43.02 -1 42 C-0.67478946 40.00406804 -0.67478946 40.00406804 -0.68115234 37.80395508 C-0.65134781 36.54298759 -0.65134781 36.54298759 -0.62094116 35.25654602 C-0.60938995 34.35333115 -0.59783875 33.45011627 -0.5859375 32.51953125 C-0.56657135 31.59154221 -0.5472052 30.66355316 -0.5272522 29.70744324 C-0.46745756 26.74255575 -0.42107145 23.77762943 -0.375 20.8125 C-0.33682012 18.80271741 -0.29776838 16.79295119 -0.2578125 14.78320312 C-0.16175607 9.85560158 -0.07772451 4.92792342 0 0 Z " fill="#010000" transform="translate(152,229)"/>
<path d="M0 0 C2.5625 0.1875 2.5625 0.1875 4.5625 2.1875 C4.75 4.75 4.75 4.75 4.5625 7.1875 C3.5625 8.1875 3.5625 8.1875 0.5625 8.3125 C-2.4375 8.1875 -2.4375 8.1875 -3.4375 7.1875 C-3.5625 4.1875 -3.5625 4.1875 -3.4375 1.1875 C-2.4375 0.1875 -2.4375 0.1875 0 0 Z " fill="#0E090B" transform="translate(864.4375,267.8125)"/>
<path d="M0 0 C0.66 0 1.32 0 2 0 C2 4.62 2 9.24 2 14 C1.34 14 0.68 14 0 14 C-0.33 12.35 -0.66 10.7 -1 9 C-3.64 8.67 -6.28 8.34 -9 8 C-9 12.95 -9 17.9 -9 23 C-9.33 23 -9.66 23 -10 23 C-10 17.72 -10 12.44 -10 7 C-7.36 6.67 -4.72 6.34 -2 6 C-1.34 4.02 -0.68 2.04 0 0 Z " fill="#5E5D5D" transform="translate(661,248)"/>
<path d="M0 0 C0.66 0 1.32 0 2 0 C2.49405138 4.1500316 2.18902785 5.71915862 -0.1875 9.25 C-2.83079238 11.83455255 -4.4976877 12.99933934 -8 14 C-8 10.30000247 -6.67705374 9.24313982 -4.3046875 6.5625 C-2.81562386 4.86610561 -2.81562386 4.86610561 -1.3125 2.125 C-0.879375 1.42375 -0.44625 0.7225 0 0 Z " fill="#1B1819" transform="translate(721,229)"/>
<path d="M0 0 C0.66 0 1.32 0 2 0 C2 6.27 2 12.54 2 19 C1.34 19 0.68 19 0 19 C-2.40192477 12.35938446 -2.23634661 6.70903982 0 0 Z " fill="#151313" transform="translate(503,225)"/>
<path d="M0 0 C0.598125 0.78375 1.19625 1.5675 1.8125 2.375 C4.22732009 5.27278411 5.79412321 6.840185 9.59375 7.34375 C10.5528125 7.3953125 11.511875 7.446875 12.5 7.5 C16.34156538 7.70653577 17.71656676 7.8110445 21 10 C5.07061503 10.738041 5.07061503 10.738041 -1 6 C-0.67 4.02 -0.34 2.04 0 0 Z " fill="#2F2D2D" transform="translate(223,266)"/>
<path d="M0 0 C0.66 0.66 1.32 1.32 2 2 C1.690625 2.70125 1.38125 3.4025 1.0625 4.125 C-0.03302678 7.08936657 -0.56422992 9.87698108 -1 13 C0.32 13.66 1.64 14.32 3 15 C-0.96 15 -4.92 15 -9 15 C-8.2575 14.195625 -7.515 13.39125 -6.75 12.5625 C-3.57220484 8.78717071 -1.81062113 4.55184084 0 0 Z " fill="#2C292A" transform="translate(571,260)"/>
<path d="M0 0 C8.44333791 -0.42691034 14.75903687 -0.63421641 22 4 C22 4.99 22 5.98 22 7 C21.18208984 6.566875 21.18208984 6.566875 20.34765625 6.125 C13.36101343 2.685422 7.53383227 1.9176149 0 4 C0 2.68 0 1.36 0 0 Z " fill="#272626" transform="translate(776,224)"/>
<path d="M0 0 C0.66 0 1.32 0 2 0 C1.67 3.96 1.34 7.92 1 12 C-1.64 12 -4.28 12 -7 12 C-7.33 11.34 -7.66 10.68 -8 10 C-7.236875 9.649375 -6.47375 9.29875 -5.6875 8.9375 C-2.09141882 6.34497636 -1.47896213 4.12552594 0 0 Z " fill="#110E0F" transform="translate(671,263)"/>
<path d="M0 0 C0.66 0 1.32 0 2 0 C2 5.61 2 11.22 2 17 C1.34 17 0.68 17 0 17 C-0.12375 16.195625 -0.2475 15.39125 -0.375 14.5625 C-0.684375 13.2940625 -0.684375 13.2940625 -1 12 C-1.66 11.67 -2.32 11.34 -3 11 C-2.34 10.01 -1.68 9.02 -1 8 C-0.54860541 5.9507906 -0.54860541 5.9507906 -0.375 3.8125 C-0.25125 2.554375 -0.1275 1.29625 0 0 Z " fill="#0B090A" transform="translate(503,257)"/>
<path d="M0 0 C5.61 0 11.22 0 17 0 C17 0.99 17 1.98 17 3 C15.68 3.33 14.36 3.66 13 4 C13 3.34 13 2.68 13 2 C10.6568787 2.25561323 8.32156597 2.59270772 6 3 C5.67 3.66 5.34 4.32 5 5 C2.5 3.625 2.5 3.625 0 2 C0 1.34 0 0.68 0 0 Z " fill="#383637" transform="translate(723,243)"/>
<path d="M0 0 C0.99 0 1.98 0 3 0 C3.66 0.99 4.32 1.98 5 3 C5.99 3.33 6.98 3.66 8 4 C8 4.66 8 5.32 8 6 C3.71 6 -0.58 6 -5 6 C-5 5.34 -5 4.68 -5 4 C-4.360625 3.71125 -3.72125 3.4225 -3.0625 3.125 C-0.84793921 2.17176549 -0.84793921 2.17176549 0 0 Z " fill="#353334" transform="translate(354,270)"/>
<path d="M0 0 C0.8971875 0.61875 0.8971875 0.61875 1.8125 1.25 C3.1367287 1.61784131 4.46863912 1.96202981 5.8125 2.25 C5.8125 2.91 5.8125 3.57 5.8125 4.25 C0.8625 4.25 -4.0875 4.25 -9.1875 4.25 C-9.1875 3.59 -9.1875 2.93 -9.1875 2.25 C-2.78072034 -0.95338983 -2.78072034 -0.95338983 0 0 Z " fill="#353333" transform="translate(402.1875,271.75)"/>
<path d="M0 0 C0.66 0.33 1.32 0.66 2 1 C2 4 2 4 1 6 C-0.31403276 6.70394612 -1.6520257 7.36345658 -3 8 C-3.7425 8.556875 -4.485 9.11375 -5.25 9.6875 C-9.19862478 11.57207092 -11.74249493 10.79377213 -16 10 C-16 9.67 -16 9.34 -16 9 C-15.26394531 8.85304688 -14.52789063 8.70609375 -13.76953125 8.5546875 C-7.14077153 7.03103599 -3.7217611 5.77514654 0 0 Z " fill="#353334" transform="translate(800,265)"/>
<path d="M0 0 C0.66 0 1.32 0 2 0 C0.98929671 2.6645814 0.0600516 3.95195872 -2.1875 5.75 C-5.62414976 7.27739989 -8.27897849 7.21888362 -12 7 C-12 5 -12 5 -10 3 C-7.87109375 2.40234375 -7.87109375 2.40234375 -5.4375 1.9375 C-2.4322803 1.53522134 -2.4322803 1.53522134 0 0 Z " fill="#222121" transform="translate(743,270)"/>
<path d="M0 0 C5.94 0 11.88 0 18 0 C18 0.66 18 1.32 18 2 C16.02 2.66 14.04 3.32 12 4 C12 3.34 12 2.68 12 2 C10.35 2 8.7 2 7 2 C6.67 2.66 6.34 3.32 6 4 C4.02 3.34 2.04 2.68 0 2 C0 1.34 0 0.68 0 0 Z " fill="#2D2B2B" transform="translate(540,236)"/>
<path d="M0 0 C1.81564453 0.00580078 1.81564453 0.00580078 3.66796875 0.01171875 C6.8125 0.3125 6.8125 0.3125 9.8125 2.3125 C6.0625 3.4375 6.0625 3.4375 3.8125 2.3125 C-1.46533388 1.90651278 -4.6252012 2.6600007 -9.1875 5.3125 C-10.1775 5.8075 -10.1775 5.8075 -11.1875 6.3125 C-11.1875 5.6525 -11.1875 4.9925 -11.1875 4.3125 C-11.8475 3.9825 -12.5075 3.6525 -13.1875 3.3125 C-8.60166008 0.65088694 -5.28535692 -0.07364377 0 0 Z " fill="#1F1D1E" transform="translate(236.1875,235.6875)"/>
<path d="M0 0 C3.23859087 1.61929544 3.67660913 4.74666411 5 8 C5.65288627 9.34013497 6.31225595 10.67741528 7 12 C4.525 11.01 4.525 11.01 2 10 C1.67 10.99 1.34 11.98 1 13 C0.67 13 0.34 13 0 13 C0 8.71 0 4.42 0 0 Z " fill="#1B1A1A" transform="translate(608,262)"/>
<path d="M0 0 C0 0.66 0 1.32 0 2 C-1.97946592 3.36363208 -3.9819245 4.69418644 -6 6 C-7.79394446 7.62351109 -7.79394446 7.62351109 -9 9 C-9 8.01 -9 7.02 -9 6 C-10.65 6.66 -12.3 7.32 -14 8 C-6.43243243 0 -6.43243243 0 0 0 Z " fill="#272526" transform="translate(832,236)"/>
<path d="M0 0 C0.99 0.33 1.98 0.66 3 1 C-3.49919692 7.86026341 -3.49919692 7.86026341 -8.02734375 8.11328125 C-10.01855955 8.12377975 -12.00986185 8.06633794 -14 8 C-14 7.67 -14 7.34 -14 7 C-13.175 6.773125 -12.35 6.54625 -11.5 6.3125 C-7.83405276 4.93776978 -5.02011578 3.15806924 -1.83203125 0.92578125 C-1.22746094 0.62027344 -0.62289062 0.31476563 0 0 Z " fill="#2E2D2D" transform="translate(718,269)"/>
<path d="M0 0 C5.61 0 11.22 0 17 0 C15.68 0.99 14.36 1.98 13 3 C12.30250411 5.72489473 12.30250411 5.72489473 12.25 8.6875 C12.19328125 9.68136719 12.1365625 10.67523438 12.078125 11.69921875 C12.05234375 12.45847656 12.0265625 13.21773438 12 14 C11.67 14 11.34 14 11 14 C11 9.71 11 5.42 11 1 C9.39125 1.309375 9.39125 1.309375 7.75 1.625 C4 2 4 2 0 0 Z " fill="#1A1818" transform="translate(330,259)"/>
<path d="M0 0 C0 3.63 0 7.26 0 11 C-0.66 11 -1.32 11 -2 11 C-5 5.25 -5 5.25 -5 3 C-2.46153846 0 -2.46153846 0 0 0 Z " fill="#3A3838" transform="translate(631,236)"/>
<path d="M0 0 C2.64 0 5.28 0 8 0 C7.6875 1.875 7.6875 1.875 7 4 C6.01 4.66 5.02 5.32 4 6 C1 4 1 4 0.3125 1.875 C0.209375 1.25625 0.10625 0.6375 0 0 Z " fill="#0D090A" transform="translate(728,245)"/>
<path d="M0 0 C0.96808594 -0.01675781 1.93617188 -0.03351563 2.93359375 -0.05078125 C5.89997041 0.3591341 6.75636292 0.99207304 8.5625 3.3125 C7.5725 3.8075 7.5725 3.8075 6.5625 4.3125 C5.7271875 3.8175 5.7271875 3.8175 4.875 3.3125 C1.47418828 1.84187872 -0.87438589 2.49985994 -4.4375 3.3125 C-7.28998773 4.7546908 -7.28998773 4.7546908 -9.4375 6.3125 C-7.08200849 1.2650182 -5.63905516 0.02246636 0 0 Z " fill="#201D1E" transform="translate(618.4375,235.6875)"/>
<path d="M0 0 C5.28 0.66 10.56 1.32 16 2 C16 2.33 16 2.66 16 3 C10.72 3 5.44 3 0 3 C0 2.01 0 1.02 0 0 Z " fill="#424041" transform="translate(828,273)"/>
<path d="M0 0 C2.3125 -0.25 2.3125 -0.25 5 0 C6.8125 2 6.8125 2 8 4 C7.03114628 5.68496298 6.03013277 7.35178756 5 9 C4.67 9 4.34 9 4 9 C3.71125 8.071875 3.4225 7.14375 3.125 6.1875 C2.1125 2.90208333 2.1125 2.90208333 0 0 Z " fill="#120F10" transform="translate(714,225)"/>
<path d="M0 0 C2.10827055 3.16240582 2.33817465 4.50657469 2.625 8.1875 C2.69976563 9.08855469 2.77453125 9.98960937 2.8515625 10.91796875 C2.90054688 11.60503906 2.94953125 12.29210937 3 13 C2.34 13 1.68 13 1 13 C0.01 9.37 -0.98 5.74 -2 2 C-1.34 1.34 -0.68 0.68 0 0 Z " fill="#0A0707" transform="translate(802,231)"/>
<path d="M0 0 C0.598125 0.33 1.19625 0.66 1.8125 1 C4.05386471 2.20787988 4.05386471 2.20787988 7 2 C9 4 9 4 9 7 C5.56072421 5.7580393 2.74792181 4.44259716 0 2 C0 1.34 0 0.68 0 0 Z " fill="#242323" transform="translate(819,268)"/>
<path d="M0 0 C2.64 0 5.28 0 8 0 C8.33 2.97 8.66 5.94 9 9 C8.566875 8.401875 8.13375 7.80375 7.6875 7.1875 C5.33871309 4.14277623 3.21452817 2.14301878 0 0 Z " fill="#0E0D0D" transform="translate(660,237)"/>
<path d="M0 0 C0.33 0.66 0.66 1.32 1 2 C0.67 2.66 0.34 3.32 0 4 C0.99 4 1.98 4 3 4 C3 4.66 3 5.32 3 6 C-3.0546875 6.1953125 -3.0546875 6.1953125 -5 6 C-5.66 5.34 -6.32 4.68 -7 4 C-5.824375 3.566875 -5.824375 3.566875 -4.625 3.125 C-1.90328368 2.15087746 -1.90328368 2.15087746 0 0 Z " fill="#222021" transform="translate(126,245)"/>
<path d="M0 0 C2 1 2 1 3 3 C-1.77573323 5.61895048 -5.84434881 4.83119431 -11 4 C-11 3.67 -11 3.34 -11 3 C-10.28972656 2.86722656 -9.57945312 2.73445313 -8.84765625 2.59765625 C-7.92855469 2.42105469 -7.00945312 2.24445313 -6.0625 2.0625 C-4.68771484 1.80146484 -4.68771484 1.80146484 -3.28515625 1.53515625 C-1.04710156 1.22285012 -1.04710156 1.22285012 0 0 Z " fill="#3D3B3C" transform="translate(334,271)"/>
<path d="M0 0 C1.60379341 -0.05416188 3.20811406 -0.09286638 4.8125 -0.125 C5.70582031 -0.14820313 6.59914063 -0.17140625 7.51953125 -0.1953125 C10 0 10 0 13 2 C12.01 3.485 12.01 3.485 11 5 C10.29875 4.525625 9.5975 4.05125 8.875 3.5625 C5.83918663 1.91260143 3.40831214 1.39631536 0 1 C0 0.67 0 0.34 0 0 Z " fill="#1E1C1C" transform="translate(275,236)"/>
<path d="M0 0 C0.99386719 0.00902344 1.98773438 0.01804688 3.01171875 0.02734375 C4.15060547 0.04474609 4.15060547 0.04474609 5.3125 0.0625 C5.3125 0.3925 5.3125 0.7225 5.3125 1.0625 C2.0125 1.3925 -1.2875 1.7225 -4.6875 2.0625 C-4.6875 2.7225 -4.6875 3.3825 -4.6875 4.0625 C-6.6675 5.0525 -6.6675 5.0525 -8.6875 6.0625 C-8.6875 4.4125 -8.6875 2.7625 -8.6875 1.0625 C-5.53819107 0.01273036 -3.29935544 -0.03881595 0 0 Z " fill="#363434" transform="translate(482.6875,223.9375)"/>
<path d="M0 0 C0.66 0.33 1.32 0.66 2 1 C2 4 2 4 1 6 C-0.875 7.1875 -0.875 7.1875 -3 8 C-3.99 7.67 -4.98 7.34 -6 7 C-4.02 4.69 -2.04 2.38 0 0 Z " fill="#242323" transform="translate(800,265)"/>
<path d="M0 0 C-1.04874998 2.62187494 -1.64931313 3.79371361 -4.125 5.25 C-4.74375 5.4975 -5.3625 5.745 -6 6 C-6 5.34 -6 4.68 -6 4 C-6.99 3.67 -7.98 3.34 -9 3 C-2.25 0 -2.25 0 0 0 Z " fill="#191617" transform="translate(745,270)"/>
<path d="M0 0 C1.32 1.32 2.64 2.64 4 4 C3.67 4.66 3.34 5.32 3 6 C1.02 6 -0.96 6 -3 6 C-2.01 4.02 -1.02 2.04 0 0 Z " fill="#100B0D" transform="translate(153,268)"/>
<path d="M0 0 C1.98 0 3.96 0 6 0 C6.33 1.98 6.66 3.96 7 6 C3.535 4.02 3.535 4.02 0 2 C0 1.34 0 0.68 0 0 Z " fill="#211F1F" transform="translate(275,255)"/>
<path d="M0 0 C1.98 0.99 3.96 1.98 6 3 C6 3.33 6 3.66 6 4 C3.03 4 0.06 4 -3 4 C-2.01 2.68 -1.02 1.36 0 0 Z " fill="#040404" transform="translate(568,271)"/>
<path d="M0 0 C1.65 0 3.3 0 5 0 C5 0.99 5 1.98 5 3 C4.38125 3.144375 3.7625 3.28875 3.125 3.4375 C0.96741678 3.93152225 0.96741678 3.93152225 -1 5 C-0.67 3.35 -0.34 1.7 0 0 Z " fill="#151314" transform="translate(862,268)"/>
<path d="M0 0 C0.66 0.33 1.32 0.66 2 1 C1.67 2.65 1.34 4.3 1 6 C-0.32 5.67 -1.64 5.34 -3 5 C-3.33 5.99 -3.66 6.98 -4 8 C-4.33 7.34 -4.66 6.68 -5 6 C-3.35 4.02 -1.7 2.04 0 0 Z " fill="#1A1819" transform="translate(698,250)"/>
<path d="M0 0 C1.60031344 3.20062687 0.03173691 5.72271806 -1 9 C-1.66 9 -2.32 9 -3 9 C-3.1875 5.625 -3.1875 5.625 -3 2 C-2.01 1.34 -1.02 0.68 0 0 Z " fill="#131212" transform="translate(611,240)"/>
<path d="M0 0 C0.99 0.33 1.98 0.66 3 1 C2.34 2.32 1.68 3.64 1 5 C-0.65 5 -2.3 5 -4 5 C-2.68 3.35 -1.36 1.7 0 0 Z " fill="#1F1E1E" transform="translate(628,270)"/>
<path d="M0 0 C0.66 0 1.32 0 2 0 C1.67 2.97 1.34 5.94 1 9 C0.34 8.34 -0.32 7.68 -1 7 C-0.625 3.375 -0.625 3.375 0 0 Z " fill="#201E1F" transform="translate(671,263)"/>
<path d="M0 0 C0.99 0 1.98 0 3 0 C2.67 2.31 2.34 4.62 2 7 C1.34 6.01 0.68 5.02 0 4 C-0.99 4.495 -0.99 4.495 -2 5 C-1.34 3.35 -0.68 1.7 0 0 Z " fill="#040202" transform="translate(695,255)"/>
<path d="M0 0 C0.66 0.66 1.32 1.32 2 2 C1.2884375 2.928125 1.2884375 2.928125 0.5625 3.875 C-1.02417441 5.90705546 -1.02417441 5.90705546 -2 8 C-2.99 7.67 -3.98 7.34 -5 7 C-3.35 4.69 -1.7 2.38 0 0 Z " fill="#2D2B2C" transform="translate(717,235)"/>
</svg>
